<?xml version="1.0" encoding="utf-8"?>
<!-- Generator: Adobe Illustrator 25.4.0, SVG Export Plug-In . SVG Version: 6.00 Build 0)  -->
<svg version="1.1" xmlns="http://www.w3.org/2000/svg" xmlns:xlink="http://www.w3.org/1999/xlink" x="0px" y="0px"
	 viewBox="0 0 3710 3710" style="enable-background:new 0 0 3710 3710;" xml:space="preserve">
<style type="text/css">
	.st0{display:none;}
	.st1{display:inline;}
	.st2{fill:#FFFFFF;}
	.st3{opacity:0.3;fill:url(#SVGID_1_);}
	.st4{fill:url(#SVGID_00000159438942111481367590000006495583889759150754_);}
	.st5{opacity:0.43;fill:#FFFFFF;}
	.st6{fill:url(#SVGID_00000104664203996021864480000006272200264339080870_);}
	.st7{fill:url(#SVGID_00000111191208271963016200000011392099885116427663_);}
	.st8{fill:url(#SVGID_00000094576038584804980680000010122499518211217579_);}
	.st9{fill:url(#SVGID_00000039132156858389750180000014607385295773111475_);}
	.st10{fill:url(#SVGID_00000031927453713189038780000006691208212059277999_);}
	.st11{opacity:0.6;fill:#FFFFFF;}
	.st12{opacity:0.78;fill:#FFFFFF;}
	.st13{opacity:0.6;}
	.st14{fill:url(#SVGID_00000062877428189295915390000002074338070206187419_);}
	.st15{fill:url(#SVGID_00000029047559135323870940000001032983572928340925_);}
	.st16{fill:url(#SVGID_00000001662699251081794730000009771443125444878223_);}
	.st17{fill:url(#SVGID_00000035531610557801211160000003405771457699691179_);}
	.st18{fill:url(#SVGID_00000030469804159754141690000008324300347194092428_);}
	.st19{fill:url(#SVGID_00000003815431931753365890000013920285266699558063_);}
	.st20{fill:url(#SVGID_00000139990749018461187240000000404642186285542030_);}
	.st21{fill:url(#SVGID_00000175290960991373486670000011391281266090211502_);}
	.st22{fill:url(#SVGID_00000158733869426810274580000015811067095754019988_);}
	.st23{fill:url(#SVGID_00000072974405193419419870000003006628202852941210_);}
	.st24{fill:url(#SVGID_00000076592925825880064940000009405956720140165773_);}
	.st25{fill:url(#SVGID_00000052079911886295072780000001467405718169111222_);}
	.st26{fill:url(#SVGID_00000167366846475580833110000006095440112457327539_);}
	.st27{fill:url(#SVGID_00000017496870015257043870000012954815231614751638_);}
	.st28{fill:url(#SVGID_00000029033604424612413070000009702098063151927975_);}
	.st29{fill:url(#SVGID_00000114781012938058090620000014488060560506871695_);}
	.st30{fill:url(#SVGID_00000127012263171080943890000001543070308808351651_);}
	.st31{fill:url(#SVGID_00000078013773823365930590000014222995956394177983_);}
	.st32{fill:url(#SVGID_00000060002089271645845880000016635947660441677704_);}
	.st33{fill:url(#SVGID_00000015337849704615068720000012690534616981078946_);}
	.st34{fill:url(#SVGID_00000000216110999750781520000017481600213861274496_);}
	.st35{fill:url(#SVGID_00000128466035277463382610000007141186114626153608_);}
	.st36{fill:url(#SVGID_00000119824380575573166510000015129830367237076670_);}
	.st37{fill:url(#SVGID_00000153676712691113601690000006324591015495067540_);}
	.st38{fill:url(#SVGID_00000022547611634169969950000015994918495378439101_);}
	.st39{fill:url(#SVGID_00000054232339626321456010000009744672682541416602_);}
	.st40{fill:url(#SVGID_00000097467198933626098900000018089569013516322721_);}
	.st41{fill:url(#SVGID_00000016070636708391248290000002694970277145346723_);}
	.st42{fill:url(#SVGID_00000103252770033422280420000016896020109887187351_);}
	.st43{fill:url(#SVGID_00000068657859533114654280000003534078296599509121_);}
	.st44{fill:url(#SVGID_00000101073087497800739200000010662320059837121982_);}
	.st45{fill:url(#SVGID_00000170964218508365177910000010307802294295630271_);}
	.st46{fill:url(#SVGID_00000127739359790263071800000012492568589091365566_);}
	.st47{fill:url(#SVGID_00000165934843005366350330000013551928078929589908_);}
	.st48{fill:url(#SVGID_00000109007891425435783030000016093848714708296578_);}
	.st49{fill:url(#SVGID_00000106826714415501718140000002219043803964462739_);}
	.st50{fill:url(#SVGID_00000119078350460654644810000004337604075082325385_);}
	.st51{fill:url(#SVGID_00000134211129843804026020000007566359880533159869_);}
	.st52{fill:url(#SVGID_00000070841005629162648190000003483742844137536397_);}
	.st53{fill:url(#SVGID_00000172427094437827187350000006420539914422552231_);}
	.st54{fill:url(#SVGID_00000052796766249507754660000013233406589783786924_);}
	.st55{fill:url(#SVGID_00000042730728056528945000000000568115386028845196_);}
	.st56{fill:url(#SVGID_00000137093217651312319900000016578353863359910024_);}
	.st57{fill:url(#SVGID_00000112631811785505619920000010494876683117316519_);}
	.st58{fill:url(#SVGID_00000053530216301719701380000007545349958040233885_);}
	.st59{fill:url(#SVGID_00000128479435367470996010000011792891786959846550_);}
	.st60{fill:url(#SVGID_00000049927325255245797410000010769851764146126007_);}
	.st61{fill:url(#SVGID_00000100378400172733213020000014375094215614159005_);}
	.st62{fill:url(#SVGID_00000025428898668488042440000008517265168984127668_);}
	.st63{fill:url(#SVGID_00000160882461549130804750000007223226353288828033_);}
	.st64{fill:url(#SVGID_00000007429356289891976560000017802936764696363395_);}
	.st65{fill:url(#SVGID_00000019635814833783497180000004829308657485585795_);}
	.st66{fill:url(#SVGID_00000026161448459895948830000015954876241419861149_);}
	.st67{fill:url(#SVGID_00000123420259112651920760000014834486045188767622_);}
	.st68{fill:url(#SVGID_00000166663413165931660660000016371630193557952644_);}
	.st69{fill:url(#SVGID_00000030472049103929274680000016762596064192836768_);}
	.st70{fill:url(#SVGID_00000040539930598964598950000006639755819145912463_);}
	.st71{fill:url(#SVGID_00000145750620162600031550000006159764829595125425_);}
	.st72{fill:url(#SVGID_00000013910009968579250540000007804071063524348857_);}
	.st73{fill:url(#SVGID_00000181085913088614925620000000652629914199864980_);}
	.st74{fill:url(#SVGID_00000034776093766309319900000002431825001256271289_);}
	.st75{fill:url(#SVGID_00000081634530123785267760000014466292642200879284_);}
	.st76{fill:url(#SVGID_00000000913423116948159990000018228200192010605499_);}
	.st77{fill:url(#SVGID_00000160192033320361072610000004086210887337026976_);}
	.st78{fill:url(#SVGID_00000016053726209929190790000012879914524006908850_);}
	.st79{fill:url(#SVGID_00000080180820172435581680000000444869253525304249_);}
	.st80{fill:url(#SVGID_00000034063306186345202130000000102829535112254343_);}
	.st81{fill:url(#SVGID_00000069382193609089900440000009219151109625918615_);}
	.st82{fill:url(#SVGID_00000036249535722453536720000005724481252606599350_);}
	.st83{fill:url(#SVGID_00000028322012367109173370000005753940318228938390_);}
	.st84{fill:url(#SVGID_00000029042272660885750440000012398021732360209540_);}
	.st85{fill:url(#SVGID_00000145770910983084007420000003625649599178080907_);}
	.st86{fill:url(#SVGID_00000055682250902644401900000000646034805199126447_);}
	.st87{fill:url(#SVGID_00000147221935578632275950000012137831408748501388_);}
	.st88{fill:url(#SVGID_00000159443636236670194870000005458244026800362416_);}
	.st89{fill:url(#SVGID_00000080175301747169795060000000862800578055403916_);}
	.st90{fill:url(#SVGID_00000142151116398334100570000004702586853456773526_);}
	.st91{fill:url(#SVGID_00000070096540966747391730000007159061087332197016_);}
	.st92{fill:url(#SVGID_00000097473288306803284410000013353566362272814512_);}
	.st93{fill:url(#SVGID_00000128483575117622007820000004967022148781700486_);}
	.st94{fill:url(#SVGID_00000001659879597055627230000007721074991897066624_);}
	.st95{fill:url(#SVGID_00000097475481391208256640000003182358364680988594_);}
	.st96{fill:url(#SVGID_00000010294958888235208340000015910675793298031232_);}
	.st97{fill:url(#SVGID_00000102503108364317715330000017430679948717634231_);}
	.st98{fill:url(#SVGID_00000132058251786543995630000006894871777016447886_);}
</style>
<g id="Background" class="st0">
	<g class="st1">
		<g>
			<rect class="st2" width="3710" height="3710"/>
		</g>
	</g>
</g>
<g id="Illustration">
	<g>
		<linearGradient id="SVGID_1_" gradientUnits="userSpaceOnUse" x1="3850.6257" y1="3628.6753" x2="1292.6348" y2="1390.4351">
			<stop  offset="0" style="stop-color:#B37CFF"/>
			<stop  offset="1" style="stop-color:#F895E7"/>
		</linearGradient>
		<path class="st3" d="M3415.9,2466.26c-330.6,778.42-1211.23,1214.49-1974.91,1096.87c-124.27-19.14-464.95-76.16-766.57-345.15
			C93.77,2700.16-30.41,1674.8,437.98,952.21C778.89,426.29,1390,128.16,1970.68,143.08c125.08,3.21,604.43,23.01,1025.69,370.37
			c61.88,51.02,198.35,172.26,321.34,364.6C3606.53,1329.7,3631.35,1958.95,3415.9,2466.26z"/>
		<g>
			<g>
				
					<linearGradient id="SVGID_00000011006217411826838340000007878941167813416837_" gradientUnits="userSpaceOnUse" x1="-562.3816" y1="1325.3447" x2="-2083.0178" y2="3246.8777" gradientTransform="matrix(-0.8892 -0.4575 -0.4575 0.8892 463.5373 216.9764)">
					<stop  offset="0" style="stop-color:#CB236D"/>
					<stop  offset="1" style="stop-color:#4C246D"/>
				</linearGradient>
				<path style="fill:url(#SVGID_00000011006217411826838340000007878941167813416837_);" d="M264.68,1489.75
					c3.54-16.15,24.78-16.44,28.62-0.36c37.12,155.4,146.26,559.57,321.86,776.67c285.93,353.48,469.91,921.23,277.01,1208.9
					C892.18,3474.95-120.91,3249.85,264.68,1489.75z"/>
				<path class="st5" d="M288.67,1710.84c0.27,5.06,0.86,9.21,1.31,13.7l1.61,13.22l3.48,26.37c2.43,17.56,5.11,35.07,7.79,52.58
					c5.47,35,11.35,69.92,17.52,104.78c12.46,69.7,26.66,139.03,41.83,208.11c15.08,69.11,31.94,137.76,50.13,206
					c18.25,68.22,37.4,136.18,58.61,203.43c42.16,134.56,91.13,266.76,148.53,394.69c29.32,63.62,60.18,126.45,94.35,187.21
					c34.56,60.47,71.51,119.38,112.27,175.1c0.89,1.21,2.51,1.42,3.63,0.46c1.09-0.93,1.3-2.63,0.49-3.84l-0.02-0.03
					c-38.59-57.19-74.26-116.52-107.17-177.62c-33.07-61.01-62.84-124.04-91.04-187.82c-28.18-63.81-53.98-128.84-78.41-194.45
					c-24.41-65.64-46.3-132.34-67.83-199.16c-42.55-133.87-78.48-270.14-110.92-407.34c-16.09-68.65-30.9-137.65-44.57-206.93
					c-6.89-34.63-13.48-69.32-19.68-104.1l-8.92-52.24l-4.21-26.16l-1.97-13.09c-0.58-4.3-1.27-8.91-1.64-12.69l-0.06-0.63
					c-0.15-1.52-1.41-2.63-2.81-2.47C289.6,1708.07,288.6,1709.37,288.67,1710.84z"/>
			</g>
			<g>
				
					<linearGradient id="SVGID_00000121270147806448893760000017982162813494934941_" gradientUnits="userSpaceOnUse" x1="-2414.3772" y1="3.2134" x2="-4037.7847" y2="2054.6121" gradientTransform="matrix(-0.8844 -0.4666 -0.4666 0.8844 -1521.8835 125.5535)">
					<stop  offset="0" style="stop-color:#A737D5"/>
					<stop  offset="1" style="stop-color:#EF497A"/>
				</linearGradient>
				<path style="fill:url(#SVGID_00000121270147806448893760000017982162813494934941_);" d="M519.93,1079.01
					c3.87-17.21,26.12-17.26,29.98-0.05c37.33,166.43,147.62,599.45,329.4,833.42c295.98,380.97,483.03,989.6,278.11,1294.58
					C1157.42,3206.97,98.51,2954.47,519.93,1079.01z"/>
				<path class="st5" d="M542.81,1315.45c0.23,5.42,0.8,9.85,1.23,14.66l1.55,14.14l3.37,28.21c2.37,18.78,4.99,37.52,7.62,56.26
					c5.38,37.45,11.18,74.82,17.29,112.14c12.35,74.6,26.53,148.83,41.71,222.8c15.09,74,32.07,147.54,50.45,220.65
					c18.44,73.09,37.82,145.92,59.36,218c42.82,144.24,92.81,286.04,151.66,423.37c30.08,68.31,61.8,135.78,97,201.08
					c35.61,64.99,73.75,128.35,115.9,188.35c0.93,1.33,2.67,1.57,3.87,0.54c1.17-1,1.41-2.85,0.56-4.17l-0.02-0.03
					c-39.82-61.56-76.59-125.36-110.44-191.02c-34.02-65.56-64.56-133.24-93.46-201.7c-28.87-68.5-55.25-138.26-80.18-208.63
					c-24.91-70.4-47.16-141.91-69.06-213.53c-43.25-143.49-79.51-289.47-112.15-436.4c-16.17-73.51-31.01-147.4-44.65-221.55
					c-6.88-37.06-13.45-74.2-19.6-111.43l-8.83-55.9l-4.15-27.99l-1.94-14c-0.57-4.6-1.25-9.53-1.59-13.57l-0.06-0.68
					c-0.14-1.66-1.48-2.88-2.98-2.72C543.83,1312.46,542.75,1313.86,542.81,1315.45z"/>
			</g>
		</g>
		<g>
			
				<linearGradient id="SVGID_00000093883362020491742130000001982637735054077117_" gradientUnits="userSpaceOnUse" x1="1830.9121" y1="3346.2124" x2="1662.1921" y2="-1647.9833">
				<stop  offset="0" style="stop-color:#2B3582"/>
				<stop  offset="1" style="stop-color:#150E42"/>
			</linearGradient>
			<path style="fill:url(#SVGID_00000093883362020491742130000001982637735054077117_);" d="M643.89,715.09
				c0-119.14,96.58-215.72,215.72-215.72h1834.47c101.21,0,184.66,79.31,189.8,180.39L3019.3,3339.4
				c4.03,79.1-58.24,145.81-137.42,147.25l-2102.54,38.21c-74.4,1.35-135.45-58.59-135.45-133.01V715.09z"/>
			
				<linearGradient id="SVGID_00000092438797014158617090000018203854746126474661_" gradientUnits="userSpaceOnUse" x1="239.9643" y1="2891.7756" x2="2152.1626" y2="4106.5859">
				<stop  offset="0" style="stop-color:#A737D5"/>
				<stop  offset="1" style="stop-color:#EF497A"/>
			</linearGradient>
			<path style="fill:url(#SVGID_00000092438797014158617090000018203854746126474661_);" d="M1086.63,3479.65c-0.02,0-0.04,0-0.07,0
				l-235.26-3.04c-78.67-1.02-142.67-65.85-142.67-144.52v-355.2c0-2.78,2.25-5.02,5.02-5.02c2.77,0,5.02,2.25,5.02,5.02v355.2
				c0,73.2,59.55,133.53,132.75,134.48l235.26,3.04c2.77,0.03,4.99,2.31,4.96,5.09C1091.62,3477.44,1089.38,3479.65,1086.63,3479.65
				z"/>
			
				<linearGradient id="SVGID_00000134241683394576303330000015815955431519120570_" gradientUnits="userSpaceOnUse" x1="400.4693" y1="2639.1284" x2="2312.6667" y2="3853.9385">
				<stop  offset="0" style="stop-color:#A737D5"/>
				<stop  offset="1" style="stop-color:#EF497A"/>
			</linearGradient>
			<path style="fill:url(#SVGID_00000134241683394576303330000015815955431519120570_);" d="M713.66,2871.88
				c-2.77,0-5.02-2.25-5.02-5.02v-57.52c0-2.78,2.25-5.02,5.02-5.02c2.77,0,5.02,2.25,5.02,5.02v57.52
				C718.69,2869.64,716.44,2871.88,713.66,2871.88z"/>
			<g>
				
					<linearGradient id="SVGID_00000150803487545206426920000006283091615617758087_" gradientUnits="userSpaceOnUse" x1="2877.2361" y1="429.486" x2="462.4191" y2="3905.0784">
					<stop  offset="0" style="stop-color:#53D8FF"/>
					<stop  offset="1" style="stop-color:#3840F7"/>
				</linearGradient>
				<path style="fill:url(#SVGID_00000150803487545206426920000006283091615617758087_);" d="M794.18,540.31
					c-0.22-38.12,33.3-67.62,71.07-62.5c250.51,33.97,1111.96,139.04,1824.2,84.37c32.48-2.49,60.67,22.12,62.4,54.65l141.98,2671.5
					c1.95,36.63-26.02,67.95-62.64,70.12c-299.55,17.73-1533.21,86.26-1973.24,40.17c-26.78-2.81-47.11-25.35-47.27-52.28
					L794.18,540.31z"/>
				<path class="st11" d="M823.69,607.25c-0.22-36.68,32.04-65.07,68.39-60.14c241.08,32.69,1070.09,133.81,1755.51,81.19
					c31.26-2.4,58.38,21.28,60.05,52.59l136.64,2570.9c1.87,35.25-25.04,65.4-60.28,67.48
					c-288.27,17.06-1475.48,83.01-1898.93,38.65c-25.77-2.7-45.34-24.4-45.49-50.31L823.69,607.25z"/>
				<path class="st12" d="M1046.87,805.47l25.6,551.18c0.85,18.33,15.66,32.91,34.01,33.43c102.08,2.88,420.16,10.64,599.76,1.27
					c20.32-1.06,36.39-17.49,37.06-37.83c3.42-103.37,10.92-404.22-12.64-529.99c-3.81-20.32-21.27-35.2-41.92-35.92l-603.35-21.1
					C1063.63,765.74,1045.86,783.72,1046.87,805.47z"/>
				<g class="st13">
					<path class="st2" d="M2558.42,853.45c10.69,0,19.2-8.32,18.9-18.49c-0.3-10.17-9.29-18.65-19.98-18.84l-665.73-11.86
						c-10.69-0.19-16.53,7.91-12.98,17.99l4.53,12.86c3.55,10.09,15.21,18.34,25.9,18.34H2558.42z"/>
				</g>
				<g class="st13">
					<path class="st2" d="M1891.61,975.97c-10.69-0.19-16.53,7.91-12.98,17.99l4.53,12.86c3.55,10.09,15.21,18.34,25.9,18.34h649.36
						c10.69,0,19.2-8.32,18.9-18.49c-0.3-10.17-9.29-18.65-19.98-18.84L1891.61,975.97z"/>
				</g>
				<g class="st13">
					<path class="st2" d="M1891.61,1164.01c-10.69-0.19-16.53,7.91-12.98,17.99l4.53,12.86c3.55,10.09,15.21,18.34,25.9,18.34
						h649.36c10.69,0,19.2-8.32,18.9-18.49c-0.3-10.17-9.29-18.65-19.98-18.84L1891.61,1164.01z"/>
				</g>
				<g class="st13">
					<path class="st2" d="M2622.68,1563.17c10.69,0,18.89-8.32,18.22-18.49c-0.67-10.17-9.97-18.56-20.66-18.64l-1554.11-12.25
						c-10.69-0.08-13.99,6.69-7.33,15.06l15.22,19.12c6.66,8.36,20.86,15.21,31.55,15.21H2622.68z"/>
				</g>
				<g>
					<path class="st2" d="M1227.95,2278.48c-0.12,0-0.24,0-0.36,0l-130.82-1.26c-18.69-0.18-34.12-13.04-35.89-29.91l-11.5-109.76
						c-0.67-6.44,1.33-12.81,5.63-17.94c4.82-5.73,12.12-9.33,20.02-9.88l0,0c11.02-0.75,26.54-2.07,42.97-3.47
						c34.6-2.95,77.66-6.61,101.89-6.92c17.58-0.09,32.49,10.31,36.63,25.62c6.82,25.2,6.22,72.89,4.92,123.7
						C1261.03,2265.17,1246.04,2278.48,1227.95,2278.48z M1075.73,2119.76c-5.19,0.35-9.94,2.66-13.01,6.32
						c-2.54,3.02-3.72,6.72-3.33,10.42l11.5,109.76c1.24,11.79,12.41,20.78,26,20.91l130.82,1.26c0.09,0,0.17,0,0.26,0
						c12.68,0,23.17-8.93,23.46-20.02c1.28-50.04,1.89-96.93-4.58-120.83c-2.9-10.71-14.04-18.16-26.81-18.2
						c-23.87,0.3-66.73,3.95-101.16,6.88C1102.39,2117.68,1086.83,2119,1075.73,2119.76L1075.73,2119.76z"/>
					<path class="st11" d="M1089.8,2131.09c27.48-1.88,87.21-7.94,115.54-8.3c12-0.15,22.53,7.1,25.35,17.51
						c5.47,20.22,4.74,60.51,3.79,97.7c-0.28,11.14-10.51,20.03-23.01,19.91l-104.54-1c-12.86-0.12-23.53-8.89-24.73-20.31
						l-9.19-87.71C1072.07,2139.82,1079.61,2131.78,1089.8,2131.09z"/>
					<g class="st13">
						<path class="st2" d="M1342.85,2205.59c3.79,14.36,16.83,24.32,31.69,24.2l1210.39-10.32c13.69-0.12,24.65-11.41,24.35-25.1
							c-0.29-13.31-11.13-23.96-24.44-24.02l-1210.42-5.52C1353.04,2164.73,1337.41,2184.93,1342.85,2205.59z"/>
					</g>
					<path class="st2" d="M1219.4,1991.15c-0.12,0-0.24,0-0.36,0l-130.82-1.26c-18.69-0.18-34.12-13.04-35.89-29.91l-11.5-109.76
						c-0.67-6.45,1.33-12.81,5.63-17.94c4.82-5.73,12.12-9.33,20.02-9.88l0,0c11.02-0.75,26.54-2.07,42.97-3.47
						c34.6-2.95,77.66-6.61,101.89-6.92c17.58-0.09,32.49,10.31,36.63,25.62c6.82,25.2,6.22,72.89,4.92,123.7
						C1252.48,1977.84,1237.48,1991.15,1219.4,1991.15z M1067.17,1832.43c-5.19,0.35-9.94,2.66-13.01,6.32
						c-2.54,3.02-3.72,6.72-3.33,10.42l11.5,109.76c1.24,11.79,12.41,20.78,26,20.91l130.82,1.26c0.09,0,0.17,0,0.26,0
						c12.68,0,23.17-8.93,23.46-20.02c1.28-50.04,1.89-96.93-4.58-120.83c-2.9-10.71-14.04-18.16-26.81-18.2
						c-23.87,0.3-66.73,3.95-101.16,6.88C1093.83,1830.34,1078.27,1831.67,1067.17,1832.43L1067.17,1832.43z"/>
					<path class="st11" d="M1081.24,1843.76c27.48-1.88,87.21-7.94,115.54-8.3c12-0.15,22.53,7.1,25.35,17.51
						c5.47,20.22,4.74,60.51,3.79,97.7c-0.28,11.14-10.51,20.03-23.01,19.91l-104.54-1c-12.86-0.12-23.53-8.89-24.73-20.31
						l-9.19-87.71C1063.51,1852.49,1071.06,1844.45,1081.24,1843.76z"/>
					<g class="st13">
						<path class="st2" d="M1334.3,1918.26c3.79,14.36,16.83,24.32,31.68,24.2l1210.39-10.32c13.69-0.12,24.65-11.41,24.35-25.1
							c-0.29-13.31-11.13-23.96-24.44-24.02l-1210.42-5.52C1344.49,1877.4,1328.85,1897.6,1334.3,1918.26z"/>
					</g>
					<path class="st2" d="M1227.95,2558.85c-0.12,0-0.24,0-0.36,0l-130.82-1.26c-18.69-0.18-34.12-13.04-35.89-29.91l-11.5-109.76
						c-0.67-6.44,1.33-12.81,5.63-17.94c4.82-5.73,12.12-9.33,20.02-9.88l0,0c11.02-0.75,26.54-2.07,42.97-3.47
						c34.6-2.95,77.66-6.61,101.89-6.92c0.18,0,0.35,0,0.53,0c17.2,0,32,10.48,36.1,25.63c6.82,25.2,6.22,72.89,4.92,123.7
						C1261.03,2545.55,1246.04,2558.85,1227.95,2558.85z M1075.73,2400.14c-5.19,0.35-9.94,2.66-13.01,6.32
						c-2.54,3.02-3.72,6.72-3.33,10.42l11.5,109.76c1.24,11.79,12.41,20.78,26,20.91l130.82,1.26c0.09,0,0.17,0,0.26,0
						c12.68,0,23.17-8.93,23.46-20.02c1.28-50.04,1.89-96.93-4.58-120.83c-2.9-10.7-14.2-18.4-26.81-18.2
						c-23.86,0.3-66.72,3.95-101.16,6.88C1102.39,2398.05,1086.83,2399.38,1075.73,2400.14L1075.73,2400.14z"/>
					<path class="st11" d="M1089.8,2411.46c27.48-1.88,87.21-7.94,115.54-8.3c12-0.15,22.53,7.1,25.35,17.51
						c5.47,20.22,4.74,60.51,3.79,97.7c-0.28,11.14-10.51,20.03-23.01,19.91l-104.54-1c-12.86-0.12-23.53-8.89-24.73-20.31
						l-9.19-87.71C1072.07,2420.2,1079.61,2412.16,1089.8,2411.46z"/>
					<g class="st13">
						<path class="st2" d="M1342.85,2485.97c3.79,14.36,16.83,24.32,31.69,24.2l1210.39-10.32c13.69-0.12,24.65-11.41,24.35-25.1
							c-0.29-13.31-11.13-23.96-24.44-24.02l-1210.42-5.52C1353.04,2445.11,1337.41,2465.31,1342.85,2485.97z"/>
					</g>
					<path class="st2" d="M1227.95,2839.23c-0.12,0-0.24,0-0.36,0l-130.82-1.26c-18.69-0.18-34.12-13.03-35.89-29.91l-11.5-109.76
						c-0.67-6.45,1.33-12.82,5.64-17.94c4.82-5.73,12.11-9.33,20.01-9.88l0,0c11.02-0.75,26.54-2.07,42.97-3.47
						c34.6-2.95,77.66-6.61,101.89-6.92c0.18,0,0.35-0.01,0.53-0.01c17.2,0,32,10.48,36.1,25.63c6.82,25.2,6.22,72.89,4.92,123.7
						C1261.03,2825.93,1246.04,2839.23,1227.95,2839.23z M1075.73,2680.51c-5.19,0.35-9.94,2.66-13.01,6.32
						c-2.54,3.02-3.72,6.72-3.33,10.43l11.5,109.76c1.24,11.79,12.41,20.78,25.99,20.91l130.82,1.26c0.09,0,0.17,0,0.26,0
						c12.68,0,23.17-8.93,23.46-20.02c1.28-50.04,1.89-96.93-4.58-120.83c-2.9-10.7-14.2-18.44-26.81-18.2
						c-23.86,0.3-66.72,3.95-101.16,6.88C1102.39,2678.43,1086.83,2679.75,1075.73,2680.51L1075.73,2680.51z"/>
					<path class="st11" d="M1089.8,2691.84c27.48-1.88,87.21-7.94,115.54-8.3c12-0.15,22.53,7.1,25.35,17.51
						c5.47,20.22,4.74,60.51,3.79,97.7c-0.28,11.14-10.51,20.03-23.01,19.91l-104.54-1c-12.86-0.12-23.53-8.89-24.73-20.31
						l-9.19-87.71C1072.07,2700.57,1079.61,2692.54,1089.8,2691.84z"/>
					<g class="st13">
						<path class="st2" d="M1342.85,2766.35c3.79,14.36,16.83,24.32,31.69,24.2l1210.39-10.32c13.69-0.12,24.65-11.41,24.35-25.1
							c-0.29-13.31-11.13-23.96-24.44-24.02l-1210.42-5.52C1353.04,2725.49,1337.41,2745.69,1342.85,2766.35z"/>
					</g>
					<g class="st13">
						<path class="st2" d="M1850.6,3056.67L1850.6,3056.67c2.43,14.36,10.82,24.32,20.36,24.2l777.91-10.32
							c8.8-0.12,15.84-11.41,15.65-25.1c-0.19-13.31-7.15-23.96-15.71-24.02l-777.93-5.52
							C1857.15,3015.81,1847.1,3036.01,1850.6,3056.67z"/>
					</g>
				</g>
			</g>
			
				<linearGradient id="SVGID_00000057122011811351640540000006207786675727007393_" gradientUnits="userSpaceOnUse" x1="2095.2932" y1="-137.0836" x2="1251.5012" y2="972.905">
				<stop  offset="0" style="stop-color:#2B3582"/>
				<stop  offset="1" style="stop-color:#150E42"/>
			</linearGradient>
			<path style="fill:url(#SVGID_00000057122011811351640540000006207786675727007393_);" d="M1890.62,136.74
				c-66.26-46.1-123.88-45.19-164.44-33.22c-37,10.92-60.98,46.64-57.46,85.05l17.49,190.92l208.14,18.47
				C1894.36,397.97,2020.58,227.15,1890.62,136.74z M1799.09,290.77c-28.66,0-51.9-23.24-51.9-51.9s23.24-51.9,51.9-51.9
				c28.66,0,51.9,23.24,51.9,51.9S1827.75,290.77,1799.09,290.77z"/>
			<path class="st2" d="M1707.01,299.19c-2.57,0-4.76-1.96-5-4.57l-2.79-30.41c-0.25-2.76,1.78-5.2,4.54-5.46
				c2.82-0.26,5.21,1.78,5.46,4.55l2.79,30.4c0.26,2.76-1.78,5.2-4.54,5.46C1707.31,299.18,1707.16,299.19,1707.01,299.19z
				 M1701.55,239.61c-2.57,0-4.76-1.96-5-4.57l-2.12-23.08c-3.35-36.6,19.67-70.67,54.75-81.02c24.84-7.33,50.44-8.38,76.07-3.12
				c2.72,0.55,4.47,3.21,3.91,5.93c-0.56,2.71-3.19,4.45-5.93,3.91c-24.01-4.91-47.97-3.94-71.21,2.92
				c-30.49,9-50.51,38.64-47.59,70.48l2.12,23.08c0.26,2.76-1.78,5.2-4.54,5.46C1701.85,239.6,1701.7,239.61,1701.55,239.61z"/>
			
				<linearGradient id="SVGID_00000023269502905320661590000005680485275153541517_" gradientUnits="userSpaceOnUse" x1="2187.8508" y1="-66.7254" x2="1344.058" y2="1043.2642">
				<stop  offset="0" style="stop-color:#2B3582"/>
				<stop  offset="1" style="stop-color:#150E42"/>
			</linearGradient>
			<path style="fill:url(#SVGID_00000023269502905320661590000005680485275153541517_);" d="M1402.14,502.88V406.9
				c0-33.14,27.46-59.67,60.58-58.54l661.8,22.67c29.37,1.01,53.16,24.19,54.91,53.52l5.53,92.23L1402.14,502.88z"/>
			<path class="st2" d="M1648.9,384.52h-28.46c-2.77,0-5.02-2.25-5.02-5.02c0-2.78,2.25-5.02,5.02-5.02h28.46
				c2.77,0,5.02,2.25,5.02,5.02C1653.93,382.28,1651.68,384.52,1648.9,384.52z"/>
			<path class="st2" d="M1437.96,472.74c-2.77,0-5.02-2.25-5.02-5.02v-38.83c0-30,24.41-54.41,54.41-54.41h104.64
				c2.77,0,5.02,2.25,5.02,5.02c0,2.78-2.25,5.02-5.02,5.02h-104.64c-24.46,0-44.37,19.9-44.37,44.36v38.83
				C1442.98,470.5,1440.73,472.74,1437.96,472.74z"/>
			
				<linearGradient id="SVGID_00000091017427637740419940000013278460942052765063_" gradientUnits="userSpaceOnUse" x1="2081.5183" y1="1.1713" x2="1498.8975" y2="1070.9816">
				<stop  offset="0" style="stop-color:#53D8FF"/>
				<stop  offset="1" style="stop-color:#3840F7"/>
			</linearGradient>
			<path style="fill:url(#SVGID_00000091017427637740419940000013278460942052765063_);" d="M1132.48,527.12
				c1.6-33.24,29.01-59.37,62.29-59.37l1157.29-0.03c41.61,0,77.19,29.94,84.29,70.95l0.98,5.66c7.77,44.91-26.8,85.99-72.38,85.99
				H1177.63c-27.28,0-49.02-22.81-47.71-50.05L1132.48,527.12z"/>
			
				<linearGradient id="SVGID_00000133514854907662726410000011280117791292003759_" gradientUnits="userSpaceOnUse" x1="1918.3159" y1="2874.3972" x2="2669.7126" y2="2874.3972">
				<stop  offset="0" style="stop-color:#2B3582"/>
				<stop  offset="1" style="stop-color:#150E42"/>
			</linearGradient>
			<path style="fill:url(#SVGID_00000133514854907662726410000011280117791292003759_);" d="M2113.08,3259.86
				c-12.68,0-25.49-6.1-39.12-18.62c-53.17-48.84-65.59-125.15-68.7-196.67c-25.54,28.77-51.77,56.72-77.69,84.34l-9.27-8.7
				c28.86-30.76,58.12-61.93,86.33-94.16c-2.38-96.17,2.04-193.39,13.11-288.96c6.75-58.23,16.46-119.84,41.65-175.94
				c7.94-17.68,21.09-43.01,43.57-58.73c23.11-16.15,53.33-17.97,73.48-4.44c22.76,15.3,28.95,44.7,31.62,65.49
				c16.03,124.66-32.67,239.02-76.34,313c-32.67,55.34-72.29,106.01-114.26,154.21c2.11,72.61,12,152.45,65.08,201.2
				c11.55,10.61,21.85,15.65,31.49,15.25c15.93-0.57,28.38-15.41,38.45-29.84c44.19-63.29,78.55-131.93,102.55-204.73
				c2.74-21.59,8.76-42.77,17.94-62.53l11.94,4.18c-5.02,20.68-10.84,41.08-17.43,61.17c-2.52,20.91-1.77,42.23,2.37,62.91
				c2.25,11.23,11.77,48.3,39.83,53.65c21.11,4.01,41.95-10.8,65.55-46.67l83.64-127.14l-8.04,34.63
				c-4.29,18.49-11.38,62.69,15.47,73.74c15.39,6.32,31.63-2.81,48.82-12.49c16.77-9.44,34.09-19.18,53.33-16.65l6.55,0.87
				l-1.12,6.51c-4.42,25.63-2.23,57.19,18.5,61.78c13.57,3.03,24.7-7.29,37.58-19.19c10.93-10.1,22.23-20.55,36.73-24.06l2.99,12.35
				c-11.29,2.73-21.36,12.04-31.09,21.04c-14.2,13.14-28.89,26.71-48.96,22.28c-27.31-6.04-33.14-38.5-29.34-69.22
				c-12.81,0.67-25.55,7.84-38.93,15.38c-19.07,10.74-38.79,21.84-59.9,13.17c-19.52-8.03-28.96-29.1-27.34-59.38l-48.28,73.38
				c-16.85,25.61-43.32,58.9-78.55,52.18c-24.19-4.61-42.85-28.4-49.91-63.63c-1.79-8.92-2.98-17.95-3.59-27.01
				c-23.2,60.22-53.61,117.39-90.9,170.79c-11.87,17-26.91,34.49-48.42,35.27C2114.04,3259.85,2113.56,3259.86,2113.08,3259.86z
				 M2144.89,2501.57c-11.61,0-23.97,3.81-34.63,11.26c-19.9,13.92-31.94,37.21-39.26,53.52c-24.48,54.52-33.99,114.98-40.62,172.2
				c-10.47,90.34-14.95,182.17-13.33,273.17c38.14-44.54,73.94-91.23,103.74-141.72c42.66-72.27,90.25-183.83,74.68-304.92
				c-3.75-29.14-12.04-47.11-26.11-56.56C2162.43,2503.86,2153.89,2501.57,2144.89,2501.57z"/>
		</g>
		<g>
			
				<linearGradient id="SVGID_00000120533003793082904850000016318502806482540956_" gradientUnits="userSpaceOnUse" x1="2840.8159" y1="433.8138" x2="2715.2859" y2="1669.5898">
				<stop  offset="0" style="stop-color:#A737D5"/>
				<stop  offset="1" style="stop-color:#EF497A"/>
			</linearGradient>
			<path style="fill:url(#SVGID_00000120533003793082904850000016318502806482540956_);" d="M3256.23,1147.52h-894.18
				c-9.25,0-16.76-7.5-16.76-16.76V359.69h927.69v771.08C3272.99,1140.02,3265.48,1147.52,3256.23,1147.52z"/>
			
				<linearGradient id="SVGID_00000168118277815665127060000003935225847292165254_" gradientUnits="userSpaceOnUse" x1="2345.2922" y1="703.8578" x2="3272.9863" y2="703.8578">
				<stop  offset="0" style="stop-color:#B37CFF"/>
				<stop  offset="1" style="stop-color:#F895E7"/>
			</linearGradient>
			<path style="fill:url(#SVGID_00000168118277815665127060000003935225847292165254_);" d="M3256.23,1050.14h-894.18
				c-9.25,0-16.76-7.5-16.76-16.76v-675.8h927.69v675.8C3272.99,1042.63,3265.48,1050.14,3256.23,1050.14z"/>
			<g>
				
					<linearGradient id="SVGID_00000117664408624722751060000010066773015939065993_" gradientUnits="userSpaceOnUse" x1="2399.9487" y1="448.0254" x2="2548.3252" y2="115.2181">
					<stop  offset="0" style="stop-color:#A737D5"/>
					<stop  offset="1" style="stop-color:#EF497A"/>
				</linearGradient>
				
					<rect x="2398.7" y="387.86" style="fill:url(#SVGID_00000117664408624722751060000010066773015939065993_);" width="31.94" height="54.3"/>
				
					<linearGradient id="SVGID_00000062909309475550619020000003047355990366506162_" gradientUnits="userSpaceOnUse" x1="2459.896" y1="474.752" x2="2608.2727" y2="141.9447">
					<stop  offset="0" style="stop-color:#A737D5"/>
					<stop  offset="1" style="stop-color:#EF497A"/>
				</linearGradient>
				
					<rect x="2470.56" y="387.86" style="fill:url(#SVGID_00000062909309475550619020000003047355990366506162_);" width="31.94" height="54.3"/>
				
					<linearGradient id="SVGID_00000026881313697534795450000008923197620249224361_" gradientUnits="userSpaceOnUse" x1="2512.8496" y1="498.3605" x2="2661.2263" y2="165.5531">
					<stop  offset="0" style="stop-color:#A737D5"/>
					<stop  offset="1" style="stop-color:#EF497A"/>
				</linearGradient>
				
					<rect x="2534.04" y="387.86" style="fill:url(#SVGID_00000026881313697534795450000008923197620249224361_);" width="31.94" height="54.3"/>
				
					<linearGradient id="SVGID_00000122001763987125578830000013757827352854886044_" gradientUnits="userSpaceOnUse" x1="2572.7971" y1="525.0869" x2="2721.1736" y2="192.2795">
					<stop  offset="0" style="stop-color:#A737D5"/>
					<stop  offset="1" style="stop-color:#EF497A"/>
				</linearGradient>
				
					<rect x="2605.9" y="387.86" style="fill:url(#SVGID_00000122001763987125578830000013757827352854886044_);" width="31.94" height="54.3"/>
				
					<linearGradient id="SVGID_00000178182407024611642300000003897869006488428440_" gradientUnits="userSpaceOnUse" x1="2625.7505" y1="548.6955" x2="2774.1272" y2="215.8881">
					<stop  offset="0" style="stop-color:#A737D5"/>
					<stop  offset="1" style="stop-color:#EF497A"/>
				</linearGradient>
				
					<rect x="2669.38" y="387.86" style="fill:url(#SVGID_00000178182407024611642300000003897869006488428440_);" width="31.94" height="54.3"/>
				
					<linearGradient id="SVGID_00000091708331371038245010000010549883652009743514_" gradientUnits="userSpaceOnUse" x1="2685.698" y1="575.4223" x2="2834.0745" y2="242.6149">
					<stop  offset="0" style="stop-color:#A737D5"/>
					<stop  offset="1" style="stop-color:#EF497A"/>
				</linearGradient>
				
					<rect x="2741.25" y="387.86" style="fill:url(#SVGID_00000091708331371038245010000010549883652009743514_);" width="31.94" height="54.3"/>
				
					<linearGradient id="SVGID_00000026158666505475865840000011840499640806378174_" gradientUnits="userSpaceOnUse" x1="2738.6516" y1="599.0303" x2="2887.0281" y2="266.223">
					<stop  offset="0" style="stop-color:#A737D5"/>
					<stop  offset="1" style="stop-color:#EF497A"/>
				</linearGradient>
				
					<rect x="2804.72" y="387.86" style="fill:url(#SVGID_00000026158666505475865840000011840499640806378174_);" width="31.94" height="54.3"/>
				
					<linearGradient id="SVGID_00000042733859283773177730000006269111944106067609_" gradientUnits="userSpaceOnUse" x1="2798.5989" y1="625.7572" x2="2946.9756" y2="292.9498">
					<stop  offset="0" style="stop-color:#A737D5"/>
					<stop  offset="1" style="stop-color:#EF497A"/>
				</linearGradient>
				
					<rect x="2876.59" y="387.86" style="fill:url(#SVGID_00000042733859283773177730000006269111944106067609_);" width="31.94" height="54.3"/>
				
					<linearGradient id="SVGID_00000036941336215810166410000011222969919919766926_" gradientUnits="userSpaceOnUse" x1="2851.5522" y1="649.3658" x2="2999.929" y2="316.5585">
					<stop  offset="0" style="stop-color:#A737D5"/>
					<stop  offset="1" style="stop-color:#EF497A"/>
				</linearGradient>
				
					<rect x="2940.07" y="387.86" style="fill:url(#SVGID_00000036941336215810166410000011222969919919766926_);" width="31.94" height="54.3"/>
				
					<linearGradient id="SVGID_00000040569691493526212240000001110821075411835785_" gradientUnits="userSpaceOnUse" x1="2911.5" y1="676.092" x2="3059.8765" y2="343.2847">
					<stop  offset="0" style="stop-color:#A737D5"/>
					<stop  offset="1" style="stop-color:#EF497A"/>
				</linearGradient>
				
					<rect x="3011.93" y="387.86" style="fill:url(#SVGID_00000040569691493526212240000001110821075411835785_);" width="31.94" height="54.3"/>
				
					<linearGradient id="SVGID_00000012451257985084618610000014211156792471222400_" gradientUnits="userSpaceOnUse" x1="2964.4534" y1="699.7007" x2="3112.8298" y2="366.8934">
					<stop  offset="0" style="stop-color:#A737D5"/>
					<stop  offset="1" style="stop-color:#EF497A"/>
				</linearGradient>
				
					<rect x="3075.41" y="387.86" style="fill:url(#SVGID_00000012451257985084618610000014211156792471222400_);" width="31.94" height="54.3"/>
				
					<linearGradient id="SVGID_00000050664294406467692720000011081209272233618063_" gradientUnits="userSpaceOnUse" x1="3024.4009" y1="726.4269" x2="3172.7773" y2="393.6196">
					<stop  offset="0" style="stop-color:#A737D5"/>
					<stop  offset="1" style="stop-color:#EF497A"/>
				</linearGradient>
				
					<rect x="3147.27" y="387.86" style="fill:url(#SVGID_00000050664294406467692720000011081209272233618063_);" width="31.94" height="54.3"/>
			</g>
			<g>
				<g>
					<rect x="2758.17" y="470.25" class="st2" width="96.4" height="96.4"/>
					<rect x="2875.33" y="470.25" class="st2" width="96.4" height="96.4"/>
					<rect x="2991.3" y="470.25" class="st2" width="96.4" height="96.4"/>
					<rect x="3106.31" y="470.25" class="st2" width="96.4" height="96.4"/>
				</g>
				<g>
					<rect x="2410.15" y="591.47" class="st2" width="96.4" height="96.4"/>
					<rect x="2526.12" y="591.47" class="st2" width="96.4" height="96.4"/>
					<rect x="2641.13" y="591.47" class="st2" width="96.4" height="96.4"/>
					<rect x="2758.05" y="591.47" class="st2" width="96.4" height="96.4"/>
					<rect x="2875.21" y="591.47" class="st2" width="96.4" height="96.4"/>
					<rect x="2991.18" y="591.47" class="st2" width="96.4" height="96.4"/>
					<rect x="3106.19" y="591.47" class="st2" width="96.4" height="96.4"/>
				</g>
				<g>
					<rect x="2413.02" y="706.96" class="st2" width="96.4" height="96.4"/>
					<rect x="2528.98" y="706.96" class="st2" width="96.4" height="96.4"/>
					
						<linearGradient id="SVGID_00000036232347106576603410000016667288875576811139_" gradientUnits="userSpaceOnUse" x1="1514.433" y1="-114.8964" x2="2699.9814" y2="760.9135">
						<stop  offset="0" style="stop-color:#FDF53F"/>
						<stop  offset="0.6645" style="stop-color:#E57A58"/>
						<stop  offset="1" style="stop-color:#D93C65"/>
					</linearGradient>
					
						<rect x="2644" y="706.96" style="fill:url(#SVGID_00000036232347106576603410000016667288875576811139_);" width="96.4" height="96.4"/>
					<rect x="2760.92" y="706.96" class="st2" width="96.4" height="96.4"/>
					<rect x="2878.08" y="706.96" class="st2" width="96.4" height="96.4"/>
					<rect x="2994.04" y="706.96" class="st2" width="96.4" height="96.4"/>
					<rect x="3109.06" y="706.96" class="st2" width="96.4" height="96.4"/>
				</g>
				<g>
					<rect x="2415.88" y="821.02" class="st2" width="96.4" height="96.4"/>
					<rect x="2531.85" y="821.02" class="st2" width="96.4" height="96.4"/>
					<rect x="2646.86" y="821.02" class="st2" width="96.4" height="96.4"/>
					<rect x="2763.78" y="821.02" class="st2" width="96.4" height="96.4"/>
					<rect x="2880.94" y="821.02" class="st2" width="96.4" height="96.4"/>
					<rect x="2996.91" y="821.02" class="st2" width="96.4" height="96.4"/>
					<rect x="3111.92" y="821.02" class="st2" width="96.4" height="96.4"/>
				</g>
				<g>
					<rect x="2415.88" y="934.82" class="st2" width="96.4" height="96.4"/>
					<rect x="2531.85" y="934.82" class="st2" width="96.4" height="96.4"/>
					<rect x="2646.86" y="934.82" class="st2" width="96.4" height="96.4"/>
				</g>
			</g>
			<g>
				
					<linearGradient id="SVGID_00000183953429976503496380000017304269376951513253_" gradientUnits="userSpaceOnUse" x1="3388.7119" y1="294.6453" x2="1786.6251" y2="422.8116">
					<stop  offset="0" style="stop-color:#FDF53F"/>
					<stop  offset="0.6645" style="stop-color:#E57A58"/>
					<stop  offset="1" style="stop-color:#D93C65"/>
				</linearGradient>
				<path style="fill:url(#SVGID_00000183953429976503496380000017304269376951513253_);" d="M2461.76,344.64h-41.01
					c-9.44,0-17.17,7.72-17.17,17.17v38.15h12.4v-24.8c0-9.44,7.72-17.17,17.17-17.17h41.01c1.54,0,3.03,0.23,4.46,0.61
					C2477.1,350.68,2470.1,344.64,2461.76,344.64z"/>
				
					<linearGradient id="SVGID_00000137815594467244120790000013418392389367091586_" gradientUnits="userSpaceOnUse" x1="3389.219" y1="300.9781" x2="1787.1322" y2="429.1444">
					<stop  offset="0" style="stop-color:#FDF53F"/>
					<stop  offset="0.6645" style="stop-color:#E57A58"/>
					<stop  offset="1" style="stop-color:#D93C65"/>
				</linearGradient>
				<path style="fill:url(#SVGID_00000137815594467244120790000013418392389367091586_);" d="M2541.43,344.64h-41.01
					c-9.44,0-17.17,7.72-17.17,17.17v38.15h12.4v-24.8c0-9.44,7.72-17.17,17.17-17.17h41.01c1.54,0,3.03,0.23,4.46,0.61
					C2556.77,350.68,2549.77,344.64,2541.43,344.64z"/>
				
					<linearGradient id="SVGID_00000122693281752622052880000008642109479766113975_" gradientUnits="userSpaceOnUse" x1="3389.6377" y1="306.2418" x2="1787.5509" y2="434.4081">
					<stop  offset="0" style="stop-color:#FDF53F"/>
					<stop  offset="0.6645" style="stop-color:#E57A58"/>
					<stop  offset="1" style="stop-color:#D93C65"/>
				</linearGradient>
				<path style="fill:url(#SVGID_00000122693281752622052880000008642109479766113975_);" d="M2607.64,344.64h-41.01
					c-9.44,0-17.17,7.72-17.17,17.17v38.15h12.4v-24.8c0-9.44,7.72-17.17,17.17-17.17h41.01c1.54,0,3.03,0.23,4.46,0.61
					C2622.98,350.68,2615.99,344.64,2607.64,344.64z"/>
				
					<linearGradient id="SVGID_00000106828730333441124120000005595930281702925213_" gradientUnits="userSpaceOnUse" x1="3390.073" y1="311.6641" x2="1787.9836" y2="439.8306">
					<stop  offset="0" style="stop-color:#FDF53F"/>
					<stop  offset="0.6645" style="stop-color:#E57A58"/>
					<stop  offset="1" style="stop-color:#D93C65"/>
				</linearGradient>
				<path style="fill:url(#SVGID_00000106828730333441124120000005595930281702925213_);" d="M2675.85,344.64h-41.01
					c-9.44,0-17.17,7.72-17.17,17.17v38.15h12.4v-24.8c0-9.44,7.72-17.17,17.17-17.17h41.01c1.54,0,3.03,0.23,4.46,0.61
					C2691.2,350.68,2684.2,344.64,2675.85,344.64z"/>
				
					<linearGradient id="SVGID_00000140696453159525435110000012292209798093150378_" gradientUnits="userSpaceOnUse" x1="3390.4727" y1="316.6769" x2="1788.3859" y2="444.8433">
					<stop  offset="0" style="stop-color:#FDF53F"/>
					<stop  offset="0.6645" style="stop-color:#E57A58"/>
					<stop  offset="1" style="stop-color:#D93C65"/>
				</linearGradient>
				<path style="fill:url(#SVGID_00000140696453159525435110000012292209798093150378_);" d="M2738.92,344.64h-41.01
					c-9.44,0-17.17,7.72-17.17,17.17v38.15h12.4v-24.8c0-9.44,7.72-17.17,17.17-17.17h41.01c1.54,0,3.03,0.23,4.46,0.61
					C2754.26,350.68,2747.26,344.64,2738.92,344.64z"/>
				
					<linearGradient id="SVGID_00000154427986873196318620000008856929434696441728_" gradientUnits="userSpaceOnUse" x1="3390.9077" y1="322.0992" x2="1788.8184" y2="450.2658">
					<stop  offset="0" style="stop-color:#FDF53F"/>
					<stop  offset="0.6645" style="stop-color:#E57A58"/>
					<stop  offset="1" style="stop-color:#D93C65"/>
				</linearGradient>
				<path style="fill:url(#SVGID_00000154427986873196318620000008856929434696441728_);" d="M2807.13,344.64h-41.01
					c-9.44,0-17.17,7.72-17.17,17.17v38.15h12.4v-24.8c0-9.44,7.72-17.17,17.17-17.17h41.01c1.54,0,3.03,0.23,4.46,0.61
					C2822.47,350.68,2815.48,344.64,2807.13,344.64z"/>
				
					<linearGradient id="SVGID_00000152238861138580856540000009169793968333578633_" gradientUnits="userSpaceOnUse" x1="3391.3286" y1="327.3628" x2="1789.2393" y2="455.5293">
					<stop  offset="0" style="stop-color:#FDF53F"/>
					<stop  offset="0.6645" style="stop-color:#E57A58"/>
					<stop  offset="1" style="stop-color:#D93C65"/>
				</linearGradient>
				<path style="fill:url(#SVGID_00000152238861138580856540000009169793968333578633_);" d="M2873.35,344.64h-41.01
					c-9.44,0-17.17,7.72-17.17,17.17v38.15h12.4v-24.8c0-9.44,7.72-17.17,17.17-17.17h41.01c1.54,0,3.03,0.23,4.46,0.61
					C2888.69,350.68,2881.69,344.64,2873.35,344.64z"/>
				
					<linearGradient id="SVGID_00000057134386537829378280000007927321296966688702_" gradientUnits="userSpaceOnUse" x1="3391.7979" y1="333.2405" x2="1789.7112" y2="461.4068">
					<stop  offset="0" style="stop-color:#FDF53F"/>
					<stop  offset="0.6645" style="stop-color:#E57A58"/>
					<stop  offset="1" style="stop-color:#D93C65"/>
				</linearGradient>
				<path style="fill:url(#SVGID_00000057134386537829378280000007927321296966688702_);" d="M2947.29,344.64h-41.01
					c-9.44,0-17.17,7.72-17.17,17.17v38.15h12.4v-24.8c0-9.44,7.72-17.17,17.17-17.17h41.01c1.54,0,3.03,0.23,4.46,0.61
					C2962.63,350.68,2955.63,344.64,2947.29,344.64z"/>
				
					<linearGradient id="SVGID_00000003080822597804778440000009574972831455098767_" gradientUnits="userSpaceOnUse" x1="3392.1548" y1="337.7014" x2="1790.0679" y2="465.8677">
					<stop  offset="0" style="stop-color:#FDF53F"/>
					<stop  offset="0.6645" style="stop-color:#E57A58"/>
					<stop  offset="1" style="stop-color:#D93C65"/>
				</linearGradient>
				<path style="fill:url(#SVGID_00000003080822597804778440000009574972831455098767_);" d="M3011.04,344.03h-41.01
					c-9.44,0-17.17,7.72-17.17,17.17v38.15h12.4v-24.8c0-9.44,7.72-17.17,17.17-17.17h41.01c1.54,0,3.03,0.23,4.46,0.61
					C3026.39,350.07,3019.39,344.03,3011.04,344.03z"/>
				
					<linearGradient id="SVGID_00000003817807541610021060000010806840797362569115_" gradientUnits="userSpaceOnUse" x1="3392.5757" y1="342.9649" x2="1790.4889" y2="471.1313">
					<stop  offset="0" style="stop-color:#FDF53F"/>
					<stop  offset="0.6645" style="stop-color:#E57A58"/>
					<stop  offset="1" style="stop-color:#D93C65"/>
				</linearGradient>
				<path style="fill:url(#SVGID_00000003817807541610021060000010806840797362569115_);" d="M3077.26,344.03h-41.01
					c-9.44,0-17.17,7.72-17.17,17.17v38.15h12.4v-24.8c0-9.44,7.72-17.17,17.17-17.17h41.01c1.54,0,3.03,0.23,4.46,0.61
					C3092.6,350.07,3085.61,344.03,3077.26,344.03z"/>
				
					<linearGradient id="SVGID_00000082342002297075026430000007678861916968805563_" gradientUnits="userSpaceOnUse" x1="3393.5334" y1="354.9293" x2="1791.4438" y2="483.0959">
					<stop  offset="0" style="stop-color:#FDF53F"/>
					<stop  offset="0.6645" style="stop-color:#E57A58"/>
					<stop  offset="1" style="stop-color:#D93C65"/>
				</linearGradient>
				<path style="fill:url(#SVGID_00000082342002297075026430000007678861916968805563_);" d="M3208.4,345.58h-41.01
					c-9.44,0-17.17,7.72-17.17,17.17v38.15h12.4v-24.8c0-9.44,7.72-17.17,17.17-17.17h41.01c1.54,0,3.03,0.23,4.46,0.61
					C3223.74,351.62,3216.74,345.58,3208.4,345.58z"/>
				
					<linearGradient id="SVGID_00000049188160218975744050000004969773772991641771_" gradientUnits="userSpaceOnUse" x1="3393.0471" y1="348.8424" x2="1790.9578" y2="477.009">
					<stop  offset="0" style="stop-color:#FDF53F"/>
					<stop  offset="0.6645" style="stop-color:#E57A58"/>
					<stop  offset="1" style="stop-color:#D93C65"/>
				</linearGradient>
				<path style="fill:url(#SVGID_00000049188160218975744050000004969773772991641771_);" d="M3151.2,344.03h-41.01
					c-9.44,0-17.17,7.72-17.17,17.17v38.15h12.4v-24.8c0-9.44,7.72-17.17,17.17-17.17h41.01c1.54,0,3.03,0.23,4.46,0.61
					C3166.54,350.07,3159.55,344.03,3151.2,344.03z"/>
			</g>
		</g>
		<g>
			<g>
				
					<linearGradient id="SVGID_00000034803830127235070590000013787946735994157220_" gradientUnits="userSpaceOnUse" x1="2025.2275" y1="1662.2988" x2="2232.439" y2="1421.7859" gradientTransform="matrix(0.9651 -0.2618 0.2618 0.9651 -1163.5303 186.1516)">
					<stop  offset="0" style="stop-color:#FDF53F"/>
					<stop  offset="1" style="stop-color:#D93C65"/>
				</linearGradient>
				<circle style="fill:url(#SVGID_00000034803830127235070590000013787946735994157220_);" cx="1365.99" cy="968.08" r="154.48"/>
				
					<linearGradient id="SVGID_00000057108765233958437020000001090360426808729229_" gradientUnits="userSpaceOnUse" x1="2349.5269" y1="1246.3645" x2="1736.7971" y2="2172.0242" gradientTransform="matrix(0.9651 -0.2618 0.2618 0.9651 -1163.5303 186.1516)">
					<stop  offset="0" style="stop-color:#FDF53F"/>
					<stop  offset="1" style="stop-color:#D93C65"/>
				</linearGradient>
				<circle style="fill:url(#SVGID_00000057108765233958437020000001090360426808729229_);" cx="1365.99" cy="968.08" r="149.34"/>
				<path class="st2" d="M1232.2,945.27c-0.73,0.2-1.52,0.23-2.31,0.07c-2.7-0.56-4.44-3.2-3.89-5.89
					c10.92-53.18,50.23-95.03,102.58-109.24c8.36-2.27,16.93-3.78,25.47-4.51c2.75-0.23,5.16,1.8,5.4,4.55
					c0.24,2.75-1.79,5.18-4.55,5.4c-7.95,0.68-15.93,2.09-23.7,4.2c-48.7,13.21-85.26,52.14-95.42,101.6
					C1235.39,943.36,1233.96,944.79,1232.2,945.27z"/>
				
					<ellipse transform="matrix(0.7071 -0.7071 0.7071 0.7071 -284.8969 1252.9366)" class="st12" cx="1369.98" cy="970.37" rx="126.4" ry="126.4"/>
				<g>
					
						<linearGradient id="SVGID_00000008146156564585473010000004567130622635969173_" gradientUnits="userSpaceOnUse" x1="2331.248" y1="1272.8887" x2="2004.9847" y2="1820.6307" gradientTransform="matrix(0.9651 -0.2618 0.2618 0.9651 -1163.5303 186.1516)">
						<stop  offset="0" style="stop-color:#FDF53F"/>
						<stop  offset="1" style="stop-color:#D93C65"/>
					</linearGradient>
					<path style="fill:url(#SVGID_00000008146156564585473010000004567130622635969173_);" d="M1382.61,1064.31l-3.6-13.27
						c-13.99,3.2-28.56,3.65-39.43,2.03c-3.88-0.58-6.71-3.99-6.7-7.92l0.02-13.28c0.01-4.87,4.3-8.55,9.13-7.91
						c10.74,1.43,23.51,1.39,36.35-2.09c13.33-3.62,22.04-10.83,19.53-20.09c-2.27-8.36-11.29-11.24-31.16-11.19
						c-28.39-0.06-50.49-6.43-56.8-29.7c-5.7-21.01,5.31-41.21,30.8-52.73l-3.6-13.27c-1.16-4.27,1.36-8.67,5.64-9.83l7.8-2.12
						c4.27-1.16,8.67,1.36,9.83,5.64l3.23,11.92c12.94-2.96,22.85-3.3,30.96-2.71c4.15,0.3,7.33,3.82,7.33,7.99l0,12.27
						c0,4.73-4.06,8.43-8.77,7.97c-7.51-0.73-17.86-0.8-30.38,2.6c-15.81,4.29-18.55,12.06-16.96,17.94
						c1.96,7.23,12.79,9.62,35.07,10.37c31.75,0.84,47.26,9.73,53.2,31.64c5.45,20.1-4.55,42.22-32.24,54.58l4.03,14.85
						c1.16,4.27-1.36,8.67-5.64,9.83l-7.8,2.12C1388.17,1071.1,1383.77,1068.58,1382.61,1064.31z"/>
				</g>
			</g>
			<g>
				
					<linearGradient id="SVGID_00000178916261684658048970000007851174223333621931_" gradientUnits="userSpaceOnUse" x1="2308.3579" y1="1660.8715" x2="2669.0769" y2="1242.1803" gradientTransform="matrix(0.9651 -0.2618 0.2618 0.9651 -1163.5303 186.1516)">
					<stop  offset="0" style="stop-color:#FDF53F"/>
					<stop  offset="1" style="stop-color:#D93C65"/>
				</linearGradient>
				<circle style="fill:url(#SVGID_00000178916261684658048970000007851174223333621931_);" cx="1742.42" cy="676.15" r="268.92"/>
				
					<linearGradient id="SVGID_00000058563516165908404710000005639706878469225361_" gradientUnits="userSpaceOnUse" x1="2872.9067" y1="936.8019" x2="1806.2504" y2="2548.2156" gradientTransform="matrix(0.9651 -0.2618 0.2618 0.9651 -1163.5303 186.1516)">
					<stop  offset="0" style="stop-color:#FDF53F"/>
					<stop  offset="1" style="stop-color:#D93C65"/>
				</linearGradient>
				<circle style="fill:url(#SVGID_00000058563516165908404710000005639706878469225361_);" cx="1742.42" cy="676.15" r="259.98"/>
				<path class="st2" d="M1508.54,632.87c-0.73,0.2-1.52,0.23-2.31,0.07c-2.7-0.56-4.44-3.2-3.89-5.89
					c18.73-91.2,86.14-162.98,175.92-187.34c14.33-3.89,29.03-6.49,43.69-7.73c2.75-0.24,5.17,1.8,5.4,4.55
					c0.23,2.75-1.8,5.19-4.56,5.39c-14.07,1.19-28.17,3.69-41.92,7.42c-86.13,23.36-150.79,92.23-168.76,179.71
					C1511.74,630.96,1510.31,632.39,1508.54,632.87z"/>
				
					<ellipse transform="matrix(0.7071 -0.7071 0.7071 0.7071 31.4535 1436.1945)" class="st12" cx="1749.37" cy="680.13" rx="220.04" ry="220.04"/>
				<g>
					
						<linearGradient id="SVGID_00000140006047738602151920000007773756308652266632_" gradientUnits="userSpaceOnUse" x1="2841.0867" y1="982.9752" x2="2273.1172" y2="1936.502" gradientTransform="matrix(0.9651 -0.2618 0.2618 0.9651 -1163.5303 186.1516)">
						<stop  offset="0" style="stop-color:#FDF53F"/>
						<stop  offset="1" style="stop-color:#D93C65"/>
					</linearGradient>
					<path style="fill:url(#SVGID_00000140006047738602151920000007773756308652266632_);" d="M1771.36,843.66l-6.27-23.1
						c-24.35,5.57-49.71,6.35-68.64,3.53c-6.76-1.01-11.68-6.95-11.67-13.79l0.03-23.11c0.01-8.48,7.49-14.89,15.9-13.78
						c18.69,2.48,40.93,2.43,63.28-3.64c23.2-6.29,38.37-18.85,33.99-34.97c-3.95-14.55-19.66-19.57-54.25-19.47
						c-49.42-0.1-87.89-11.2-98.87-51.7c-9.92-36.57,9.24-71.74,53.62-91.8l-6.27-23.11c-2.02-7.44,2.38-15.1,9.81-17.11l13.57-3.68
						c7.44-2.02,15.1,2.37,17.11,9.81l5.63,20.75c22.53-5.15,39.79-5.74,53.89-4.71c7.23,0.53,12.76,6.66,12.76,13.9l0,21.37
						c0,8.24-7.06,14.67-15.26,13.87c-13.07-1.27-31.1-1.39-52.88,4.52c-27.52,7.47-32.29,21-29.52,31.23
						c3.41,12.58,22.27,16.75,61.04,18.06c55.28,1.47,82.27,16.94,92.62,55.08c9.49,35-7.92,73.49-56.12,95.01l7.01,25.86
						c2.02,7.44-2.38,15.1-9.81,17.11l-13.58,3.68C1781.03,855.49,1773.37,851.09,1771.36,843.66z"/>
				</g>
			</g>
			<g>
				
					<linearGradient id="SVGID_00000181778711804376100800000017309948587552406413_" gradientUnits="userSpaceOnUse" x1="2483.168" y1="2273.9199" x2="2854.3435" y2="1843.0917" gradientTransform="matrix(0.9651 -0.2618 0.2618 0.9651 -1163.5303 186.1516)">
					<stop  offset="0" style="stop-color:#FDF53F"/>
					<stop  offset="1" style="stop-color:#D93C65"/>
				</linearGradient>
				<circle style="fill:url(#SVGID_00000181778711804376100800000017309948587552406413_);" cx="2078.68" cy="1207.29" r="276.72"/>
				
					<linearGradient id="SVGID_00000100357256824440838980000009866183740597991553_" gradientUnits="userSpaceOnUse" x1="3064.0818" y1="1528.8608" x2="1966.5059" y2="3186.9854" gradientTransform="matrix(0.9651 -0.2618 0.2618 0.9651 -1163.5303 186.1516)">
					<stop  offset="0" style="stop-color:#FDF53F"/>
					<stop  offset="1" style="stop-color:#D93C65"/>
				</linearGradient>
				<circle style="fill:url(#SVGID_00000100357256824440838980000009866183740597991553_);" cx="2078.68" cy="1207.29" r="267.52"/>
				<path class="st2" d="M1837.99,1162.62c-0.73,0.2-1.52,0.23-2.31,0.07c-2.7-0.56-4.44-3.2-3.89-5.89
					c19.26-93.79,88.58-167.61,180.92-192.66c14.73-4,29.85-6.67,44.93-7.95c2.75-0.24,5.17,1.8,5.4,4.55
					c0.23,2.75-1.78,5.17-4.56,5.39c-14.49,1.23-29.01,3.8-43.16,7.64c-88.68,24.06-155.25,94.95-173.75,185.02
					C1841.18,1160.71,1839.75,1162.14,1837.99,1162.62z"/>
				<circle class="st12" cx="2085.83" cy="1211.39" r="226.42"/>
				<g>
					
						<linearGradient id="SVGID_00000163042356747960983790000014660358132576703892_" gradientUnits="userSpaceOnUse" x1="3031.3391" y1="1576.3729" x2="2446.9058" y2="2557.54" gradientTransform="matrix(0.9651 -0.2618 0.2618 0.9651 -1163.5303 186.1516)">
						<stop  offset="0" style="stop-color:#FDF53F"/>
						<stop  offset="1" style="stop-color:#D93C65"/>
					</linearGradient>
					<path style="fill:url(#SVGID_00000163042356747960983790000014660358132576703892_);" d="M2108.45,1379.66l-6.45-23.77
						c-25.05,5.73-51.15,6.53-70.63,3.63c-6.96-1.03-12.02-7.15-12.01-14.18l0.03-23.78c0.01-8.72,7.71-15.32,16.36-14.17
						c19.24,2.55,42.11,2.5,65.11-3.74c23.87-6.48,39.48-19.4,34.98-35.99c-4.06-14.97-20.23-20.14-55.82-20.04
						c-50.85-0.11-90.43-11.52-101.74-53.19c-10.21-37.63,9.51-73.82,55.17-94.46l-6.45-23.78c-2.08-7.65,2.44-15.53,10.09-17.61
						l13.97-3.79c7.65-2.08,15.53,2.44,17.61,10.09l5.79,21.35c23.18-5.3,40.94-5.91,55.45-4.85c7.43,0.54,13.13,6.85,13.13,14.3
						l0,21.99c0,8.48-7.27,15.09-15.71,14.28c-13.45-1.3-32-1.43-54.41,4.65c-28.32,7.68-33.23,21.61-30.38,32.13
						c3.51,12.95,22.92,17.24,62.81,18.58c56.88,1.51,84.65,17.43,95.3,56.68c9.77,36.01-8.15,75.62-57.75,97.76l7.22,26.61
						c2.08,7.65-2.44,15.54-10.09,17.61l-13.97,3.79C2118.41,1391.83,2110.53,1387.31,2108.45,1379.66z"/>
				</g>
			</g>
			<g>
				
					<linearGradient id="SVGID_00000057832891822718538310000008499962794862108092_" gradientUnits="userSpaceOnUse" x1="2939.387" y1="1779.4719" x2="3211.3445" y2="1463.8073" gradientTransform="matrix(0.9651 -0.2618 0.2618 0.9651 -1163.5303 186.1516)">
					<stop  offset="0" style="stop-color:#FDF53F"/>
					<stop  offset="1" style="stop-color:#D93C65"/>
				</linearGradient>
				<circle style="fill:url(#SVGID_00000057832891822718538310000008499962794862108092_);" cx="2322.6" cy="750.55" r="202.75"/>
				
					<linearGradient id="SVGID_00000062888685518502381190000015064982733887942051_" gradientUnits="userSpaceOnUse" x1="3365.0178" y1="1233.573" x2="2560.8325" y2="2448.468" gradientTransform="matrix(0.9651 -0.2618 0.2618 0.9651 -1163.5303 186.1516)">
					<stop  offset="0" style="stop-color:#FDF53F"/>
					<stop  offset="1" style="stop-color:#D93C65"/>
				</linearGradient>
				<circle style="fill:url(#SVGID_00000062888685518502381190000015064982733887942051_);" cx="2322.59" cy="750.55" r="196.01"/>
				<path class="st2" d="M2146.59,719.11c-0.73,0.2-1.52,0.23-2.31,0.07c-2.7-0.56-4.44-3.2-3.89-5.89
					c14.21-69.21,65.38-123.69,133.52-142.18c10.86-2.95,22.01-4.92,33.16-5.87c2.75-0.23,5.16,1.8,5.4,4.55
					c0.23,2.75-1.77,5.2-4.55,5.4c-10.55,0.9-21.11,2.77-31.39,5.56c-64.48,17.49-112.9,69.05-126.35,134.54
					C2149.79,717.2,2148.35,718.63,2146.59,719.11z"/>
				
					<ellipse transform="matrix(0.7071 -0.7071 0.7071 0.7071 148.964 1866.739)" class="st12" cx="2327.84" cy="753.55" rx="165.9" ry="165.9"/>
				<g>
					
						<linearGradient id="SVGID_00000124133529286918833650000015642910921479544251_" gradientUnits="userSpaceOnUse" x1="3341.0283" y1="1268.3843" x2="2912.8181" y2="1987.2784" gradientTransform="matrix(0.9651 -0.2618 0.2618 0.9651 -1163.5303 186.1516)">
						<stop  offset="0" style="stop-color:#FDF53F"/>
						<stop  offset="1" style="stop-color:#D93C65"/>
					</linearGradient>
					<path style="fill:url(#SVGID_00000124133529286918833650000015642910921479544251_);" d="M2344.41,876.84l-4.73-17.42
						c-18.36,4.2-37.48,4.79-51.75,2.66c-5.1-0.76-8.8-5.24-8.8-10.39l0.02-17.43c0.01-6.39,5.65-11.23,11.98-10.39
						c14.09,1.87,30.86,1.83,47.71-2.74c17.49-4.74,28.93-14.21,25.63-26.37c-2.98-10.97-14.82-14.75-40.9-14.68
						c-37.26-0.08-66.26-8.44-74.54-38.97c-7.48-27.57,6.97-54.09,40.42-69.21l-4.73-17.42c-1.52-5.61,1.79-11.38,7.4-12.9
						l10.23-2.78c5.61-1.52,11.38,1.79,12.9,7.4l4.24,15.64c16.99-3.89,30-4.33,40.63-3.55c5.45,0.4,9.62,5.02,9.62,10.48l0,16.11
						c0,6.21-5.32,11.06-11.51,10.46c-9.85-0.95-23.44-1.05-39.87,3.41c-20.75,5.63-24.35,15.83-22.26,23.54
						c2.57,9.49,16.79,12.63,46.02,13.61c41.67,1.11,62.02,12.77,69.83,41.53c7.16,26.38-5.97,55.41-42.31,71.63l5.29,19.49
						c1.52,5.61-1.79,11.38-7.4,12.9l-10.24,2.78C2351.71,885.76,2345.93,882.45,2344.41,876.84z"/>
				</g>
			</g>
		</g>
		<g>
			<g>
				
					<linearGradient id="SVGID_00000101802129051998877820000008474101585350556326_" gradientUnits="userSpaceOnUse" x1="4028.4971" y1="3175.1653" x2="4028.4971" y2="5093.7017" gradientTransform="matrix(0.9416 0.3368 -0.3368 0.9416 -347.836 -41.6063)">
					<stop  offset="0" style="stop-color:#CB236D"/>
					<stop  offset="1" style="stop-color:#4C246D"/>
				</linearGradient>
				<path style="fill:url(#SVGID_00000101802129051998877820000008474101585350556326_);" d="M3402.14,1350.22
					c-25.28,80.37-72.57,109.98-111.02,97.89c-39.32-12.36-58.38-63.49-35.75-136.95c22.69-72.16,68.31-110.03,111.52-96.44
					C3411.39,1228.71,3423.72,1281.58,3402.14,1350.22z M3241.62,1608.53l286.86-342.99l30.25,9.51l-286.87,342.99L3241.62,1608.53z
					 M3296.72,1321.58c-14.27,43.86-12.74,79.8,8.42,86.45c21.18,6.66,41.13-20.59,55.7-66.93c13.29-42.24,15.34-78.98-7.56-86.18
					C3331.69,1248.13,3310.18,1278.75,3296.72,1321.58z M3545.89,1569.49c-25.09,79.78-72.14,110.11-111.02,97.88
					c-38.88-12.23-58.37-63.49-35.13-137.4c22.51-71.57,68.31-110.02,111.08-96.57C3555.33,1447.39,3567.48,1500.85,3545.89,1569.49
					z M3440.48,1540.84c-14.08,43.28-12.75,79.8,8.42,86.45c21.6,6.79,41.14-20.58,55.71-66.93c13.47-42.83,15.34-78.98-7.56-86.18
					C3475.44,1467.39,3453.94,1498.02,3440.48,1540.84z"/>
			</g>
			<g>
				
					<linearGradient id="SVGID_00000098932186164706396060000006039825671140697996_" gradientUnits="userSpaceOnUse" x1="3122.9355" y1="1261.0929" x2="3122.9355" y2="3179.7058">
					<stop  offset="0" style="stop-color:#CB236D"/>
					<stop  offset="1" style="stop-color:#4C246D"/>
				</linearGradient>
				<path style="fill:url(#SVGID_00000098932186164706396060000006039825671140697996_);" d="M3104.38,1448.82h-47.84v-38.99h47.84
					v-70.25h37.1v70.25h47.84v38.99h-47.84v69.31h-37.1V1448.82z"/>
			</g>
		</g>
		<g>
			<g>
				
					<linearGradient id="SVGID_00000151530830600441431370000015490628488712835990_" gradientUnits="userSpaceOnUse" x1="685.9872" y1="1657.2467" x2="523.7439" y2="2181.4187" gradientTransform="matrix(1 0 0 1 1290.1023 0)">
					<stop  offset="0" style="stop-color:#53D8FF"/>
					<stop  offset="1" style="stop-color:#3840F7"/>
				</linearGradient>
				<path style="fill:url(#SVGID_00000151530830600441431370000015490628488712835990_);" d="M1464.88,3594.72
					c0.02-1.17-0.06-2.36-0.36-3.56c-17.77-70.45-105.97-114.34-105.97-114.34l-34.95,2.74c-20.1,62.1-17.51,100.18-14.29,117.14
					c0.09,0.48,0.23,0.93,0.36,1.39C1338.5,3600.67,1397.84,3602.35,1464.88,3594.72z"/>
				
					<linearGradient id="SVGID_00000119119945019681394460000001210968616005660859_" gradientUnits="userSpaceOnUse" x1="96.7395" y1="3625.9502" x2="105.0594" y2="3060.1799" gradientTransform="matrix(1 0 0 1 1290.1023 0)">
					<stop  offset="0" style="stop-color:#2B3582"/>
					<stop  offset="1" style="stop-color:#150E42"/>
				</linearGradient>
				<path style="fill:url(#SVGID_00000119119945019681394460000001210968616005660859_);" d="M1309.67,3598.09
					c1.56,5.67,5.74,10.08,11.09,11.2c41.01,8.63,106.2,1.68,133.57-1.89c6.04-0.79,10.45-6.37,10.55-12.68
					C1397.84,3602.35,1338.5,3600.67,1309.67,3598.09z"/>
				
					<linearGradient id="SVGID_00000164510700749314453330000015076200046250371237_" gradientUnits="userSpaceOnUse" x1="60.8785" y1="3358.9097" x2="30.7396" y2="3621.9421" gradientTransform="matrix(1 0 0 1 1290.1023 0)">
					<stop  offset="0" style="stop-color:#F9B776"/>
					<stop  offset="1" style="stop-color:#F47960"/>
				</linearGradient>
				<path style="fill:url(#SVGID_00000164510700749314453330000015076200046250371237_);" d="M1309.54,3427.5l14.8,71.26
					c1.08,5.22,5.1,9.13,9.96,9.59c5.95,0.56,14.42,0.89,22.93-0.37c7.64-1.12,12.95-8.88,11.6-17.21l-10.29-63.27H1309.54z"/>
				
					<linearGradient id="SVGID_00000059308930267765797110000009290665130398849686_" gradientUnits="userSpaceOnUse" x1="370.7473" y1="3629.9797" x2="379.0672" y2="3064.208" gradientTransform="matrix(1 0 0 1 1290.1023 0)">
					<stop  offset="0" style="stop-color:#2B3582"/>
					<stop  offset="1" style="stop-color:#150E42"/>
				</linearGradient>
				<path style="fill:url(#SVGID_00000059308930267765797110000009290665130398849686_);" d="M1616.25,3597.19
					c-38.6-1.08-58.57-5.63-68.89-9.85c-0.02,3.84,0,7.74,0.12,11.79c0.13,4.32,3.33,7.77,7.27,7.75l211.94-1.37
					c6.76-0.04,10.72-7.89,7.78-14.09C1746.7,3593.72,1675.92,3598.86,1616.25,3597.19z"/>
				
					<linearGradient id="SVGID_00000181786497450695892630000017616311949582174854_" gradientUnits="userSpaceOnUse" x1="938.3939" y1="1735.3752" x2="776.1508" y2="2259.5466" gradientTransform="matrix(1 0 0 1 1290.1023 0)">
					<stop  offset="0" style="stop-color:#53D8FF"/>
					<stop  offset="1" style="stop-color:#3840F7"/>
				</linearGradient>
				<path style="fill:url(#SVGID_00000181786497450695892630000017616311949582174854_);" d="M1774.49,3591.42
					c-0.26-0.54-0.47-1.09-0.84-1.6c-18.72-26.15-66.39-78.23-160.59-100.82l-45.19-1.43c0,0-20.12,34.97-20.5,99.76
					c10.32,4.22,30.29,8.76,68.89,9.85C1675.92,3598.86,1746.7,3593.72,1774.49,3591.42z"/>
				
					<linearGradient id="SVGID_00000088852857144061334400000005257563422667974827_" gradientUnits="userSpaceOnUse" x1="389.0941" y1="3352.104" x2="358.9547" y2="3615.1396" gradientTransform="matrix(0.998 -0.0629 0.0629 0.998 993.2088 65.7657)">
					<stop  offset="0" style="stop-color:#F9B776"/>
					<stop  offset="1" style="stop-color:#F47960"/>
				</linearGradient>
				<path style="fill:url(#SVGID_00000088852857144061334400000005257563422667974827_);" d="M1557.47,3421.19
					c0.71,3.33,10.12,54.04,13.76,73.7c0.87,4.67,4.51,8.1,8.84,8.34c7.74,0.43,20.22,0.49,30.95-2.43
					c5.79-1.57,9.68-7.47,9.27-14.03l-5.06-80.2L1557.47,3421.19z"/>
				
					<linearGradient id="SVGID_00000075874622640974130950000012356604785055953303_" gradientUnits="userSpaceOnUse" x1="1143.8074" y1="3142.1565" x2="2861.6687" y2="1034.9117" gradientTransform="matrix(-1 0 0 1 2705.8369 0)">
					<stop  offset="0" style="stop-color:#2B3582"/>
					<stop  offset="1" style="stop-color:#150E42"/>
				</linearGradient>
				<path style="fill:url(#SVGID_00000075874622640974130950000012356604785055953303_);" d="M1523.23,2484.97
					c0,0,62.17,427.17,107.03,935.5c0.84,9.47-6.71,17.71-16.01,19.66c-13.71,2.89-33.85,6.31-50.53,5.85
					c-8.9-0.25-16.35-6.85-17.84-15.63c-15.28-89.63-124.34-570.64-152.96-676.5c0,0-32.88,449.69-22.37,683
					c0.26,5.8-3.99,10.83-9.75,11.5c-8.75,1.01-22.75,1.78-40.56-0.11c-6.76-0.72-12.22-5.83-13.19-12.56
					c-10.89-75.85-73.54-527.36-70.88-852.6c0.15-18.34,21.52-169.04,21.52-169.04L1523.23,2484.97z"/>
			</g>
			<g>
				
					<linearGradient id="SVGID_00000045615307920207869800000002864657966142842802_" gradientUnits="userSpaceOnUse" x1="653.0435" y1="2065.728" x2="988.8289" y2="2065.728" gradientTransform="matrix(1 0 0 1 1290.1023 0)">
					<stop  offset="0" style="stop-color:#F9B776"/>
					<stop  offset="1" style="stop-color:#F47960"/>
				</linearGradient>
				<path style="fill:url(#SVGID_00000045615307920207869800000002864657966142842802_);" d="M2056.1,2076.56
					c0,0-17.4-45.81-37.73-41.62c-20.33,4.2-42.56,19.81-42.56,19.81l-32.66,44.16c0,0,91.67,36.11,123.91,15.42
					c0,0,93.63,16.18,211.88-3.22c-17.12-36.14-27.32-72.32-33.31-100.4C2185.73,2044.62,2121.23,2069.94,2056.1,2076.56z"/>
				
					<linearGradient id="SVGID_00000017501198466147869960000002175344965576289191_" gradientUnits="userSpaceOnUse" x1="1105.7974" y1="1802.0743" x2="1125.541" y2="2306.4236" gradientTransform="matrix(1 0 0 1 1290.1023 0)">
					<stop  offset="0" style="stop-color:#CB236D"/>
					<stop  offset="1" style="stop-color:#4C246D"/>
				</linearGradient>
				<path style="fill:url(#SVGID_00000017501198466147869960000002175344965576289191_);" d="M2552.08,1744.28
					c0,0-134.06,168.85-306.46,266.44c5.99,28.08,16.19,64.26,33.31,100.4c89.43-14.68,192.94-49.7,280.69-127.52L2552.08,1744.28z"
					/>
			</g>
			
				<linearGradient id="SVGID_00000118390961036248591250000006982120329225198783_" gradientUnits="userSpaceOnUse" x1="1526.8657" y1="1968.2209" x2="915.3326" y2="2808.5601">
				<stop  offset="0" style="stop-color:#FDF53F"/>
				<stop  offset="1" style="stop-color:#D93C65"/>
			</linearGradient>
			<path style="fill:url(#SVGID_00000118390961036248591250000006982120329225198783_);" d="M1547.32,1766.61l8.32,223.53
				c23.64,8.14,46.15,14.46,67.58,19.19c13.41-43.16,42.92-96.13,67.1-135.52C1601.51,1842.42,1547.32,1766.61,1547.32,1766.61z"/>
			
				<linearGradient id="SVGID_00000048467544775276473810000013507592813744237498_" gradientUnits="userSpaceOnUse" x1="861.4244" y1="1744.0228" x2="334.6393" y2="2006.0692" gradientTransform="matrix(1 0 0 1 1290.1023 0)">
				<stop  offset="0" style="stop-color:#F9B776"/>
				<stop  offset="1" style="stop-color:#F47960"/>
			</linearGradient>
			<path style="fill:url(#SVGID_00000048467544775276473810000013507592813744237498_);" d="M1990.7,1762.8
				c-121.82,131.53-220.42,139.27-300.38,111.01c-24.17,39.39-53.69,92.36-67.1,135.52c325.32,71.72,401.93-227.35,401.93-227.35
				L1990.7,1762.8z"/>
			
				<linearGradient id="SVGID_00000121979490054141242240000016811723812766881468_" gradientUnits="userSpaceOnUse" x1="853.7124" y1="1678.3009" x2="776.0188" y2="1759.4476" gradientTransform="matrix(1 0 0 1 1290.1023 0)">
				<stop  offset="0" style="stop-color:#F9B776"/>
				<stop  offset="1" style="stop-color:#F47960"/>
			</linearGradient>
			<path style="fill:url(#SVGID_00000121979490054141242240000016811723812766881468_);" d="M2015.4,1748.83
				c0,0,14.03-15.07,40-10.33c25.97,4.74,49.09,13.76,65.27,0c16.18-13.76,21.87,4.71,21.87,4.71l-48.46,36.84L2015.4,1748.83z"/>
			
				<linearGradient id="SVGID_00000118373363312897245100000010084050878993919620_" gradientUnits="userSpaceOnUse" x1="863.9279" y1="1740.9175" x2="337.1451" y2="2002.9628" gradientTransform="matrix(1 0 0 1 1290.1023 0)">
				<stop  offset="0" style="stop-color:#F9B776"/>
				<stop  offset="1" style="stop-color:#F47960"/>
			</linearGradient>
			<path style="fill:url(#SVGID_00000118373363312897245100000010084050878993919620_);" d="M1986.42,1774.6
				c0,0,9.62-40.21,38.59-34.69c28.98,5.51,94.76,41.28,111.71,34.69c16.95-6.59,38.63-22.36,49.75-16.79l-19.59,24.36
				c0,0,50.36-29.05,59.03-11.2l-83.8,47.16C2142.12,1818.12,2019.52,1805.84,1986.42,1774.6z"/>
			
				<linearGradient id="SVGID_00000016040919178412787270000002693157313660375447_" gradientUnits="userSpaceOnUse" x1="1560.9435" y1="1993.0195" x2="949.4089" y2="2833.3606">
				<stop  offset="0" style="stop-color:#FDF53F"/>
				<stop  offset="1" style="stop-color:#D93C65"/>
			</linearGradient>
			<path style="fill:url(#SVGID_00000016040919178412787270000002693157313660375447_);" d="M1248.34,2509.59
				c-6.39-2.27-10.85-8.07-11.54-14.81c-8.27-80.2-48.29-577.49,204.4-782.06c0,0,14.49-37.92,133.61,55.29
				c119.12,93.2,55.34,190.89,26.82,325.64c-34.51,163.05-95.06,296.33-68.27,396.67c1.85,6.92-1.79,14.2-8.52,16.67
				C1432.32,2541.08,1340.15,2542.21,1248.34,2509.59z"/>
			
				<linearGradient id="SVGID_00000163050153829027712960000018038029219917956283_" gradientUnits="userSpaceOnUse" x1="181.1135" y1="1825.849" x2="251.1115" y2="1634.7007" gradientTransform="matrix(1 0 0 1 1290.1023 0)">
				<stop  offset="0" style="stop-color:#F9B776"/>
				<stop  offset="1" style="stop-color:#F47960"/>
			</linearGradient>
			<path style="fill:url(#SVGID_00000163050153829027712960000018038029219917956283_);" d="M1539.77,1563.72
				c-0.08,7.08-100.98,150.4-100.98,150.4s18.11,35.67,104.58,64.63l74.64-153.46L1539.77,1563.72z"/>
			
				<linearGradient id="SVGID_00000062190135516137672520000017897368512969393289_" gradientUnits="userSpaceOnUse" x1="527.9863" y1="2048.1382" x2="7.5794" y2="2952.3901" gradientTransform="matrix(1 0 0 1 1290.1023 0)">
				<stop  offset="0" style="stop-color:#F9B776"/>
				<stop  offset="1" style="stop-color:#F47960"/>
			</linearGradient>
			<path style="fill:url(#SVGID_00000062190135516137672520000017897368512969393289_);" d="M1500.09,2055.8
				c0,0,191.44,160.33,398.17,90.37c12.82-4.34,26.84-3.4,38.81,2.92l59.43,31.39c24.94,13.17,55.84,4.53,70.31-19.69
				c8.26-13.81,15.3-29.59,16.7-44.7l-116.29-47.08l8.57-14.26c0,0-56.78-4.81-71.64,35.88c0,0-108.15,44.98-290.53-155.62
				C1613.63,1935.02,1530.87,2005.39,1500.09,2055.8z"/>
			
				<linearGradient id="SVGID_00000137828783325073563530000012227974983758170283_" gradientUnits="userSpaceOnUse" x1="1611.6793" y1="1547.5226" x2="1283.032" y2="2333.7805">
				<stop  offset="0" style="stop-color:#FDF53F"/>
				<stop  offset="1" style="stop-color:#D93C65"/>
			</linearGradient>
			<path style="fill:url(#SVGID_00000137828783325073563530000012227974983758170283_);" d="M1489.79,2054.14
				c-0.63,0-1.27-0.18-1.83-0.56c-80.61-54.46-118.53-142.37-118.9-143.25c-0.7-1.67,0.07-3.59,1.74-4.3
				c1.67-0.71,3.59,0.06,4.3,1.73c0.37,0.86,37.58,87.04,116.54,140.38c1.5,1.01,1.89,3.05,0.88,4.55
				C1491.87,2053.63,1490.84,2054.14,1489.79,2054.14z"/>
			
				<linearGradient id="SVGID_00000021804680461335442640000014290013058724268216_" gradientUnits="userSpaceOnUse" x1="1628.6427" y1="1554.6138" x2="1299.9955" y2="2340.8713">
				<stop  offset="0" style="stop-color:#FDF53F"/>
				<stop  offset="1" style="stop-color:#D93C65"/>
			</linearGradient>
			<path style="fill:url(#SVGID_00000021804680461335442640000014290013058724268216_);" d="M1609.85,1932.3
				c-1.07,0-2.13-0.53-2.76-1.5c-0.24-0.38-24.87-38.71-71.77-122.7c-14.42-25.83-33.38-42.18-56.34-48.61
				c-38.03-10.62-74.67,9.76-75.03,9.97c-1.58,0.87-3.57,0.35-4.47-1.23c-0.89-1.57-0.35-3.57,1.23-4.47
				c1.58-0.9,39.27-21.99,79.98-10.59c24.73,6.9,45.04,24.3,60.36,51.73c46.79,83.78,71.32,121.98,71.56,122.35
				c0.98,1.52,0.54,3.55-0.98,4.53C1611.08,1932.13,1610.46,1932.3,1609.85,1932.3z"/>
			<g>
				
					<linearGradient id="SVGID_00000173148187711534025250000013646256505703950208_" gradientUnits="userSpaceOnUse" x1="353.162" y1="1539.1204" x2="-63.902" y2="1871.295" gradientTransform="matrix(1 0 0 1 1290.1023 0)">
					<stop  offset="0" style="stop-color:#F9B776"/>
					<stop  offset="1" style="stop-color:#F47960"/>
				</linearGradient>
				<path style="fill:url(#SVGID_00000173148187711534025250000013646256505703950208_);" d="M1619.22,1481.59
					c0,0,35.9,82.48,38.31,125.77c2.41,43.29,11.74,71.38-38.31,80.1c-50.05,8.72-92.22-16.22-115.06-59.34
					c0,0-35.79-66.45-27.76-93.66C1484.42,1507.25,1619.22,1481.59,1619.22,1481.59z"/>
				
					<linearGradient id="SVGID_00000170242757008964327960000004094370180420503221_" gradientUnits="userSpaceOnUse" x1="192.1547" y1="1429.8435" x2="383.313" y2="1675.9594" gradientTransform="matrix(1 0 0 1 1290.1023 0)">
					<stop  offset="0" style="stop-color:#2B3582"/>
					<stop  offset="1" style="stop-color:#150E42"/>
				</linearGradient>
				<path style="fill:url(#SVGID_00000170242757008964327960000004094370180420503221_);" d="M1521.26,1597.11l2.85-1.26
					c3.63-1.6,5.18-5.92,3.36-9.44c-7.06-13.64-20.82-44.89-3.04-52.18c22.91-9.4,113.65-27.9,133.23-60.1
					c18.82-30.95,2.14-70.89-22.91-82.25c-1.68-0.76-3.65-0.16-4.51,1.47l-2.09,3.95c-1.43,2.71-5.42,2.3-6.27-0.64l0,0
					c-0.82-2.82-4.57-3.37-6.12-0.88c-6.02,9.63-22.27,25.25-65.72,33.27c-61.75,11.4-102.58,36.39-103.59,79.06
					c-0.06,2.71-2.95,4.22-5.26,2.81c-4.56-2.78-11.86-4.08-21.61,4.12c-16.96,14.26-10.02,51.25,27.16,81.68
					c1.77,1.45,1.75,4.2-0.16,5.45c-6.74,4.39-16.79,14.83,9.25,28.74c26.93,14.39,47.03,13.21,54.78,11.94
					c1.93-0.32,3.17-2.18,2.75-4.09l-8.26-37.5c-0.47-2.12,1.15-4.13,3.32-4.13H1521.26z"/>
				
					<linearGradient id="SVGID_00000098181595743827772110000014673531663614399931_" gradientUnits="userSpaceOnUse" x1="311.1817" y1="1520.9187" x2="105.9333" y2="1677.965" gradientTransform="matrix(1 0 0 1 1290.1023 0)">
					<stop  offset="0" style="stop-color:#F9B776"/>
					<stop  offset="1" style="stop-color:#F47960"/>
				</linearGradient>
				<path style="fill:url(#SVGID_00000098181595743827772110000014673531663614399931_);" d="M1522.81,1605.03
					c0,0-13.7-52.69-37.32-37.91c-23.62,14.77,12.26,59.03,31.25,61L1522.81,1605.03z"/>
			</g>
			
				<linearGradient id="SVGID_00000041983058773395337150000015751803461022751622_" gradientUnits="userSpaceOnUse" x1="646.9672" y1="2150.6282" x2="729.713" y2="2150.6282" gradientTransform="matrix(1 0 0 1 1290.1023 0)">
				<stop  offset="0" style="stop-color:#F9B776"/>
				<stop  offset="1" style="stop-color:#F47960"/>
			</linearGradient>
			<path style="fill:url(#SVGID_00000041983058773395337150000015751803461022751622_);" d="M1937.07,2149.09
				c0,0,48.65,47.59,58.04,40.66c3.34-2.46,11.77-11.42,19.95-21.39c5.77-7.03,6.37-16.97,1.42-24.61l-11.47-17.71
				c-10.93-16.87-34.34-20.41-49.51-7.21C1947.84,2125.5,1940.9,2135.14,1937.07,2149.09z"/>
			
				<linearGradient id="SVGID_00000162323294878838998520000012896050493660389031_" gradientUnits="userSpaceOnUse" x1="1257.5782" y1="1974.5959" x2="1953.7295" y2="2345.2092" gradientTransform="matrix(1 0 0 1 1290.1023 0)">
				<stop  offset="0" style="stop-color:#CB236D"/>
				<stop  offset="1" style="stop-color:#4C246D"/>
			</linearGradient>
			<path style="fill:url(#SVGID_00000162323294878838998520000012896050493660389031_);" d="M2719.27,2492.67
				c-26.22-124.53-52.43-196.63-140.22-432.67c-27.63-74.28-52.71-149.44-40.59-227.76l13.62-87.96c0,0,170.6-57.73,359.71-2.43
				c0,0,258,112.08,82.76,665.61C2915.56,2495.84,2823.12,2521.02,2719.27,2492.67z"/>
			
				<linearGradient id="SVGID_00000023994046866423331120000014409762426778932366_" gradientUnits="userSpaceOnUse" x1="1404.3605" y1="1729.8743" x2="1350.5154" y2="1568.3385" gradientTransform="matrix(1 0 0 1 1290.1023 0)">
				<stop  offset="0" style="stop-color:#F9B776"/>
				<stop  offset="1" style="stop-color:#F47960"/>
			</linearGradient>
			<path style="fill:url(#SVGID_00000023994046866423331120000014409762426778932366_);" d="M2581.12,1632.02l44.24,106.27
				c2.79,6.71,8.83,11.5,16,12.72c25.5,4.37,87.19,11.21,127.7-15.43c4.83-3.17,6.06-9.74,2.75-14.48l-81.73-117.33L2581.12,1632.02
				z"/>
			<g>
				
					<linearGradient id="SVGID_00000012457972506614261870000013099681203274898604_" gradientUnits="userSpaceOnUse" x1="1392.802" y1="2201.1001" x2="1959.0562" y2="2201.1001" gradientTransform="matrix(1 0 0 1 1290.1023 0)">
					<stop  offset="0" style="stop-color:#9CFFFB"/>
					<stop  offset="1" style="stop-color:#9BFFFA"/>
				</linearGradient>
				<path style="fill:url(#SVGID_00000012457972506614261870000013099681203274898604_);" d="M2690.23,2131.46
					c-6.09,1.61-9.12,8.45-6.21,14.04L2812,2390.89c2.16,4.14,6.94,6.19,11.43,4.9l418.62-120.87c5.21-1.5,8.22-6.95,6.71-12.16
					l-72.11-249.64c-1.48-5.13-6.78-8.13-11.94-6.77L2690.23,2131.46z"/>
				
					<linearGradient id="SVGID_00000044138050604254031380000015135335342743466660_" gradientUnits="userSpaceOnUse" x1="1419.2271" y1="2196.739" x2="1959.6007" y2="2196.739" gradientTransform="matrix(1 0 0 1 1290.1023 0)">
					<stop  offset="0" style="stop-color:#9CFFFB"/>
					<stop  offset="1" style="stop-color:#9BFFFA"/>
				</linearGradient>
				<path style="fill:url(#SVGID_00000044138050604254031380000015135335342743466660_);" d="M2717.23,2102.62
					c-5.99,1.43-9.39,7.77-7.27,13.55l102.44,278.28c1.86,5.06,7.32,7.82,12.5,6.33l417.36-120.5c5.19-1.5,8.34-6.77,7.2-12.05
					l-57.84-267.83c-1.22-5.63-6.83-9.17-12.43-7.83L2717.23,2102.62z"/>
				
					<linearGradient id="SVGID_00000000942692341951989720000009055310876839294607_" gradientUnits="userSpaceOnUse" x1="1697.9137" y1="2143.0586" x2="1812.783" y2="2658.1743" gradientTransform="matrix(1 0 0 1 1290.1023 0)">
					<stop  offset="0" style="stop-color:#FDF53F"/>
					<stop  offset="1" style="stop-color:#D93C65"/>
				</linearGradient>
				<path style="fill:url(#SVGID_00000000942692341951989720000009055310876839294607_);" d="M2753.58,2074.53
					c-7.32,1.11-12.14,8.22-10.47,15.43l69.58,300.41c1.64,7.1,8.91,11.36,15.91,9.34l411.04-118.68c6.61-1.91,10.5-8.72,8.78-15.38
					l-63.21-245.22c-1.63-6.31-7.77-10.37-14.22-9.39L2753.58,2074.53z"/>
			</g>
			
				<linearGradient id="SVGID_00000011721006812407096210000003066058086630509451_" gradientUnits="userSpaceOnUse" x1="1356.9235" y1="1804.6687" x2="2105.3667" y2="2203.1208" gradientTransform="matrix(1 0 0 1 1290.1023 0)">
				<stop  offset="0" style="stop-color:#CB236D"/>
				<stop  offset="1" style="stop-color:#4C246D"/>
			</linearGradient>
			<path style="fill:url(#SVGID_00000011721006812407096210000003066058086630509451_);" d="M3086.31,2189.1
				c31.9-240.99-153.81-426.29-153.81-426.29l-110.49,128.81c83.89,104.56,123.77,200.38,141.98,275.64
				C2988.15,2160.22,3046.31,2149.11,3086.31,2189.1z"/>
			
				<linearGradient id="SVGID_00000137119765346884355320000009098095315974406587_" gradientUnits="userSpaceOnUse" x1="3282.1306" y1="1584.2676" x2="2762.1182" y2="2179.1628">
				<stop  offset="0" style="stop-color:#CB236D"/>
				<stop  offset="1" style="stop-color:#4C246D"/>
			</linearGradient>
			<path style="fill:url(#SVGID_00000137119765346884355320000009098095315974406587_);" d="M2963.98,2174.1
				c-3.08,0-5.89-2.1-6.65-5.23c-22.45-92.77-69.78-184.61-140.67-272.97c-2.37-2.95-1.89-7.26,1.05-9.62
				c2.94-2.36,7.26-1.89,9.62,1.06c72.15,89.94,120.36,183.58,143.3,278.31c0.89,3.68-1.37,7.37-5.04,8.26
				C2965.06,2174.04,2964.52,2174.1,2963.98,2174.1z"/>
			
				<linearGradient id="SVGID_00000129186566359983117810000013129549617311666864_" gradientUnits="userSpaceOnUse" x1="1731.2771" y1="2200.3953" x2="1556.2817" y2="2536.9253" gradientTransform="matrix(1 0 0 1 1290.1023 0)">
				<stop  offset="0" style="stop-color:#F9B776"/>
				<stop  offset="1" style="stop-color:#F47960"/>
			</linearGradient>
			<path style="fill:url(#SVGID_00000129186566359983117810000013129549617311666864_);" d="M2963.99,2167.26
				c16.93,69.95,15.15,122.13,12.58,147.05c-0.97,9.39-8.52,16.73-17.94,17.39c-10.7,0.75-25.27,1.73-38.28,2.48
				c-14.31,0.82-30.19-8.22-40.8-15.77c-5.42-3.86-12.43,2.15-9.41,8.07c7.92,15.51,28.04,29.31,41.9,37.42
				c5.04,2.95,4.1,10.49-1.53,12.09l-59.29,16.8c97.42,91.77,161.73-10.91,161.73-10.91c43-66.45,65.23-131.42,73.36-192.78
				C3046.31,2149.11,2988.15,2160.22,2963.99,2167.26z"/>
			<g>
				
					<linearGradient id="SVGID_00000024687894994867228360000016021333583001226396_" gradientUnits="userSpaceOnUse" x1="4760.6201" y1="5318.4399" x2="4567.0815" y2="5574.4756" gradientTransform="matrix(-0.6854 -0.7281 -0.7281 0.6854 9787.373 1318.7853)">
					<stop  offset="0" style="stop-color:#F9B776"/>
					<stop  offset="1" style="stop-color:#F47960"/>
				</linearGradient>
				<path style="fill:url(#SVGID_00000024687894994867228360000016021333583001226396_);" d="M2626.87,1469.42
					c-1.86,1.75-78.41,152.08-78.41,152.08l86.76,41.88l93.72-131.7C2728.95,1531.68,2657.97,1440.14,2626.87,1469.42z"/>
				
					<linearGradient id="SVGID_00000106856653107028592120000001151847671937289618_" gradientUnits="userSpaceOnUse" x1="4612.811" y1="5379.9272" x2="4843.9956" y2="5379.9272" gradientTransform="matrix(-0.6854 -0.7281 -0.7281 0.6854 9787.373 1318.7853)">
					<stop  offset="0" style="stop-color:#2B3582"/>
					<stop  offset="1" style="stop-color:#150E42"/>
				</linearGradient>
				<path style="fill:url(#SVGID_00000106856653107028592120000001151847671937289618_);" d="M2689.52,1547.48l-43.27,72.13
					c-0.66,1.09-1.44,2.08-2.37,2.95c-5.15,4.79-22.78,18.74-36.4-0.25c-11.61-16.18-22.51-30.9-34.18-36.96
					c-6.82-3.54-15.21-0.71-18.67,6.15c-7.13,14.13-20.94,42.94-29.61,70.25c-2.17,6.85,1.36,14.2,8.02,16.89
					c17.57,7.12,52.29,19.99,83.1,24.24c5.06,0.7,10.07-1.44,13.08-5.56c13.26-18.16,50.62-68.91,63.37-81.61
					c11.85-11.8,33.71-7.35,43.56-4.52c3.74,1.07,7.72,0.56,11.06-1.45c10-6.02,27.44-21.01,11.48-46.4
					c-3.97-6.31-1.94-14.72,4.28-18.81c11.16-7.34,23.27-21.12,11.73-43.44c-11.68-22.59-32.54-24.62-46.74-22.88
					c-6.29,0.77-12.67-2.53-15.08-8.38c-1.07-2.6-3.19-4.82-7.14-5.62c-7.45-1.51-12.33-8.32-10.87-15.78
					c2.5-12.78,0.62-29.39-19.79-40.61c-37.44-20.58-70.23,12.95-78.56,41.27c-8.34,28.31,33.52,48.32,59.85,51.66
					c19.34,2.45,29.94,23.56,34.21,34.59C2692.11,1539.33,2691.73,1543.8,2689.52,1547.48z"/>
				
					<linearGradient id="SVGID_00000119108876516625335980000013800186073246619797_" gradientUnits="userSpaceOnUse" x1="4477.1626" y1="5521.2002" x2="4632.3955" y2="5361.9351" gradientTransform="matrix(-0.6854 -0.7281 -0.7281 0.6854 9787.373 1318.7853)">
					<stop  offset="0" style="stop-color:#F9B776"/>
					<stop  offset="1" style="stop-color:#F47960"/>
				</linearGradient>
				<path style="fill:url(#SVGID_00000119108876516625335980000013800186073246619797_);" d="M2676.32,1642.2
					c0,0,16.65-48.71,37.96-46.92s38.08,23.02,11.67,46.88C2693.1,1671.84,2676.32,1642.2,2676.32,1642.2z"/>
			</g>
			<g>
				
					<linearGradient id="SVGID_00000081619643778889339050000005024421516624327356_" gradientUnits="userSpaceOnUse" x1="1937.8171" y1="3164.0037" x2="1937.8171" y2="3652.1211" gradientTransform="matrix(-1 0 0 1 4753.7588 0)">
					<stop  offset="0" style="stop-color:#2B3582"/>
					<stop  offset="1" style="stop-color:#150E42"/>
				</linearGradient>
				<path style="fill:url(#SVGID_00000081619643778889339050000005024421516624327356_);" d="M2702.48,3590.17
					c41.2,3.56,112.71,9.35,169.09,11.83c33.89,1.49,53.4-1.83,64.63-6.32c-0.02,1.27-0.05,2.46-0.1,3.57
					c-0.27,5.93-5.09,10.68-11.08,11.01c-106.52,5.95-191.24,2.06-221.4,0.22c-6.24-0.38-9.95-7.16-6.76-12.47
					C2698.45,3595.35,2700.38,3592.75,2702.48,3590.17z"/>
				
					<linearGradient id="SVGID_00000065793405437296028670000003419815826562844808_" gradientUnits="userSpaceOnUse" x1="1817.5454" y1="3554.6658" x2="2051.2832" y2="3554.6658" gradientTransform="matrix(-1 0 0 1 4753.7588 0)">
					<stop  offset="0" style="stop-color:#CB236D"/>
					<stop  offset="1" style="stop-color:#4C246D"/>
				</linearGradient>
				<path style="fill:url(#SVGID_00000065793405437296028670000003419815826562844808_);" d="M2871.56,3602
					c-56.38-2.48-127.89-8.27-169.09-11.83c40.51-49.7,169.09-83.2,169.09-83.2h36.32c24.98,36,28.59,70.28,28.32,88.7
					C2924.96,3600.17,2905.45,3603.49,2871.56,3602z"/>
				
					<linearGradient id="SVGID_00000054980926169384661950000014867708055898358416_" gradientUnits="userSpaceOnUse" x1="1839.7643" y1="3488.8545" x2="1907.5128" y2="3488.8545" gradientTransform="matrix(-1 0 0 1 4753.7588 0)">
					<stop  offset="0" style="stop-color:#F9B776"/>
					<stop  offset="1" style="stop-color:#F47960"/>
				</linearGradient>
				<path style="fill:url(#SVGID_00000054980926169384661950000014867708055898358416_);" d="M2913.99,3447.69l-3.4,67.25
					c-0.37,7.28-5.82,13.4-13.11,14.44c-7.26,1.04-16.97,1.17-27.28-2.26c-6.34-2.11-11.05-7.45-12.22-13.97l-11.74-65.46H2913.99z"
					/>
			</g>
			<g>
				<g>
					
						<linearGradient id="SVGID_00000090288822063112831820000015221797270382504866_" gradientUnits="userSpaceOnUse" x1="1384.1552" y1="3164.0039" x2="1384.1552" y2="3652.1213" gradientTransform="matrix(-1 0 0 1 4753.7588 0)">
						<stop  offset="0" style="stop-color:#2B3582"/>
						<stop  offset="1" style="stop-color:#150E42"/>
					</linearGradient>
					<path style="fill:url(#SVGID_00000090288822063112831820000015221797270382504866_);" d="M3385.68,3601.49
						c17.87-2.49,25.95-11.77,29.34-21.7c0.02,0.09,0.05,0.18,0.07,0.27c2.63,10.47-3.47,21.32-15.65,26.48
						c-14.73,6.24-30.83,7.3-43.33,6.78c-13.41-0.55-25.72-6.1-32.49-14.98l-0.1-0.13
						C3336.98,3604.87,3355.88,3605.65,3385.68,3601.49z"/>
					
						<linearGradient id="SVGID_00000009585239457472179550000011237024740571791244_" gradientUnits="userSpaceOnUse" x1="1338.7415" y1="3525.6487" x2="1474.028" y2="3525.6487" gradientTransform="matrix(-1 0 0 1 4753.7588 0)">
						<stop  offset="0" style="stop-color:#CB236D"/>
						<stop  offset="1" style="stop-color:#4C246D"/>
					</linearGradient>
					<path style="fill:url(#SVGID_00000009585239457472179550000011237024740571791244_);" d="M3301.43,3447.25h29.95
						c45.62-0.93,74.26,95.28,83.64,132.54c-3.39,9.92-11.47,19.21-29.34,21.7c-29.8,4.16-48.7,3.37-62.16-3.29
						c-24.64-32.43-36.86-79.93-42.74-107.65C3274.1,3459.03,3301.43,3447.25,3301.43,3447.25z"/>
				</g>
				
					<linearGradient id="SVGID_00000153680424628086915040000018126992749814587820_" gradientUnits="userSpaceOnUse" x1="1409.0607" y1="3432.3772" x2="1490.0269" y2="3432.3772" gradientTransform="matrix(-1 0 0 1 4753.7588 0)">
					<stop  offset="0" style="stop-color:#F9B776"/>
					<stop  offset="1" style="stop-color:#F47960"/>
				</linearGradient>
				<path style="fill:url(#SVGID_00000153680424628086915040000018126992749814587820_);" d="M3327.53,3384.84l16.63,66.14
					c2.04,8.11-1.84,16.5-9.34,20.35c-9.3,4.77-22.4,9.79-34.44,8.34c-5.66-0.68-10.36-4.67-12.23-10l-24.41-69.59L3327.53,3384.84z
					"/>
			</g>
			
				<linearGradient id="SVGID_00000128478205091784966280000013923528432226375552_" gradientUnits="userSpaceOnUse" x1="3759.3997" y1="1044.1682" x2="2860.8679" y2="3377.8594">
				<stop  offset="0" style="stop-color:#53D8FF"/>
				<stop  offset="0.2057" style="stop-color:#4DB9FD"/>
				<stop  offset="1" style="stop-color:#3840F7"/>
			</linearGradient>
			<path style="fill:url(#SVGID_00000128478205091784966280000013923528432226375552_);" d="M3347.36,3403.95
				c-20.69,18.35-87.99,20.78-87.99,20.78c-242.41-581.82-343.48-741.99-343.48-741.99c35,219.61,7.54,783.3,7.54,783.3
				c-40,17.65-91.58,0-91.58,0c-3.25-359.52-53.87-745.85-119.15-993.03c163.84-3.68,252.89-39.4,281.34-61.9
				C3130.63,2631.29,3347.36,3403.95,3347.36,3403.95z"/>
		</g>
	</g>
</g>
</svg>
