<?xml version="1.0" encoding="utf-8"?>
<!-- Generator: Adobe Illustrator 27.5.0, SVG Export Plug-In . SVG Version: 6.00 Build 0)  -->
<svg version="1.1" id="Layer_1" xmlns="http://www.w3.org/2000/svg" xmlns:xlink="http://www.w3.org/1999/xlink" x="0px" y="0px"
	 viewBox="0 0 899.999 900" style="enable-background:new 0 0 899.999 900;" xml:space="preserve">
<path style="fill:#CCDEF2;" d="M833.937,747.331c0-3.623-3.619-6.588-8.042-6.588H86.108c-4.423,0-8.042,2.964-8.042,6.588
	c0,3.623,3.619,6.588,8.042,6.588h739.786C830.318,753.919,833.937,750.955,833.937,747.331z"/>
<g>
	<g>
		<g>
			<rect x="127.138" y="663.997" style="fill:#8C6320;" width="399.484" height="50.638"/>
			<path style="fill:#333332;" d="M555.211,629.559c0.456,0,0.928,0.024,1.385,0.049c20.754,1.116,37.354,27.391,37.354,59.682
				c0,32.994-17.34,59.754-38.739,59.754h-30.48V629.607L555.211,629.559z"/>
			<g>
				<path style="fill:#BCBDBF;" d="M524.732,738.298c-14.159,0-26.954-20.939-27.94-45.724c-0.047-1.231-0.069-2.311-0.069-3.285
					c0-26.095,13.088-48.985,28.009-48.985c0.264,0,0.536,0.018,0.8,0.033c13.137,0.706,27.193,20.545,27.193,48.952
					C552.725,715.397,539.644,738.298,524.732,738.298L524.732,738.298z"/>
				<g>
					<path style="fill:#21211F;" d="M524.649,651.052c0.1,0.004,0.202,0.01,0.313,0.016c2.714,0.146,6.408,3.332,9.411,8.115
						c4.833,7.7,7.605,18.673,7.605,30.106c0,11.688-2.875,22.827-7.887,30.56c-3.033,4.679-6.707,7.702-9.359,7.702
						c-5.36,0-16.291-12.497-17.2-35.374c-0.042-1.108-0.063-2.053-0.063-2.888c0-11.682,2.875-22.813,7.889-30.539
						C518.362,654.121,521.997,651.113,524.649,651.052L524.649,651.052z M524.731,629.559c-21.399,0-38.755,26.736-38.755,59.731
						c0,1.237,0.032,2.475,0.079,3.711c1.243,31.272,18.079,56.043,38.676,56.043c21.399,0,38.739-26.76,38.739-59.754
						c0-32.292-16.6-58.566-37.354-59.682C525.66,629.583,525.188,629.559,524.731,629.559L524.731,629.559z"/>
				</g>
			</g>
			<path style="fill:#8C6320;" d="M170.481,693.009c-1.416-33.723-18.127-61.016-39.557-65.505
				c-2.046-0.461-4.154-0.679-6.278-0.679h-26.97v66.183H170.481z"/>
			<g>
				<g>
					<path style="fill:#738086;" d="M522.975,626.187c-4.961,0-9.209-3.764-9.71-8.805c-0.073-0.737-7.472-74.528-21.013-147.273
						c-25.313-135.979-47.583-139.905-50.039-139.905c-5.395,0-9.77-4.374-9.77-9.769c0-5.395,4.374-9.769,9.77-9.769
						c16.74,0,30.563,16.749,43.498,52.71c9.009,25.043,17.679,59.786,25.768,103.264c13.686,73.554,21.154,148.07,21.229,148.814
						c0.532,5.369-3.388,10.153-8.757,10.686C523.624,626.171,523.297,626.187,522.975,626.187z"/>
				</g>
				<g>
					<rect x="298.42" y="321.646" style="fill:#738086;" width="20.752" height="226.841"/>
				</g>
				<g>
					<path style="fill:#485959;" d="M509.14,626.187c-4.961,0-9.209-3.764-9.71-8.805c-0.073-0.737-7.472-74.528-21.013-147.273
						c-25.313-135.979-47.583-139.905-50.039-139.905H264.623c-5.396,0-9.77-4.374-9.77-9.769c0-5.395,4.374-9.769,9.77-9.769
						h163.755c16.74,0,30.563,16.749,43.498,52.71c9.009,25.043,17.679,59.786,25.768,103.264
						c13.686,73.554,21.154,148.07,21.229,148.814c0.532,5.369-3.388,10.153-8.757,10.686
						C509.789,626.171,509.462,626.187,509.14,626.187z"/>
				</g>
				<g>
					<rect x="298.42" y="324.073" style="fill:#485959;" width="20.752" height="41.243"/>
				</g>
				<path style="fill:#FFC943;" d="M253.234,642.063v50.946l254.581,0c-0.047-1.262,2.594-2.475,2.594-3.711
					c0-42.336-0.445-32.944,27.012-32.944c0.456,0,0.912,0.024,1.385,0.049v-43.454h-46.701l-113.344,0L253.234,642.063z"/>
				<path style="fill:#FFC943;" d="M253.232,637.646c0,13.344,7.081,24.261,15.735,24.261l106.701-17.589
					c8.654,0,29.328,10,22.816,1.213l-69.455-103.953c-6.513-8.787-18.922-15.976-27.577-15.976H132.496
					c-8.654,0-15.735,10.917-15.735,24.261L253.232,637.646z"/>
				<path style="fill:#8D7120;" d="M326.134,693.009c-1.416-33.722-18.127-61.016-39.557-65.505
					c-2.046-0.461-4.154-0.679-6.278-0.679l-26.97,0v66.183H326.134z"/>
				<polygon style="fill:#8C6320;" points="517.549,698.548 383.003,698.548 377.464,617.304 517.549,622.843 				"/>
				<path style="fill:#FF573B;" d="M490.738,365.284h22.831c2.432,0,4.422-3.068,4.422-6.818l0-35.593
					c0-3.75-1.99-6.818-4.422-6.818h-22.831V365.284z"/>
				<path style="fill:#D33131;" d="M489.112,365.284h5.65c2.432,0,4.422-3.068,4.422-6.818l0-35.593c0-3.75-1.99-6.818-4.422-6.818
					h-5.65V365.284z"/>
				<path style="fill:#3B3F42;" d="M490.608,316.055h-10.481c-2.596,0-4.72,3.275-4.72,7.278v34.774c0,4.003,2.124,7.278,4.72,7.278
					h10.481V316.055z"/>
				<rect x="395.927" y="617.304" style="fill:#8D7120;" width="26.589" height="75.705"/>
			</g>
			<g>
				<g>
					<path style="fill:#3C4949;" d="M356.073,594.363c-2.146,0.121-4.159-1.519-4.475-3.645l-16.363-110.339
						c-0.315-2.126,1.185-3.865,3.334-3.865h74.465c2.149,0,4.984,1.391,6.299,3.09l22.535,29.118
						c1.315,1.7,2.581,4.839,2.812,6.975l7.507,69.339c0.231,2.137-1.335,3.984-3.481,4.105L356.073,594.363z"/>
					<path style="fill:#333332;" d="M152.476,646.326c0.271-0.02,0.555-0.02,0.825-0.02c18.4,0,33.31,22.988,33.31,51.359
						c0,1.063-0.027,2.128-0.068,3.191c-1.069,26.889-15.532,48.188-33.242,48.188h-24.644V646.306L152.476,646.326z"/>
					<g>
						<path style="fill:#BCBDBF;" d="M128.657,738.298c-10.678,0-22.576-16.688-22.576-40.633c0-11.49,2.776-22.196,7.819-30.146
							c2.407-3.795,7.47-10.2,14.33-10.454l0.267-0.012l0.16,0c10.672,0,22.564,16.679,22.564,40.612
							c0,0.929-0.024,1.858-0.06,2.787C150.346,720.956,140.04,738.298,128.657,738.298z"/>
						<g>
							<path style="fill:#21211F;" d="M128.706,667.8c0.643,0.065,2.949,1.345,5.475,5.241c4,6.168,6.294,15.143,6.294,24.623
								c0,0.68-0.017,1.454-0.051,2.338c-0.355,8.917-2.769,17.252-6.624,22.867c-2.643,3.85-4.76,4.683-5.143,4.683
								c-0.567,0-2.93-1.245-5.53-5.254c-4.004-6.174-6.301-15.153-6.301-24.633c0-9.34,2.241-18.23,6.147-24.389
								c2.81-4.43,5.211-5.456,5.655-5.472L128.706,667.8L128.706,667.8z M128.658,646.306c-0.271,0-0.555,0-0.825,0.02
								c-18.021,0.668-32.498,23.385-32.498,51.338c0,28.369,14.923,51.379,33.323,51.379c17.71,0,32.173-21.299,33.242-48.188
								c0.041-1.063,0.068-2.128,0.068-3.191C161.967,669.294,147.058,646.306,128.658,646.306L128.658,646.306z"/>
						</g>
					</g>
					<rect x="426.879" y="282.362" style="fill:#738086;" width="32.601" height="445.655"/>
					<rect x="232.41" y="520.587" style="fill:#333332;" width="63.239" height="21.835"/>
					<path style="fill:#3C4949;" d="M234.653,402.583c-3.777,0-6.599,3.17-6.27,7.045l5.992,70.629
						c0.329,3.875,3.277,7.045,6.551,7.045c3.274,0,6.638-3.107,7.476-6.904l7.808-35.398c0.838-3.797,0.202-9.799-1.413-13.336
						l-10.339-22.65C242.842,405.478,238.431,402.583,234.653,402.583z"/>
					<path style="fill:#738086;" d="M204.451,607.96c0,10.746,8.792,19.538,19.538,19.538h100.27
						c10.746,0,19.538-8.792,19.538-19.538v-53.115c0-10.746-8.792-19.538-19.538-19.538H223.99
						c-10.746,0-19.538,8.792-19.538,19.538L204.451,607.96z"/>
					<polygon style="opacity:0.4;fill:#21211F;" points="335.527,597.849 259.434,556.776 244.735,611.251 336.391,606.063 					"/>
					<path style="fill:#738086;" d="M243.732,402.583c-3.777,0-6.599,3.17-6.27,7.045l5.992,70.629
						c0.329,3.875,3.277,7.045,6.551,7.045c3.274,0,6.639-3.107,7.476-6.904l7.808-35.398c0.838-3.797,0.202-9.799-1.413-13.336
						l-10.339-22.65C251.921,405.478,247.509,402.583,243.732,402.583z"/>
					<g>
						<rect x="142.767" y="321.645" style="fill:#485959;" width="20.752" height="226.842"/>
					</g>
					<path style="fill:#485959;" d="M189.548,402.929c-3.889,0-6.801,3.17-6.473,7.045l5.992,70.629
						c0.329,3.875,3.779,7.045,7.668,7.045l35.742,0c3.889,0,7.267-3.176,7.507-7.057l2.171-35.093
						c0.24-3.881-0.296-10.153-1.191-13.937l-5.146-21.753c-0.895-3.784-4.809-6.88-8.698-6.88H189.548z"/>
					<path style="fill:#738086;" d="M194.445,402.583c-3.777,0-6.599,3.17-6.27,7.045l5.992,70.629
						c0.329,3.875,3.277,7.045,6.551,7.045c3.274,0,6.639-3.107,7.476-6.904l7.808-35.398c0.838-3.797,0.202-9.799-1.413-13.336
						l-10.339-22.65C202.634,405.478,198.222,402.583,194.445,402.583z"/>
					<path style="fill:#738086;" d="M228.501,520.297c3.516,2.473,9.909,4.496,14.208,4.496h51.501c4.298,0,7.815-3.517,7.815-7.815
						v-2.727c0-4.298-3.437-8.561-7.638-9.471l-51.856-11.245c-4.201-0.911-11.155-1.656-15.453-1.656h-31.165
						c-4.298,0-4.939,2.023-1.423,4.496L228.501,520.297z"/>
					<g>
						<path style="fill:#FFF1AA;" d="M229.441,348.702c0.486-2.22,2.185-5.48,7.595-5.931c5.41-0.451,5.584,3.919,5.098,4.717
							c-0.486,0.798-1.977,2.567-1.977,2.567l-5.098,1.144L229.441,348.702z"/>
						<g>
							<g>
								<path style="fill:#FFA68A;" d="M252.155,421.471l8.91,15.869l4.806,8.558l5.443,8.678c1.201,2.147,3.327,3.723,5.693,4.427
									c1.523,0.453,3.149,0.545,4.694,0.198l35.542-8.309c2.833-0.644,4.612-3.456,3.975-6.292
									c-0.644-2.833-3.46-4.614-6.292-3.975l-34.807,8.144l-7.92-13.09l-1.268-2.258l-9.601-17.103
									c-1.424-2.531-4.634-3.431-7.164-2.012C251.632,415.73,250.731,418.94,252.155,421.471z"/>
								<polygon style="fill:#E5785C;" points="261.066,437.341 265.872,445.899 272.2,435.681 270.932,433.423 267.599,431.09 
																	"/>
							</g>
							<path style="fill:#FFE02C;" d="M261.791,416.171c1.889,3.251,10.251,19.182,10.251,19.182l-12.445,8.224l-9.254-14.348
								L261.791,416.171z"/>
							<g>
								<g>
									<g>
										<g>
											<path style="fill:#FFE536;" d="M263.291,486.434c0,0,0.111-0.194,0.233-0.455
												C263.563,486.246,263.291,486.434,263.291,486.434z"/>
											<path style="fill:#F5A838;" d="M265.491,426.909c0,0-0.277,13.128-0.61,28.193c-0.276,13.682-0.054,11.965-0.886,21.493
												c-0.111,1.439-0.166,2.991-0.166,4.376c0,1.882,0.111,3.432,0.055,3.876c0,0.333-0.222,0.776-0.388,1.109
												c-0.054-0.665-2.16-1.882-16.229-1.774c-22.986,0.168-32.126-8.53-32.126-8.53l-0.054-52.342
												c0-2.713,0.719-4.984,2.049-6.648l13.626,13.737l1.773,1.828l2.659-10.08l-7.146-9.693
												c0.555-0.222,1.163-0.333,1.773-0.333l23.042,0c0.333,0,0.665,0,0.998,0.054c0.331,0,0.608,0.057,0.886,0.114
												c1.496,0.219,2.825,0.774,4.043,1.493c0.111,0.057,0.222,0.168,0.388,0.222
												C263.055,416.551,265.491,421.481,265.491,426.909z"/>
											<path style="fill:#FFE02C;" d="M265.491,426.909c0,0-0.277,13.128-0.61,28.193c-0.276,13.682-0.054,11.965-0.886,21.493
												c-0.111,1.439-0.166,2.991-0.166,4.376l-33.068-50.573l1.773,1.828l2.659-10.08l-7.146-9.693
												c0.555-0.222,1.163-0.333,1.773-0.333l23.042,0c0.333,0,0.665,0,0.998,0.054c0.331,0,0.608,0.057,0.886,0.114
												c1.496,0.219,2.825,0.774,4.043,1.493c0.111,0.057,0.222,0.168,0.388,0.222
												C263.055,416.551,265.491,421.481,265.491,426.909z"/>
											<path style="fill:#177FBF;" d="M264.107,476.484v1.772c0,0.057,0,0.057,0,0.111v24.428h-49.019v-26.7
												c0.054-0.33,0.054-0.552,0.054-0.719c0,0.665,15.953,1.496,15.953,1.496c1.606-0.554,2.603-1.439,2.603-2.713
												c0-8.365-0.166-21.826,0-30.521c0.111-4.154,0.055-2.326,0.055-4.319h28.359v37.553L264.107,476.484z"/>
											<path style="fill:#F7C52C;" d="M238.313,422.146l-5.779,10.08l-15.399-15.565c1.717-2.326,4.598-3.6,8.253-3.6
												c0.83,0,1.717-0.387,2.659-0.609L238.313,422.146z"/>
										</g>
										<path style="fill:#177FBF;" d="M229.948,411.917c8.173,0,9.965,19.373,9.856,27.974l-2.818,0.148l-3.225-0.149
											c0.109-8.601-1.092-28.078-10.391-26.689c0,0,1.404-0.689,2.834-0.893C227.633,412.105,229.948,411.917,229.948,411.917z"
											/>
										<path style="fill:#177FBF;" d="M248.386,413.356c0.556,0.203,1.072,0.522,1.555,0.937
											c5.058,4.348,6.319,19.339,6.232,26.155l3.502-0.275l2.425,0.275c0.092-7.024-1.087-21.846-5.971-27.049
											c-0.43-0.454-0.884-0.831-1.367-1.126c-0.763-0.469-1.599-0.725-2.517-0.725c0,0-2.198-0.217-3.628-0.015
											c-0.053,0.01-0.106,0.019-0.155,0.024v1.212C248.464,412.772,248.469,413.009,248.386,413.356z"/>
									</g>
								</g>
								<g style="opacity:0.5;">
									<path style="fill:#27A3E0;" d="M239.913,447.338c0,0,0,2.435,0,5.41c0,2.976,2.497,5.41,5.549,5.411l5.826,0
										c3.052,0,5.549-2.435,5.549-5.41c0-2.976,0-5.41,0-5.41L239.913,447.338z"/>
								</g>
								<path style="opacity:0.5;fill:#E09F2B;" d="M247.464,413.806c0,0.604-0.845,2.657,1.087,1.208
									c0.353-0.266,0.826-0.507,1.391-0.72c1.618-0.618,3.961-0.99,6.188-0.893c0.932,0.039,1.845,0.16,2.676,0.382
									c-1.217-0.744-2.575-1.266-4.043-1.507c-0.763-0.469-1.599-0.725-2.517-0.725c0,0-2.198-0.217-3.628-0.015
									c-0.053,0.01-0.106,0.019-0.155,0.024v0.541h-1.27C247.333,413.061,247.464,413.806,247.464,413.806z"/>
							</g>
							<rect x="239.913" y="445.118" style="fill:#16569B;" width="16.924" height="3.374"/>
							
								<ellipse transform="matrix(0.9393 -0.343 0.343 0.9393 -132.2689 132.4053)" style="fill:none;stroke:#3C4949;stroke-width:10.7591;stroke-linecap:round;stroke-linejoin:round;stroke-miterlimit:10;" cx="308.21" cy="440.161" rx="26.429" ry="16.018"/>
						</g>
						<path style="fill:#D88916;" d="M224.099,365.626c-3.052,4.023-4.809,7.755-4.162,10.127c0.832,3.052,5.271,2.22,23.445,1.249
							c18.173-0.971,25.942-6.612,22.196-16.092C263.339,355.242,224.099,365.626,224.099,365.626z"/>
						<g>
							<path style="fill:#8E3925;" d="M222.357,376.814c0.812,11.305,3.606,14.359,8.024,14.359c3.624,0,6.627-5.003,6.497-6.172
								c-0.13-1.169-1.429-8.056-2.469-8.446C233.369,376.164,222.357,376.814,222.357,376.814z"/>
							<path style="fill:#8E3925;" d="M232.7,388.766c-0.718-1.442-1.16,3.139-1.17,2.592c-0.184-9.624-8.426-2.459-9.076-13.114
								c-0.554-9.086-0.632-9.165-0.877-13.579c-0.487-8.771,4.608-18.077,23.354-17.932c10.436,0.08,13.113,4.133,15.466,9.448
								c4.383,9.9,0.844,22.617,0.844,22.617L232.7,388.766z"/>
							<path style="fill:#FFB287;" d="M249.571,412.773c0,0,0.143,3.703-5.89,3.703c-6.033,0-9.789-3.703-9.789-3.703v-18.373
								l15.679-0.868L249.571,412.773z"/>
							<path style="fill:#E5785C;" d="M249.571,408.841c-4.108,0.502-15.568-0.97-15.568-3.669s-0.111-14.674-0.111-14.674
								l15.679,0.107L249.571,408.841z"/>
							<path style="fill:#E5785C;" d="M263.117,384.618c0,3.611-3.147,11.933-5.1,14.423c-0.833,1.062-1.983,3.475-4.627,4.276
								c-2.406,0.729-3.829,1.243-3.829,2.542c0,1.41-2.961-1.324-3.972-1.324c-12.018,0-17.958-12.946-17.958-21.766l3.704-11.569
								c0-9.655,6.408-16.595,15.734-16.523c9.326,0.072,16.835,6.431,16.835,16.086L263.117,384.618z"/>
							<path style="fill:#FFB287;" d="M264.146,370.388l-0.122,3.835l-0.072,2.181l-0.261,8.224
								c-0.355,10.127-2.63,19.483-14.927,19.383c-12.274-0.083-15.565-14.944-15.232-24.578l0.583-8.379
								c0-0.35,0-0.705,0.022-1.038c0.25-12.569,5.355-17.175,14.378-17.174c11.27,0,15.282,6.61,15.626,15.127
								C264.174,368.762,264.174,369.567,264.146,370.388z"/>
							<g>
								<path style="fill:#E5785C;" d="M253.209,386.952c1.75,0.002,3.239-0.986,3.162-1.995c-0.028-0.367-0.395-0.81-1.081-0.487
									c-0.315,0.148-1.166,0.322-2.07,0.316c-0.904-0.006-1.395-0.187-1.906-0.341c-1.113-0.334-1.464,0.104-1.493,0.471
									C249.745,385.923,251.458,386.932,253.209,386.952z"/>
							</g>
							<path style="fill:#E5785C;" d="M233.714,378.551c0.255,3.598-1.574,6.689-4.086,6.903c-2.512,0.214-4.755-2.529-5.01-6.127
								c-0.255-3.598,1.145-6.4,3.633-6.844C230.738,372.04,233.459,374.953,233.714,378.551z"/>
							<path style="fill:#422B27;stroke:#422B27;stroke-width:1.1078;stroke-miterlimit:10;" d="M244.346,377.756
								c0,0.855,0.699,1.553,1.56,1.56c0.862,0.007,1.56-0.681,1.56-1.536c0-0.855-0.699-1.553-1.56-1.56
								C245.045,376.214,244.346,376.901,244.346,377.756z"/>
							<path style="fill:#422B27;stroke:#422B27;stroke-width:1.1078;stroke-miterlimit:10;" d="M258.126,377.996
								c0,0.855,0.699,1.553,1.56,1.56c0.862,0.007,1.56-0.681,1.56-1.536c0-0.855-0.699-1.553-1.56-1.56
								C258.825,376.453,258.126,377.141,258.126,377.996z"/>
							<path style="fill:#8E3925;" d="M229.933,369.742c0-5.468,2.449-10.353,6.266-13.549c-1.84-2.286-2.508-5.704-2.115-6.018
								c0.65-0.52,9.073-6.78,19.013-1.03c6.807,3.938,9.922,6.581,8.757,9.375c0.015,0.032,0.031,0.063,0.045,0.095
								c-0.019-0.02-0.039-0.041-0.059-0.061c-1.053,2.484-3.393,4.096-5.472,4.096c-8.706,0-8.521-5.112-15.008-4.613
								c-2.534,0.195-6.024,0.838-6.024,7.172c0,6.871-1.483,15.001-1.527,15.004c-2.038,0.132-2.065-1.191-2.065-1.191
								c0-3.638-0.545-5.674-2.859-6.757L229.933,369.742z"/>
						</g>
						<g>
							<path style="fill:#E5785C;" d="M251.746,394.832h-0.015c-2.439-0.001-4.166-0.347-5.134-1.028
								c-0.482-0.338-0.597-1.002-0.259-1.483c0.339-0.481,1.005-0.596,1.483-0.258c0.568,0.4,2.03,0.639,3.911,0.64
								c0.004,0,0.008,0,0.008,0c1.027,0,2.472-0.067,3.276-0.635c0.48-0.34,1.144-0.225,1.484,0.255
								c0.339,0.48,0.225,1.145-0.256,1.484C254.962,394.714,253.169,394.832,251.746,394.832z"/>
						</g>
						<path style="opacity:0.6;fill:#C67560;" d="M264.166,369.218c0-0.039-0.001-0.078-0.001-0.117
							c-0.032-9.054-3.884-16.261-15.649-16.261c-9.024,0-13.194,7.702-13.896,20.739c0.153-1.849,3.38-2.517,7.63-3.191
							c17.781-0.969,21.475,5.267,21.475,5.267l0.37-3.652l0.053-1.614C264.161,369.995,264.166,369.605,264.166,369.218z"/>
						<g>
							<path style="fill:#754559;" d="M222.283,375.821c0,0.785-1.208-0.604-1.411-1.219c-0.288-0.873-0.694-1.687-0.061-2.354
								c0.337-0.355,8.515-8.703,30.617-8.703c9.662,0,12.536,0.901,13.456,3.885c0.913,2.962-0.913,5.48-0.832,4.994
								c0.139-0.832,0.277-2.705-0.486-3.676c-0.013-0.016-0.945-1.873-12.139-1.873c-20.687-0.001-28.13,7.589-28.202,7.666
								C222.898,374.885,222.223,375.398,222.283,375.821z"/>
						</g>
						<path style="fill:#F7C52C;" d="M264.962,364.517c-0.793-0.605-1.598-0.721-3.241-0.699c-0.599,0.005-1.315,0.033-2.181,0.061
							c-1.16,0.039-2.597,0.078-4.4,0.078c-7.719,0-15.604,1.126-21.946,3.052c-6.415,1.936-11.248,5.205-12.913,8.051
							c-0.499,0.366-1.065-3.202-1.359-6.909c-0.094-1.221-0.161-2.458-0.183-3.579c-0.017-0.25-0.017-0.489-0.017-0.727
							c0-1.776,0.222-3.54,0.66-5.238c1.654-6.259,6.404-11.736,14.76-14.339c0.949-0.3,1.942-0.56,2.98-0.777
							c0.577-0.122,1.171-0.233,1.781-0.327c0.044,0,0.089-0.028,0.089-0.028c1.226-0.183,2.475-0.316,3.801-0.41
							c0.072-0.006,0.144-0.011,0.222-0.017c0.499-0.028,0.977-0.044,1.459-0.044c2.969-0.039,4.389,0.105,6.653,0.86
							c1.526,0.509,2.434,1.731,2.59,1.803c5.804,2.12,8.392,5.139,10.206,9.257C266.183,359.667,266,364.434,264.962,364.517z"/>
						<path style="fill:#FFE02C;" d="M261.705,354.584c-1.816-4.12-6.149-9.107-11.537-11.463c-0.153-0.069-0.313-0.122-0.473-0.176
							c-2.259-0.771-5.182-0.628-8.15-0.59c-0.481,0-0.962,0.016-1.458,0.046c-1.042,0.068-2.087,0.245-3.051,0.37
							c0.971,0.104,1.929,0.455,2.355,0.633c3.568,1.488,6.515,6.15,8.014,9.551c2.406,5.414,2.152,10.785,1.047,10.874l4.47,0.125
							c6.814,0,8.348-0.565,9.82,0.565C263.78,364.436,263.964,359.667,261.705,354.584z"/>
						<path style="fill:#F7C52C;" d="M219.937,375.66c1.419-3.167,6.84-6.715,13.257-8.653c6.341-1.923,14.223-3.052,21.946-3.052
							c6.814,0,8.348-0.565,9.821,0.565c1.038-0.084,1.221-4.853-1.038-9.935c-1.816-4.121-4.26-7.137-10.067-9.258
							c4.929,3.045,5.988,11.38,6.103,13.918c0.046,1.017-5.617,0.139-22.335,4.231C224.307,366.736,217.163,371.683,219.937,375.66
							z"/>
						<path style="fill:#FFE536;" d="M275.983,361.976c0,0-8.623,1.953-11.376,2.68c0,0-0.644-0.483-2.636-0.932
							c-1.698-0.377-4.373-0.733-8.462-0.733c-2.375,0-5.976,0.616-9.295,1.315c-4.356,0.91-8.229,1.97-8.229,1.97l-0.327-2.22
							c0,0,2.442-1.681,8.557-3.135c4.123-0.982,9.916-1.864,17.757-2.053c1.027-0.028,2.092-0.039,3.191-0.039
							c7.236,0,10.21,0.483,10.754,1.182C276.16,360.322,275.983,361.976,275.983,361.976z"/>
						<path style="fill:#D88916;" d="M265.162,360.494c-21.919-0.001-29.41,5.826-29.41,5.826s8.879-1.665,17.757-1.664
							c8.878,0,11.098,1.665,11.098,1.665C269.879,364.933,287.081,360.495,265.162,360.494z"/>
						<path style="fill:#E5785C;" d="M230.765,378.335c0.175,3.198-1.072,5.944-2.786,6.134c-1.713,0.19-3.244-2.248-3.418-5.446
							c-0.175-3.198,0.78-5.687,2.476-6.081C228.734,372.547,230.591,375.137,230.765,378.335z"/>
						<g>
							<path style="fill:#16569B;" d="M340.662,586.948c-4.868,0-9.331-3.234-10.679-8.157l-16.809-61.429h-49.013
								c-6.118,0-11.078-4.96-11.078-11.078s4.96-11.078,11.078-11.078h57.467c4.992,0,9.367,3.339,10.686,8.154l19.04,69.583
								c1.614,5.901-1.86,11.994-7.762,13.609C342.614,586.82,341.63,586.948,340.662,586.948z"/>
						</g>
						<g>
							<path style="fill:#16569B;" d="M313.957,563.334c0,4.1-4.21,5.263-9.305,6.648c-0.998,0.276-1.939,0.387-2.936,0.387
								c-4.321,0-7.367,1.274-8.974-1.939c-0.166-0.387-0.331-0.83-0.498-1.385l-13.681-49.683h-49.021
								c-6.093,0-11.078-4.985-11.078-11.078c0-6.093,4.985-11.078,11.078-11.078h57.44c5.04,0,9.361,3.324,10.69,8.141
								l15.952,57.829C313.847,561.949,313.957,562.671,313.957,563.334z"/>
							<path style="fill:#1D4366;" d="M313.957,563.334c0,1.939-0.941,3.213-2.492,4.154c-1.717,1.109-4.154,1.774-6.813,2.494
								c-0.998,0.276-1.939,0.387-2.936,0.387c-1.44,0-2.714,0.111-3.877,0.168c-2.327,0.165-4.043,0.054-5.097-2.107v-0.165
								c0-1.106,0.721-2.104,3.767-3.213c1.385-0.554,3.378-1.163,5.981-1.882c3.047-0.83,5.428-1.328,7.201-1.496
								C312.517,561.341,313.847,561.841,313.957,563.334z"/>
						</g>
						<path style="fill:#FFA68A;" d="M219.85,424.122l7.52,13.219l4.806,8.559l5.443,8.678c1.201,2.147,3.327,3.723,5.693,4.427
							c1.523,0.453,3.149,0.545,4.694,0.198l35.542-8.309c2.833-0.644,4.612-3.456,3.975-6.292c-0.644-2.833-3.46-4.614-6.292-3.975
							l-34.807,8.144l-7.919-13.09l-1.268-2.258l-8.211-14.453c-1.424-2.531-4.634-3.431-7.163-2.012
							C219.326,418.381,218.426,421.591,219.85,424.122z"/>
						<path style="fill:#FFE02C;" d="M230.423,421.254c1.921,3.308,11.363,19.591,11.363,19.591l-12.666,8.373l-9.415-14.601
							c0,0-10.185-15.061,0.032-20.348C225.346,411.366,230.423,421.254,230.423,421.254z"/>
						<polygon style="fill:#16569B;" points="264.107,487.838 264.107,502.794 215.087,502.794 215.087,475.386 225.682,476.586 
							229.197,492.782 						"/>
						<path style="fill:#5E3A32;" d="M324.261,578.068l-22.378,4.544c-1.884,0.552-3.822-3.935-4.376-7.757
							c-0.056-0.387-0.111-0.719-0.111-1.106c0-0.057-0.055-0.057-0.111-0.111l-0.886-4.1c-0.443-1.496-0.665-3.102-0.887-4.154
							c1.385-0.554,4.376-1.496,6.979-2.215c3.047-0.83,5.428-1.328,7.201-1.496c0.942-0.276,1.551,1.274,1.884,2.548
							c0.222,0.83,0.333,1.496,0.333,1.496c9.804-2.88,15.175,1.163,16.118,3.324c0.941,2.158,1.385,4.208,1.385,4.208
							C330.297,576.186,327.141,577.181,324.261,578.068z"/>
						<path style="fill:#3D2723;" d="M311.576,564.221c-7.534,1.22-11.133,5.815-14.069,10.634
							c-0.056-0.387-0.111-0.719-0.111-1.106c0-0.057-0.055-0.057-0.111-0.111l-0.886-4.1c-0.443-1.496-0.665-3.102-0.887-4.154
							c1.385-0.554,4.376-1.496,6.979-2.215c3.047-0.83,6.287-1.501,8.06-1.669C310.724,562.106,311.243,562.947,311.576,564.221z"
							/>
						<path style="fill:#3D2723;" d="M329.159,573.53c0.858,2.923-2.431,3.831-5.354,4.69l-20.957,5.782
							c-2.923,0.859-4.897-4.841-1.974-5.7l16.687-4.772c2.923-0.859,10.595-3.327,11.453-0.404L329.159,573.53z"/>
						<g>
							<path style="fill:#343A3D;" d="M307.607,584.869c-1.207,0-2.317-0.795-2.663-2.014c-0.418-1.471,0.437-3.003,1.907-3.421
								l14.021-3.981c1.471-0.419,3.003,0.436,3.421,1.907c0.418,1.471-0.436,3.003-1.907,3.421l-14.021,3.981
								C308.112,584.834,307.857,584.869,307.607,584.869z"/>
						</g>
						<g>
							<path style="fill:#343A3D;" d="M321.628,600.62c-1.194,0-2.297-0.779-2.654-1.982l-5.192-17.482
								c-0.436-1.466,0.4-3.008,1.867-3.443c1.467-0.436,3.008,0.4,3.443,1.866l5.192,17.482c0.435,1.466-0.4,3.008-1.867,3.443
								C322.154,600.583,321.889,600.62,321.628,600.62z"/>
						</g>
					</g>
					<rect x="190.905" y="520.587" style="fill:#21211F;" width="43.271" height="21.835"/>
					<g>
						<path style="fill:#3C4949;" d="M384.867,528.439c-1.47,0-2.936-0.581-4.025-1.734l-72.007-76.161
							c-2.103-2.223-2.004-5.729,0.219-7.83c2.225-2.102,5.73-2.003,7.83,0.22l72.007,76.161c2.103,2.223,2.004,5.729-0.219,7.83
							C387.601,527.938,386.232,528.439,384.867,528.439z"/>
					</g>
					<path style="fill:#3B3F42;" d="M351.733,593.431c-2.054,0.633-4.354-0.494-5.112-2.505l-32.909-87.304
						c-0.758-2.011-0.294-5.041,1.03-6.734l13.54-17.298c1.325-1.692,3.485-1.686,4.8,0.013l22.535,29.118
						c1.315,1.7,2.581,4.839,2.812,6.975l7.507,69.339c0.231,2.137-1.26,4.403-3.314,5.036L351.733,593.431z"/>
					<rect x="352.82" y="559.371" style="fill:#738086;" width="162.561" height="57.934"/>
					<polygon style="opacity:0.5;fill:#3B3F42;" points="512.01,617.133 485.422,617.133 472.45,559.587 499.039,559.587 					"/>
					<polygon style="opacity:0.5;fill:#3B3F42;" points="424.461,616.916 397.872,616.916 384.901,559.371 411.49,559.371 					"/>
					<rect x="399.302" y="282.362" style="fill:#3B3F42;" width="32.601" height="445.655"/>
					<path style="fill:#3C4949;" d="M136.357,607.96c0,10.746,8.792,19.538,19.538,19.538l84.704,0
						c10.746,0,19.538-8.792,19.538-19.538v-53.114c0-10.746-8.792-19.538-19.538-19.538h-84.704
						c-10.746,0-19.538,8.792-19.538,19.538V607.96z"/>
					<path style="fill:#3C4949;" d="M214.759,643.607c1.015,3.06,4.484,5.563,7.708,5.563l134.611,0
						c3.224,0,5.546-2.619,5.159-5.819l-4.89-40.522c-0.386-3.201-1.312-8.385-2.058-11.522l-8.827-37.117
						c-0.746-3.136-2.775-3.479-4.508-0.761l-24.647,38.638c-1.734,2.718-5.79,4.942-9.014,4.942H205.158
						c-3.224,0-5.031,2.503-4.016,5.563L214.759,643.607z"/>
					<path style="fill:#FFC943;" d="M127.146,525.604h32.478c8.664,0,21.064,7.186,27.575,15.98l67.134,100.468l2.335,3.476
						c6.51,8.794-14.163-1.219-22.828-1.219l-59.145,9.753c-2.282-4.461-4.876-8.508-7.782-12.01
						c-6.251-7.653-13.852-12.814-22.153-14.552c-2.049-0.467-4.151-0.675-6.277-0.675h-26.978l-0.078-76.965
						C111.426,536.525,118.482,525.604,127.146,525.604z"/>
					<g>
						<path style="fill:#738086;" d="M367.321,626.187c-4.961,0-9.209-3.764-9.71-8.805c-0.073-0.737-7.472-74.528-21.013-147.273
							c-25.313-135.979-47.583-139.905-50.039-139.905c-5.396,0-9.77-4.374-9.77-9.769c0-5.395,4.374-9.769,9.77-9.769
							c16.74,0,30.563,16.749,43.498,52.71c9.009,25.043,17.679,59.786,25.769,103.264c13.685,73.554,21.154,148.07,21.228,148.814
							c0.532,5.369-3.388,10.153-8.757,10.686C367.971,626.171,367.644,626.187,367.321,626.187z"/>
					</g>
					<g>
						<path style="fill:#3C4949;" d="M353.486,626.187c-4.961,0-9.209-3.764-9.71-8.805c-0.073-0.737-7.472-74.528-21.013-147.273
							c-25.313-135.979-47.583-139.905-50.039-139.905H143.701c-5.396,0-9.77-4.374-9.77-9.769c0-5.395,4.374-9.769,9.77-9.769
							h129.023c16.74,0,30.561,16.749,43.498,52.71c9.009,25.043,17.679,59.786,25.769,103.264
							c13.686,73.554,21.154,148.07,21.228,148.814c0.532,5.369-3.388,10.153-8.757,10.686
							C354.135,626.171,353.809,626.187,353.486,626.187z"/>
					</g>
					<path style="fill:#3C4949;" d="M185.606,516.978c0,4.298,3.517,7.815,7.815,7.815h51.501c4.298,0,7.815-3.517,7.815-7.815
						v-2.727c0-4.298-3.437-8.561-7.638-9.471l-51.856-11.245c-4.201-0.911-7.638,1.861-7.638,6.159V516.978z"/>
					<g>
						<rect x="142.767" y="324.073" style="fill:#3C4949;" width="20.752" height="41.243"/>
					</g>
					<path style="fill:#3C4949;" d="M185.366,402.583c-3.777,0-6.599,3.17-6.27,7.045l5.991,70.629
						c0.329,3.875,3.277,7.045,6.551,7.045c3.274,0,6.639-3.107,7.476-6.904l7.808-35.398c0.838-3.797,0.202-9.799-1.413-13.336
						l-10.339-22.649C193.555,405.478,189.143,402.583,185.366,402.583z"/>
					<path style="fill:#F5A838;" d="M153.078,642.051c2.906,3.502,5.5,7.549,7.782,12.01c5.525,10.869,9.027,24.307,9.624,38.937
						H332.12c-0.052-1.245-0.052-2.465-0.052-3.71c0-42.334,22.231-32.945,49.702-32.945c0.467,0,0.908,0.027,1.375,0.052v-43.45
						h-46.693l-27.523,29.106H153.078z"/>
					<path style="fill:#F5A838;" d="M113.311,525.604h32.478c8.664,0,21.064,7.186,27.575,15.98l67.134,100.468l2.335,3.476
						c6.51,8.794-14.163-1.219-22.828-1.219l-59.145,9.753c-2.283-4.461-4.877-8.508-7.782-12.01
						c-6.251-7.653-13.852-12.814-22.153-14.552c-2.049-0.467-4.151-0.675-6.277-0.675H97.67l-0.078-76.965
						C97.591,536.525,104.647,525.604,113.311,525.604z"/>
					<path style="fill:#8C6320;" d="M295.415,698.197c1.416-39.831,18.127-77.257,39.557-82.558
						c2.046-0.544,4.154-0.802,6.278-0.802h42.05v78.172L295.415,698.197z"/>
					<g>
						<path style="fill:#3B3F42;" d="M295.079,697.892c-4.316,0-7.815-3.499-7.815-7.815v-11.626c0-0.109,0.003-0.219,0.007-0.328
							c1.577-37.557,20.369-67.482,45.711-72.811c1.995-0.454,4.091-0.724,6.401-0.826c0.514-0.029,1.043-0.033,1.532-0.033h10.612
							c4.316,0,7.815,3.499,7.815,7.815c0,4.316-3.499,7.815-7.815,7.815h-10.612c-0.208,0-0.43-0.005-0.644,0.009
							c-0.053,0.003-0.106,0.006-0.157,0.008c-1.4,0.059-2.613,0.211-3.707,0.463c-0.054,0.012-0.107,0.024-0.161,0.035
							c-17.748,3.695-32.068,28.623-33.352,58.02v11.458C302.895,694.393,299.396,697.892,295.079,697.892z"/>
					</g>
					<g>
						<path style="fill:#485959;" d="M380.049,620.083h-28.521c-4.316,0-7.815-3.499-7.815-7.815c0-4.316,3.499-7.815,7.815-7.815
							h28.521c4.316,0,7.815,3.499,7.815,7.815C387.864,616.584,384.365,620.083,380.049,620.083z"/>
					</g>
					<g>
						<path style="fill:#3C4949;" d="M392.38,620.083h-12.331c-4.316,0-7.815-3.499-7.815-7.815c0-4.316,3.499-7.815,7.815-7.815
							h12.331c4.316,0,7.815,3.499,7.815,7.815C400.195,616.584,396.696,620.083,392.38,620.083z"/>
					</g>
					<path style="fill:#333332;" d="M378.815,629.559c0.456,0,0.928,0.024,1.385,0.049c20.754,1.116,37.354,27.391,37.354,59.682
						c0,32.994-17.34,59.754-38.739,59.754h-30.48l0-119.437L378.815,629.559z"/>
					<g>
						<path style="fill:#BCBDBF;" d="M348.335,738.298c-14.159,0-26.953-20.939-27.938-45.724c-0.047-1.23-0.069-2.311-0.069-3.284
							c0-26.095,13.088-48.985,28.008-48.985c0.265,0,0.537,0.018,0.801,0.033c13.137,0.706,27.193,20.545,27.193,48.952
							C376.329,715.397,363.248,738.298,348.335,738.298z"/>
						<g>
							<path style="fill:#21211F;" d="M348.253,651.052c0.1,0.004,0.202,0.01,0.313,0.016c2.714,0.146,6.408,3.332,9.411,8.115
								c4.833,7.7,7.605,18.673,7.605,30.106c0,11.688-2.875,22.827-7.887,30.56c-3.033,4.679-6.707,7.702-9.36,7.702
								c-5.361,0-16.291-12.496-17.2-35.374c-0.043-1.108-0.063-2.052-0.063-2.888c0-11.682,2.875-22.813,7.889-30.539
								C341.966,654.121,345.601,651.113,348.253,651.052L348.253,651.052z M348.336,629.559c-21.399,0-38.755,26.736-38.755,59.731
								c0,1.237,0.031,2.475,0.079,3.711c1.243,31.273,18.079,56.043,38.676,56.043c21.399,0,38.739-26.76,38.739-59.754
								c0-32.292-16.6-58.566-37.354-59.682C349.264,629.583,348.792,629.559,348.336,629.559L348.336,629.559z"/>
						</g>
					</g>
					<path style="fill:#FF573B;" d="M339.85,365.284h22.831c2.432,0,4.422-3.068,4.422-6.818v-35.593c0-3.75-1.99-6.818-4.422-6.818
						H339.85V365.284z"/>
					<rect x="393.007" y="282.362" style="fill:#3B3F42;" width="38.896" height="20.217"/>
					<g>
						<g>
							<path style="fill:#F5A838;" d="M430.511,408.467c-0.599,0-1.204-0.171-1.739-0.529l-9.024-6.028
								c-1.44-0.962-1.827-2.909-0.865-4.35c0.962-1.44,2.908-1.828,4.35-0.866l9.024,6.028c1.439,0.962,1.827,2.909,0.865,4.35
								C432.517,407.978,431.523,408.467,430.511,408.467z"/>
						</g>
						<g>
							<path style="fill:#F5A838;" d="M430.511,394.62c-0.599,0-1.204-0.171-1.739-0.529l-9.024-6.028
								c-1.44-0.962-1.827-2.909-0.865-4.35c0.962-1.439,2.908-1.829,4.35-0.866l9.024,6.028c1.439,0.962,1.827,2.909,0.865,4.35
								C432.517,394.13,431.523,394.62,430.511,394.62z"/>
						</g>
						<g>
							<path style="fill:#F5A838;" d="M430.511,380.772c-0.599,0-1.204-0.171-1.739-0.529l-9.024-6.028
								c-1.44-0.962-1.827-2.91-0.865-4.35c0.962-1.44,2.908-1.828,4.35-0.866l9.024,6.028c1.439,0.962,1.827,2.909,0.865,4.35
								C432.517,380.283,431.523,380.772,430.511,380.772z"/>
						</g>
						<g>
							<path style="fill:#F5A838;" d="M430.511,366.925c-0.599,0-1.204-0.171-1.739-0.529l-9.024-6.028
								c-1.44-0.962-1.827-2.909-0.865-4.35c0.962-1.439,2.908-1.828,4.35-0.866l9.024,6.028c1.439,0.962,1.827,2.909,0.865,4.35
								C432.517,366.435,431.523,366.925,430.511,366.925z"/>
						</g>
						<g>
							<path style="fill:#F5A838;" d="M430.511,353.077c-0.599,0-1.204-0.171-1.739-0.529l-9.024-6.028
								c-1.44-0.962-1.827-2.909-0.865-4.35c0.962-1.439,2.908-1.828,4.35-0.866l9.024,6.028c1.439,0.962,1.827,2.909,0.865,4.35
								C432.517,352.588,431.523,353.077,430.511,353.077z"/>
						</g>
					</g>
					<g>
						<rect x="515.077" y="282.362" style="fill:#738086;" width="32.601" height="445.655"/>
						<rect x="497.898" y="282.362" style="fill:#3B3F42;" width="32.601" height="445.655"/>
						<rect x="491.604" y="282.362" style="fill:#3B3F42;" width="38.896" height="20.217"/>
					</g>
					<path style="fill:#D33131;" d="M338.224,365.284h5.65c2.432,0,4.422-3.068,4.422-6.818v-35.593c0-3.75-1.99-6.818-4.422-6.818
						h-5.65V365.284z"/>
					<path style="fill:#3B3F42;" d="M339.72,316.055h-10.481c-2.596,0-4.72,3.275-4.72,7.278v34.773c0,4.003,2.124,7.278,4.72,7.278
						h10.481V316.055z"/>
				</g>
				<rect x="425.109" y="507.03" style="fill:#3B3F42;" width="34.371" height="28.535"/>
				<rect x="513.307" y="507.03" style="fill:#3B3F42;" width="34.371" height="28.535"/>
				<rect x="513.307" y="581.825" style="opacity:0.5;fill:#3B3F42;" width="34.371" height="60.312"/>
			</g>
			
				<path style="fill:none;stroke:#485959;stroke-width:19.5382;stroke-linecap:round;stroke-linejoin:round;stroke-miterlimit:10;" d="
				M402.108,622.248c0,14.267,11.673,25.941,25.94,25.941h136.619c14.267,0,25.94-11.673,25.94-25.94v-84.735
				c0-14.267-11.673-25.94-25.94-25.941H428.049c-14.267,0-25.941,11.673-25.941,25.941V622.248z"/>
			<g>
				<path style="fill:#485959;" d="M590.608,584.893h-188.5c-5.396,0-9.77-4.374-9.77-9.769c0-5.395,4.374-9.769,9.77-9.769h188.5
					c5.396,0,9.77,4.374,9.77,9.769C600.378,580.519,596.004,584.893,590.608,584.893z"/>
			</g>
			<g>
				<rect x="554.338" y="542.707" style="fill:#FED500;" width="23.542" height="123.674"/>
				<rect x="536.179" y="542.707" style="fill:#F5A838;" width="18.354" height="123.674"/>
				<rect x="536.179" y="651.053" style="fill:#F5A838;" width="188.004" height="15.328"/>
			</g>
			<rect x="520.463" y="542.707" style="fill:#F5A838;" width="34.07" height="22.69"/>
			<g>
				<rect x="459.005" y="542.707" style="fill:#FED500;" width="23.542" height="123.674"/>
				<rect x="440.846" y="542.707" style="fill:#F5A838;" width="18.354" height="123.674"/>
				<rect x="440.846" y="651.053" style="fill:#F5A838;" width="188.004" height="15.328"/>
			</g>
			<rect x="425.13" y="542.707" style="fill:#F5A838;" width="34.07" height="22.69"/>
		</g>
		<path style="fill:#8D7120;" d="M116.466,575.75c0,10.375,5.458,18.791,12.187,18.791c6.477,0,11.766-7.789,12.157-17.624
			c0.015-0.389,0.025-0.778,0.025-1.167c0-10.376-5.453-18.783-12.182-18.783c-0.099,0-0.203,0-0.302,0.007
			C121.761,557.219,116.466,565.527,116.466,575.75z"/>
	</g>
	<g>
		<g>
			<g>
				<g>
					<g>
						<g>
							<g>
								<rect x="676.741" y="268.392" style="fill:#FFD18D;" width="110.966" height="143.636"/>
								<rect x="583.576" y="268.388" style="fill:#D88850;" width="99.904" height="143.637"/>
								<g>
									<g style="opacity:0.5;">
										<rect x="583.766" y="338.513" style="fill:#C9804F;" width="203.966" height="2.87"/>
									</g>
								</g>
								<rect x="727.749" y="268.388" style="fill:#A58258;" width="12.401" height="14.655"/>
								<rect x="588.778" y="323.813" style="opacity:0.8;fill:#C2D8EF;" width="11.591" height="10.546"/>
								<g style="opacity:0.2;">
									<rect x="639.973" y="323.813" style="fill:#333332;" width="19.343" height="10.546"/>
								</g>
								<g style="opacity:0.2;">
									<rect x="662.043" y="323.813" style="fill:#333332;" width="9.958" height="10.546"/>
								</g>
								<g style="opacity:0.2;">
									<rect x="639.973" y="396.588" style="fill:#333332;" width="19.343" height="10.546"/>
								</g>
								<g style="opacity:0.2;">
									<rect x="662.043" y="396.588" style="fill:#333332;" width="9.958" height="10.546"/>
								</g>
								<rect x="588.778" y="397.182" style="opacity:0.8;fill:#C2D8EF;" width="11.591" height="10.546"/>
								<rect x="728.859" y="338.619" style="fill:#A58258;" width="12.401" height="14.655"/>
							</g>
						</g>
						<g>
							<g>
								<rect x="478.039" y="268.388" style="fill:#BA6145;" width="117.339" height="143.637"/>
								<rect x="413.028" y="268.388" style="fill:#D88850;" width="78.122" height="143.637"/>
								<g>
									<g style="opacity:0.5;">
										<rect x="413.219" y="338.513" style="fill:#C9804F;" width="182.184" height="2.87"/>
									</g>
								</g>
								<rect x="544.369" y="268.388" style="fill:#A86951;" width="12.401" height="13.528"/>
								<g style="opacity:0.3;">
									<rect x="450.657" y="323.813" style="fill:#333332;" width="9.958" height="10.546"/>
								</g>
								<g style="opacity:0.3;">
									<rect x="463.343" y="323.813" style="fill:#333332;" width="9.958" height="10.546"/>
								</g>
								<g style="opacity:0.3;">
									<rect x="475.632" y="323.813" style="fill:#333332;" width="9.958" height="10.546"/>
								</g>
								<g style="opacity:0.3;">
									<rect x="450.657" y="396.588" style="fill:#333332;" width="9.958" height="10.546"/>
								</g>
								<g style="opacity:0.3;">
									<rect x="463.343" y="396.588" style="fill:#333332;" width="9.958" height="10.546"/>
								</g>
								<g style="opacity:0.3;">
									<rect x="475.632" y="396.588" style="fill:#333332;" width="9.958" height="10.546"/>
								</g>
								<rect x="545.479" y="338.625" style="fill:#A86951;" width="12.401" height="16.923"/>
							</g>
							<g>
								<rect x="562.881" y="268.388" style="fill:#FFD18D;" width="117.339" height="143.637"/>
								<rect x="497.871" y="268.388" style="fill:#D88850;" width="78.122" height="143.637"/>
								<g>
									<g style="opacity:0.5;">
										<rect x="498.061" y="338.513" style="fill:#C9804F;" width="182.184" height="2.87"/>
									</g>
								</g>
								<rect x="619.952" y="268.388" style="fill:#A58258;" width="12.401" height="14.656"/>
								<g style="opacity:0.3;">
									<rect x="535.5" y="323.813" style="fill:#333332;" width="9.958" height="10.546"/>
								</g>
								<g style="opacity:0.3;">
									<rect x="548.185" y="323.813" style="fill:#333332;" width="9.958" height="10.546"/>
								</g>
								<g style="opacity:0.3;">
									<rect x="560.475" y="323.813" style="fill:#333332;" width="9.958" height="10.546"/>
								</g>
								<g style="opacity:0.3;">
									<rect x="535.5" y="396.588" style="fill:#333332;" width="9.958" height="10.546"/>
								</g>
								<g style="opacity:0.3;">
									<rect x="548.185" y="396.588" style="fill:#333332;" width="9.958" height="10.546"/>
								</g>
								<g style="opacity:0.3;">
									<rect x="560.475" y="396.588" style="fill:#333332;" width="9.958" height="10.546"/>
								</g>
								<rect x="619.952" y="338.619" style="fill:#A58258;" width="12.401" height="14.655"/>
							</g>
						</g>
					</g>
					<g>
						<g>
							<g>
								<rect x="676.741" y="410.969" style="fill:#FFD18D;" width="110.966" height="216.302"/>
								<rect x="583.576" y="410.97" style="fill:#D88850;" width="99.904" height="216.299"/>
								<g>
									<g style="opacity:0.5;">
										<rect x="583.766" y="481.646" style="fill:#C9804F;" width="203.941" height="2.87"/>
									</g>
									<g style="opacity:0.5;">
										<rect x="583.766" y="553.757" style="fill:#C9804F;" width="203.966" height="2.87"/>
									</g>
								</g>
								<rect x="727.749" y="481.738" style="fill:#A58258;" width="12.401" height="14.655"/>
								<rect x="588.778" y="539.057" style="opacity:0.8;fill:#C2D8EF;" width="11.591" height="10.546"/>
								<g style="opacity:0.2;">
									<rect x="639.973" y="539.057" style="fill:#333332;" width="19.343" height="10.546"/>
								</g>
								<g style="opacity:0.2;">
									<rect x="662.043" y="539.057" style="fill:#333332;" width="9.958" height="10.546"/>
								</g>
								<g style="opacity:0.2;">
									<rect x="639.973" y="466.084" style="fill:#333332;" width="19.343" height="10.546"/>
								</g>
								<g style="opacity:0.2;">
									<rect x="662.043" y="466.084" style="fill:#333332;" width="9.958" height="10.546"/>
								</g>
								<g style="opacity:0.2;">
									<rect x="639.973" y="611.831" style="fill:#333332;" width="19.343" height="10.546"/>
								</g>
								<g style="opacity:0.2;">
									<rect x="662.043" y="611.831" style="fill:#333332;" width="9.958" height="10.546"/>
								</g>
								<rect x="588.778" y="612.426" style="opacity:0.8;fill:#C2D8EF;" width="11.591" height="10.546"/>
								<rect x="588.778" y="466.877" style="opacity:0.8;fill:#C2D8EF;" width="11.591" height="10.546"/>
								<rect x="728.859" y="553.862" style="fill:#A58258;" width="12.401" height="14.655"/>
							</g>
						</g>
						<g>
							<g>
								<rect x="478.039" y="410.97" style="fill:#BA6145;" width="117.339" height="216.299"/>
								<rect x="413.028" y="410.97" style="fill:#D88850;" width="78.122" height="216.299"/>
								<g>
									<g style="opacity:0.5;">
										<rect x="413.219" y="481.646" style="fill:#C9804F;" width="182.159" height="2.87"/>
									</g>
									<g style="opacity:0.5;">
										<rect x="413.219" y="553.757" style="fill:#C9804F;" width="182.184" height="2.87"/>
									</g>
								</g>
								<rect x="544.369" y="481.813" style="fill:#A86951;" width="12.401" height="13.528"/>
								<g style="opacity:0.3;">
									<rect x="450.657" y="539.057" style="fill:#333332;" width="9.958" height="10.546"/>
								</g>
								<g style="opacity:0.3;">
									<rect x="463.343" y="539.057" style="fill:#333332;" width="9.958" height="10.546"/>
								</g>
								<g style="opacity:0.3;">
									<rect x="475.632" y="539.057" style="fill:#333332;" width="9.958" height="10.546"/>
								</g>
								<g style="opacity:0.3;">
									<rect x="450.657" y="466.084" style="fill:#333332;" width="9.958" height="10.546"/>
								</g>
								<g style="opacity:0.3;">
									<rect x="463.343" y="466.084" style="fill:#333332;" width="9.958" height="10.546"/>
								</g>
								<g style="opacity:0.3;">
									<rect x="475.632" y="466.084" style="fill:#333332;" width="9.958" height="10.546"/>
								</g>
								<g style="opacity:0.3;">
									<rect x="450.657" y="611.831" style="fill:#333332;" width="9.958" height="10.546"/>
								</g>
								<g style="opacity:0.3;">
									<rect x="463.343" y="611.831" style="fill:#333332;" width="9.958" height="10.546"/>
								</g>
								<g style="opacity:0.3;">
									<rect x="475.632" y="611.831" style="fill:#333332;" width="9.958" height="10.546"/>
								</g>
								<rect x="545.479" y="410.97" style="fill:#A86951;" width="12.401" height="11.463"/>
								<rect x="545.479" y="553.869" style="fill:#A86951;" width="12.401" height="16.923"/>
							</g>
							<g>
								<rect x="562.881" y="410.97" style="fill:#FFD18D;" width="117.339" height="216.299"/>
								<rect x="497.871" y="410.97" style="fill:#D88850;" width="78.122" height="216.299"/>
								<g>
									<g style="opacity:0.5;">
										<rect x="498.061" y="481.646" style="fill:#C9804F;" width="182.158" height="2.87"/>
									</g>
									<g style="opacity:0.5;">
										<rect x="498.061" y="553.757" style="fill:#C9804F;" width="182.184" height="2.87"/>
									</g>
								</g>
								<rect x="619.952" y="481.738" style="fill:#A58258;" width="12.401" height="14.655"/>
								<g style="opacity:0.3;">
									<rect x="535.5" y="539.057" style="fill:#333332;" width="9.958" height="10.546"/>
								</g>
								<g style="opacity:0.3;">
									<rect x="548.185" y="539.057" style="fill:#333332;" width="9.958" height="10.546"/>
								</g>
								<g style="opacity:0.3;">
									<rect x="560.474" y="539.057" style="fill:#333332;" width="9.958" height="10.546"/>
								</g>
								<g style="opacity:0.3;">
									<rect x="535.5" y="466.084" style="fill:#333332;" width="9.958" height="10.546"/>
								</g>
								<g style="opacity:0.3;">
									<rect x="548.185" y="466.084" style="fill:#333332;" width="9.958" height="10.546"/>
								</g>
								<g style="opacity:0.3;">
									<rect x="560.474" y="466.084" style="fill:#333332;" width="9.958" height="10.546"/>
								</g>
								<g style="opacity:0.3;">
									<rect x="535.499" y="611.831" style="fill:#333332;" width="9.958" height="10.546"/>
								</g>
								<g style="opacity:0.3;">
									<rect x="548.185" y="611.831" style="fill:#333332;" width="9.958" height="10.546"/>
								</g>
								<g style="opacity:0.3;">
									<rect x="560.474" y="611.831" style="fill:#333332;" width="9.958" height="10.546"/>
								</g>
								<rect x="621.906" y="553.862" style="fill:#A58258;" width="12.401" height="14.655"/>
							</g>
						</g>
					</g>
					<g style="opacity:0.5;">
						<rect x="412.97" y="410.945" style="fill:#C9804F;" width="374.737" height="2.87"/>
					</g>
					<rect x="728.859" y="411.002" style="fill:#A58258;" width="12.401" height="14.655"/>
					<rect x="619.952" y="411.002" style="fill:#A58258;" width="12.401" height="14.655"/>
				</g>
				<g>
					<g>
						<g>
							<rect x="778.509" y="627.036" style="fill:#FFCE78;" width="37.472" height="11.594"/>
							<rect x="553.164" y="627.036" style="fill:#CC865E;" width="225.898" height="11.948"/>
							<polygon style="fill:#72504C;" points="732.549,638.63 760.91,638.63 770.02,627.036 760.929,627.036 							"/>
							<polygon style="fill:#72504C;" points="679.013,638.63 707.374,638.63 716.484,627.036 707.198,627.036 							"/>
							<polygon style="fill:#72504C;" points="623.133,638.63 651.494,638.63 660.605,627.036 652.225,627.036 							"/>
							<polygon style="fill:#72504C;" points="568.535,638.63 596.896,638.63 606.007,627.036 597.628,627.036 							"/>
						</g>
						<g>
							<rect x="669.208" y="627.036" style="fill:#FFCE78;" width="37.471" height="11.594"/>
						</g>
						<g>
							<rect x="723.858" y="627.036" style="fill:#FFCE78;" width="37.471" height="11.594"/>
						</g>
						<g>
							<rect x="614.557" y="627.036" style="fill:#FFCE78;" width="37.472" height="11.594"/>
						</g>
						<g>
							<rect x="384.49" y="627.036" style="fill:#C48E47;" width="188.459" height="12.064"/>
						</g>
					</g>
					<g>
						<rect x="483.752" y="647.649" style="fill:#72504C;" width="25.327" height="32.893"/>
						<rect x="407.728" y="647.649" style="fill:#72504C;" width="25.327" height="32.893"/>
						<rect x="576.526" y="671.356" style="fill:#72504C;" width="204.641" height="12.335"/>
						<rect x="756.498" y="650.799" style="fill:#B87A53;" width="24.669" height="32.893"/>
						<polygon style="fill:#72504C;" points="756.498,683.691 780.928,650.602 756.498,650.602 756.498,671.703 752.623,677.177 
													"/>
						<rect x="576.526" y="650.799" style="fill:#72504C;" width="24.669" height="32.893"/>
						<rect x="671.324" y="650.799" style="fill:#B87A53;" width="24.669" height="32.893"/>
						<rect x="479.903" y="671.356" style="fill:#72504C;" width="195.017" height="12.335"/>
						<rect x="650.252" y="650.799" style="fill:#B87A53;" width="24.669" height="32.893"/>
						<rect x="555.453" y="650.799" style="fill:#B87A53;" width="24.669" height="32.893"/>
						<polygon style="fill:#EFBB67;" points="780.995,683.691 815.944,683.691 815.944,644.919 780.995,650.799 						"/>
						<polygon style="fill:#EFBB67;" points="674.748,683.691 709.696,683.691 709.696,645.56 674.748,650.799 						"/>
						<polygon style="fill:#EFBB67;" points="559.904,683.691 594.853,683.691 594.853,645.239 559.904,650.799 						"/>
						<polygon style="fill:#B87A53;" points="535.751,683.691 560.42,683.691 560.42,650.799 535.751,645.881 						"/>
						<polygon style="fill:#B87A53;" points="384.65,683.691 409.319,683.691 409.319,650.799 384.65,644.918 						"/>
						<polygon style="fill:#B87A53;" points="460.201,683.691 484.87,683.691 484.87,650.799 460.201,643.635 						"/>
						<rect x="559.906" y="638.464" style="fill:#EFBB67;" width="256.039" height="12.335"/>
						<rect x="384.65" y="638.464" style="fill:#B87A53;" width="175.77" height="12.335"/>
						<rect x="384.65" y="671.356" style="fill:#B87A53;" width="175.77" height="12.335"/>
						<polygon style="fill:#72504C;" points="650.079,683.691 674.508,650.602 650.079,650.602 650.079,671.415 645.172,677.753 
													"/>
					</g>
					<rect x="560.402" y="627.036" style="fill:#FFCE78;" width="37.471" height="11.71"/>
				</g>
			</g>
		</g>
		<g>
			<g>
				<g>
					<rect x="623.735" y="650.508" style="fill:#FFC943;" width="30.336" height="15.328"/>
				</g>
			</g>
			<g>
				<g>
					<rect x="594.194" y="650.508" style="fill:#F5A838;" width="30.336" height="15.328"/>
				</g>
			</g>
		</g>
		<g>
			<g>
				<g>
					<rect x="739.131" y="650.97" style="fill:#FFC943;" width="30.336" height="15.328"/>
				</g>
			</g>
			<g>
				<g>
					<rect x="709.589" y="650.97" style="fill:#F5A838;" width="30.336" height="15.328"/>
				</g>
			</g>
		</g>
	</g>
</g>
</svg>
