<?xml version="1.0" encoding="utf-8"?>
<!-- Generator: Adobe Illustrator 27.5.0, SVG Export Plug-In . SVG Version: 6.00 Build 0)  -->
<svg version="1.1" id="Layer_1" xmlns="http://www.w3.org/2000/svg" xmlns:xlink="http://www.w3.org/1999/xlink" x="0px" y="0px"
	 viewBox="0 0 899.999 900" style="enable-background:new 0 0 899.999 900;display:none;" xml:space="preserve">
<g style="display:inline;">
	<g>
		<path style="fill:#CCDEF2;" d="M789.628,745.236c0-3.623-3.619-6.588-8.042-6.588H101.799c-4.423,0-8.042,2.964-8.042,6.588
			c0,3.623,3.619,6.588,8.042,6.588h679.786C786.009,751.823,789.628,748.859,789.628,745.236z"/>
	</g>
	<g>
		
			<path style="fill:none;stroke:#E5785C;stroke-width:16.6756;stroke-linecap:round;stroke-linejoin:round;stroke-miterlimit:10;" d="
			M217.902,372.426l13.546,66.978c0.548,2.709,3.231,4.579,5.962,4.157l31.569-4.887"/>
	</g>
	<rect x="591.701" y="714.736" style="fill:#72504C;" width="199.763" height="12.041"/>
	
		<line style="fill:none;stroke:#354242;stroke-width:34.4704;stroke-linecap:round;stroke-linejoin:round;stroke-miterlimit:10;" x1="311.888" y1="590.559" x2="322.66" y2="621.798"/>
	
		<line style="fill:none;stroke:#354242;stroke-width:12.9264;stroke-linecap:round;stroke-linejoin:round;stroke-miterlimit:10;" x1="262.157" y1="441.546" x2="312.068" y2="592.357"/>
	<g>
		<path style="fill:#354242;" d="M337.274,671.727c0,7.109-5.817,12.926-12.926,12.926h-20.835c-7.109,0-12.926-5.817-12.926-12.926
			v-14.023c0-7.11,0-18.743,0-25.853v-5.745c0-7.109,5.817-12.926,12.926-12.926h20.835c7.109,0,12.926,5.817,12.926,12.926V671.727
			z"/>
	</g>
	<g>
		<g>
			<path style="fill:#1D2021;" d="M680.969,714.289c6.593,0,11.938,7.466,11.938,16.677s-5.345,16.677-11.938,16.677h-16.867
				v-33.353H680.969z"/>
			<ellipse style="fill:#2D3133;" cx="664.792" cy="730.965" rx="11.938" ry="16.677"/>
			<path style="fill:#9099A3;" d="M660.076,730.965c0,3.638,2.111,6.587,4.716,6.587c2.604,0,4.716-2.949,4.716-6.587
				c0-3.638-2.111-6.587-4.716-6.587C662.188,724.378,660.076,727.327,660.076,730.965z"/>
		</g>
		<g>
			<path style="fill:#3B3F42;" d="M707.804,714.289c6.593,0,11.938,7.466,11.938,16.677s-5.345,16.677-11.938,16.677h-16.867
				v-33.353H707.804z"/>
			<ellipse style="fill:#2D3133;" cx="691.627" cy="730.965" rx="11.938" ry="16.677"/>
			<path style="fill:#9099A3;" d="M686.911,730.965c0,3.638,2.111,6.587,4.716,6.587c2.604,0,4.716-2.949,4.716-6.587
				c0-3.638-2.111-6.587-4.716-6.587C689.023,724.378,686.911,727.327,686.911,730.965z"/>
		</g>
		<rect x="452.523" y="699.734" style="fill:#FF881D;" width="321.001" height="15.797"/>
		<rect x="366.347" y="699.734" style="fill:#E2620C;" width="342.547" height="15.797"/>
		<rect x="763.225" y="699.734" style="fill:#FF881D;" width="10.299" height="15.797"/>
		<rect x="497.381" y="714.736" style="fill:#72504C;" width="190.368" height="12.041"/>
	</g>
	<g>
		<path style="fill:#3C4949;" d="M351.817,695.927c0.146,0,0.299,0,0.446,0.01c9.729,0.335,17.544,11.765,17.544,25.83
			c0,14.274-8.056,25.852-17.99,25.853l-12.64,0.001l-1.539-51.693"/>
		<g>
			<g>
				<path style="fill:#9099A3;" d="M339.76,741.829c-6.266,0-11.721-8.388-12.16-18.7c-0.019-0.443-0.031-0.901-0.031-1.359
					c0-10.681,5.697-20.051,12.191-20.052l0.126,0l0.12,0.006c5.772,0.199,11.952,8.3,11.952,20.042
					C351.958,732.454,346.258,741.829,339.76,741.829L339.76,741.829z"/>
				<g>
					<path style="fill:#333332;" d="M339.725,707.51l0.081,0.003c1.846,0.064,6.361,5.138,6.361,14.255
						c0,8.879-4.451,14.271-6.409,14.271c-1.687,0-6.009-4.61-6.372-13.138c-0.015-0.377-0.027-0.754-0.027-1.131
						C333.359,712.951,337.752,707.575,339.725,707.51 M339.76,695.927c-9.933,0.001-17.982,11.568-17.982,25.843
						c0,0.535,0.015,1.071,0.037,1.606c0.577,13.53,8.385,24.245,17.946,24.245c9.933-0.001,17.99-11.579,17.99-25.853
						c0-14.065-7.815-25.494-17.544-25.83C340.059,695.927,339.906,695.927,339.76,695.927L339.76,695.927z"/>
				</g>
			</g>
		</g>
	</g>
	<g>
		<path style="fill:#3C4949;" d="M323.451,695.927c0.146,0,0.299,0,0.445,0.01c9.729,0.335,17.544,11.765,17.544,25.83
			c0,14.274-8.056,25.852-17.99,25.853l-12.102,0.001l2.231-51.693"/>
		<g>
			<g>
				<path style="fill:#9099A3;" d="M311.394,741.829c-6.266,0-11.721-8.388-12.16-18.7c-0.018-0.443-0.031-0.901-0.031-1.359
					c0-10.681,5.697-20.051,12.191-20.052l0.126,0l0.12,0.006c5.771,0.199,11.952,8.3,11.952,20.042
					C323.592,732.454,317.892,741.829,311.394,741.829L311.394,741.829z"/>
				<g>
					<path style="fill:#333332;" d="M311.359,707.51l0.081,0.003c1.846,0.064,6.361,5.138,6.361,14.255
						c0,8.879-4.451,14.271-6.408,14.271c-1.687,0-6.009-4.61-6.372-13.138c-0.015-0.377-0.027-0.754-0.027-1.131
						C304.993,712.951,309.385,707.575,311.359,707.51 M311.394,695.927c-9.934,0.001-17.982,11.568-17.982,25.843
						c0,0.535,0.015,1.071,0.037,1.606c0.577,13.53,8.385,24.245,17.946,24.245c9.933-0.001,17.99-11.579,17.99-25.853
						c0-14.065-7.815-25.494-17.544-25.83C311.693,695.927,311.54,695.927,311.394,695.927L311.394,695.927z"/>
				</g>
			</g>
		</g>
	</g>
	<g>
		<path style="fill:#354242;" d="M334.402,689.677c0,3.555-2.909,6.463-6.463,6.463h-48.843c-3.555,0-6.463-2.908-6.463-6.463
			v-14.501c0-3.555,2.908-6.463,6.463-6.463h48.843c3.555,0,6.463,2.908,6.463,6.463V689.677z"/>
	</g>
	<g>
		<g>
			<path style="fill:#EA6A13;" d="M391.092,697.807c0.778,7.777-4.98,14.14-12.796,14.14h-63.395
				c-7.816,0-13.382-6.341-12.37-14.091l10.812-82.788c1.012-7.75,8.235-14.091,16.051-14.091h37.802
				c7.816,0,14.847,6.363,15.625,14.14L391.092,697.807z"/>
		</g>
		<path style="fill:#B74D2C;" d="M409.116,711.937H334.25c-4.05,0-7.518-1.702-9.759-4.437c-2.068-2.522-3.103-5.925-2.607-9.653
			l10.815-82.772c1.012-7.755,8.23-14.09,16.05-14.09h23.677c1.917,0,3.857,0.366,5.752,1.013
			c5.817,2.025,11.073,6.851,12.926,12.474l27.77,83.978C421.332,705.884,416.936,711.937,409.116,711.937z"/>
		<path style="fill:#EA6A13;" d="M426.484,710.127h-93.371l4.446-15.789l4.002-14.132c2.105-8.857,7.283-14.068,15.103-14.068
			h36.625c7.799,0,15.638,6.334,17.364,14.068l6.295,14.132L426.484,710.127z"/>
	</g>
	<g>
		<g>
			<path style="fill:#EA6A13;" d="M422.725,706.196c0,3.555-2.908,6.463-6.463,6.463H269.762c-3.555,0-6.514-2.908-6.577-6.462
				l-0.132-7.555c-0.062-3.554,2.795-6.462,6.35-6.462h146.858c3.555,0,6.463,2.909,6.463,6.463V706.196z"/>
		</g>
		<g>
			<path style="fill:#B74D2C;" d="M446.427,692.183c3.555,0,6.463,2.908,6.463,6.463v7.539c0,3.555-2.909,6.463-6.463,6.463H321.472
				c-3.555,0-6.463-2.908-6.463-6.463v-7.539c0-3.555,2.908-6.463,6.463-6.463H446.427z"/>
		</g>
	</g>
	<g>
		<g>
			<g>
				<g>
					<path style="fill:#332316;" d="M210.346,719.604c-0.555,2.129,0.658,3.129,0.771,3.56c2.152,8.221,24.732,5.418,25.641,4.562
						c0.909-0.856,3.384-23.435,3.013-24.501c-0.371-1.065-15.314-1.398-17.461-1.498c-2.147-0.1-7.741-2.967-6.704-2.268
						C216.037,699.75,210.901,717.475,210.346,719.604z"/>
					<path style="fill:#332316;" d="M183.186,736.656c1.674,1.624,0.66,10.705-1.924,11.108c-1.368,0.213-9.684,0.75-14.215,0.934
						c-6.2,0.253-19.029-2.124-24.912-4.334c-3.382-1.271-9.544-3.696-9.544-3.696s-8.972-2.371-9.454-2.61
						c-0.482-0.239-0.4-4.029-0.4-4.029s20.913-2.942,21.711-2.595c0.799,0.347,17.55,9.626,17.55,9.626l19.377-3.965
						L183.186,736.656z"/>
					<g>
						<path style="fill:#602C34;" d="M143.794,503.511l0.277,19.962c0.123,8.868,7.431,15.278,16.239,14.244l43.206-5.07
							c8.808-1.034,16.006-9.136,15.995-18.004l-0.058-45.532"/>
					</g>
					<g>
						<path style="fill:#332316;" d="M210.163,723.062c0,0-0.634,4.685,7.683,4.015c7.938-0.64,11.804-10.157,11.804-10.157
							l12.826-1.433c0,0,1.2,5.798,2.29,7.145c2.977,3.677,10.552,10.709,10.552,10.709l14.817-0.505c0,0,1.776,11.808-2.76,12.174
							c-4.536,0.365-13.512,1.014-17.292,1.319s-23.997-3.249-23.997-3.249s-16.99,1.579-17.001,1.362
							C208.219,728.371,210.163,723.062,210.163,723.062z"/>
					</g>
					<polygon style="fill:#332316;" points="208.957,747.613 234.775,746.3 234.696,742.384 223.104,740.452 208.321,741.361 					
						"/>
					<polygon style="fill:#332316;" points="123.329,740.883 138.037,745.399 139.74,743.201 140.2,740.095 137.618,737.809 
						122.827,736.77 					"/>
					<path style="fill:#4F342F;" d="M271.918,735.108c0,0,0,0,0,0.032c0,0.198,0,1.156-0.132,1.982
						c-0.066,0.331-0.132,0.627-0.198,0.925c0,0.033-0.033,0.099-0.033,0.132c-0.033,0.099-0.066,0.198-0.099,0.298
						c0,0.066-0.033,0.131-0.033,0.164c-0.066,0.099-0.099,0.198-0.132,0.298c0,0.066-0.033,0.099-0.033,0.132
						c-0.066,0.165-0.132,0.33-0.231,0.495c-0.034,0.066-0.066,0.132-0.099,0.198c-0.033,0.066-0.066,0.132-0.099,0.198
						c-0.066,0.099-0.099,0.165-0.165,0.231c-0.033,0.065-0.066,0.098-0.099,0.165c-0.066,0.099-0.165,0.231-0.264,0.331
						l-0.098,0.099c-0.066,0.099-0.132,0.165-0.198,0.231c-0.033,0.032-0.099,0.065-0.132,0.098
						c-0.066,0.066-0.165,0.132-0.264,0.198c-0.033,0-0.033,0.033-0.066,0.033c-0.098,0.099-0.231,0.165-0.363,0.198
						c-0.033,0.033-0.066,0.033-0.099,0.066c-0.099,0.033-0.198,0.066-0.298,0.099c-0.033,0-0.066,0.032-0.132,0.032
						c-0.132,0.034-0.264,0.066-0.396,0.066c-2.015,0.165-4.889,0.397-7.763,0.628c-2.84,0.231-5.747,0.462-7.828,0.627
						c-0.495,0.033-0.958,0.066-1.321,0.099c-0.132,0.033-0.265,0.033-0.397,0.033h-0.463c-0.098,0-0.198,0-0.297-0.033h-0.627
						c-0.066-0.033-0.165-0.033-0.231-0.033c-0.165,0-0.298-0.033-0.462-0.033h-0.231c-0.165-0.033-0.331-0.033-0.529-0.066h-0.165
						c-0.197-0.033-0.396-0.066-0.627-0.066c-0.033,0-0.066,0-0.132-0.033c-0.231,0-0.462-0.033-0.727-0.066
						c-3.798-0.396-8.885-1.123-13.015-1.751c-4.129-0.627-7.333-1.156-7.333-1.156s-17.673,1.552-17.705,1.354
						c-0.132-2.246-0.166-4.294-0.166-6.144v-0.727c0.1-10.768,1.949-14.501,1.949-14.501s1.123,6.078,10.141,4.427
						c6.309-1.157,8.258-7.432,8.753-9.91c0.165-0.628,0.198-1.024,0.198-1.024l3.073-0.265l7.398-0.594l2.742-0.231
						c0,0,0.165,0.826,0.429,1.916v0.033c0.034,0.165,0.1,0.298,0.132,0.462c0,0.033,0,0.066,0.034,0.132
						c0.032,0.165,0.065,0.331,0.132,0.495c0,0.034,0,0.066,0.033,0.099c0.033,0.165,0.066,0.331,0.132,0.496
						c0,0.033,0,0.066,0,0.066c0.066,0.198,0.132,0.363,0.165,0.561c0.033,0.033,0.033,0.066,0.033,0.099
						c0.066,0.198,0.132,0.364,0.164,0.528c0.034,0,0.034,0.033,0.034,0.033c0.165,1.718,1.915,3.568,1.915,3.568
						c3.369,3.798,9.646,9.381,9.646,9.381s4.36,0.429,8.356,0.098c3.997-0.297,7.928,0.958,8.192,4.393
						C271.884,734.844,271.884,734.976,271.918,735.108z"/>
					<path style="fill:#332316;" d="M243.873,717.997l-35.642,16.45c0.1-10.768,1.949-14.501,1.949-14.501s1.123,6.078,10.141,4.427
						c6.309-1.157,8.258-7.432,8.753-9.91l10.669-1.883L243.873,717.997z"/>
					<g>
						<path style="fill:#4F342F;" d="M140.934,716.071c-3.427-0.824-12.551-3.696-13.705-0.435s-1.493,8.681-1.483,9.067
							c0.011,0.386,3.683,5.875,4.427,5.414c0.743-0.461,10.184-1.007,9.933-1.834C139.856,727.455,140.934,716.071,140.934,716.071
							z"/>
						<path style="fill:#332316;" d="M128.345,714.822c-0.555,2.128-0.307,2.934-0.194,3.365c2.152,8.221,24.732,5.418,25.641,4.562
							c0.909-0.856,3.384-23.435,3.013-24.501c-0.371-1.065-15.314-1.398-17.461-1.498c-2.147-0.1-7.741-2.967-6.704-2.268
							C133.071,694.773,128.901,712.693,128.345,714.822z"/>
						<path style="fill:#4F342F;" d="M181.872,743.696c-4.426,0.628-13.477,0.793-13.477,0.793c-0.727,0-3.171,0.066-4.493-0.033
							c-0.264-0.033-0.528-0.033-0.826-0.066c-0.098,0-0.231,0-0.363-0.033c-5.582-0.495-19.49-2.774-24.444-5.285
							c-2.213-1.123-5.978-2.18-9.513-3.27c-3.204-0.958-6.012-1.685-6.012-1.784c0.298-3.766,0.727-6.573,1.189-8.687
							c0.561-2.94,1.222-5.087,1.817-6.64c0.858-2.213,1.552-3.204,1.684-3.369c-0.198,0.529-2.279,6.31,7.235,5.847
							c7.498-0.363,8.126-8.093,8.126-8.093l19.257,0.892c0,0-1.023,6.507-1.023,6.772c0.363,0.793,0.892,1.586,1.519,2.378
							c2.312,3.006,5.714,5.847,6.177,6.343c0,0-0.032,0-0.066,0c0.132,0.065,0.198,0.131,0.198,0.131s7.234,3.865,11.793,3.964
							c2.511,0.034,3.568,2.015,3.601,4.063C184.581,740.393,183.589,743.432,181.872,743.696z"/>
						<path style="fill:#332316;" d="M162.548,723.117c-0.724-0.987-2.612-1.024-6.843-0.314
							c-6.312,1.059-25.738,2.753-29.954-4.079v-0.034c0.858-2.213,1.366-3.464,1.498-3.629c-0.198,0.529,1.187-2.787,8-1.497
							c7.375,1.397,7.546-0.49,7.546-0.49l19.257,0.892c0,0-1.023,6.507-1.023,6.772
							C161.392,721.532,161.921,722.325,162.548,723.117z"/>
					</g>
					<g>
						<path style="fill:#9B2A35;" d="M139.234,717.584c15.228,3.796,27.798,3.673,29.216,0.224
							c0.458-1.139,2.099-11.689,4.086-25.32c0.279-1.942,0.569-3.93,0.86-5.973c0.201-1.373,0.391-2.757,0.592-4.153
							c0.279-1.976,0.569-3.974,0.86-5.995c3.539-25.074,9.434-64.517,9.434-64.517c3.163-12.914,0.552-13.506,4.767-147.049
							l-42.512-3.572l-3.003,14.882c-1.094-0.994-3.639,28.523-3.639,32.464c0,56.019,0.893,105.409,0.603,106.514l-7.993,54.29
							l-0.86,5.861l-0.603,4.041l-0.86,5.861l-3.494,23.735C126.687,708.876,123.985,713.799,139.234,717.584z"/>
					</g>
					<path style="fill:#9B2A35;" d="M243.809,718.058c0,0-9.609,1.228-17.838,1.53v0.086c-8.058,0.064-23.031,2.089-23.031,2.089
						l-1.185-22.535l-0.28-5.214l-0.086-1.293v-0.086l-0.216-4.309l-0.043-0.797l-0.065-1.249l-0.194-3.555l-0.043-0.776
						l-0.022-0.194l-0.301-5.472l-0.043-0.797l-2.994-56.165c-0.129-1.745-0.625-6.161-1.12-8.424
						c-4.891-18.592-8.058-61.745-7.778-74.78l-23.138-69.028l44.359-10.901c0,0,3.728,28.159,9.631,54.119
						c7.993,35.116,19.799,93.567,20.122,102.378l2.284,56.703l0.151,3.534l0.129,2.995l0.108,2.8l0.022,0.646l0.151,3.211
						l0.108,2.714l0.129,3.77v0.044l0.021,0.517l0.28,6.571L243.809,718.058z"/>
					<g>
						<path style="fill:#FFE14E;" d="M210.958,407.335l-2.447-13.099c-2.372-12.697-5.602-26.69-7.646-34.815l-3.253-12.922
							c0,0-8.864-8.783,3.396-8.783c14.514,0,23.22,11.428,25.781,24.746c2.693,14.004,8.348,40.126,8.348,40.126L210.958,407.335z"
							/>
						<polygon style="opacity:0.5;fill:#D64404;" points="225.385,404.604 216.735,362.463 200.014,409.135 						"/>
					</g>
					<path style="fill:#9B2A35;" d="M140.486,503.996l0.94,30.398c0.382,8.861,7.076,3.051,15.847,1.737l46.332-6.944
						c8.771-1.314,15.935-9.646,15.92-18.515l-0.072-49.786"/>
					<path style="fill:#FFE14E;" d="M163.237,337.645l36.508,0c11.823,0.097,21.119,10.843,21.119,23.455
						c0,0-2.223,106.453-2.512,114.529c-0.03,0.833-2.088,2.477-2.088,2.477s5.512-3.843-25.436-3.6
						c-36.393,0.286-50.937,34.066-50.937,34.066l0-148.135C139.891,347.824,151.415,337.548,163.237,337.645z"/>
					<polygon style="opacity:0.5;fill:#D64404;" points="161.138,368.962 157.776,368.136 156.875,368.136 146.346,375.155 
						142.836,418.923 148.247,431.517 173.598,421.813 174.836,387.955 					"/>
					<path style="fill:#9B2A35;" d="M220.421,417.899c0,0-0.496,24.741-0.958,61.076c0,0-79.575,63.379-79.575,31.898
						c0-0.96-0.098-2.048-0.165-3.303c-0.034-0.594-0.034-1.189-0.034-1.75c-0.792-25.204,0.529-101.729,0.529-101.729l7.399,3.237
						v12.948c0,0,3.964-0.694,10.174-0.694c1.057,0,2.014-0.165,2.906-0.462c12.486-4.36,8.754-37.525,8.754-47.104h44.923
						C214.376,417.899,215.268,417.899,220.421,417.899z"/>
					<path style="fill:#751931;" d="M170.999,460.076c-16.057,0-31.31,15.355-31.31,45.745c0-26.213,0-106.285,0-106.285
						l7.928,7.793v12.948c0,0,3.964-0.694,10.174-0.694c1.057,0,2.014-0.165,2.906-0.462c1.322,2.477,2.148,4.129,2.148,4.129
						c0.804,29.382,53.712,9.785,53.712,18.654C216.558,461.294,200.938,460.076,170.999,460.076z"/>
					<g>
						<path style="fill:#8E3925;" d="M149.627,281.717c1.287,17.917,5.715,22.757,12.717,22.757c5.744,0,10.503-7.929,10.297-9.782
							c-0.206-1.854-2.265-12.769-3.913-13.386C167.081,280.688,149.627,281.717,149.627,281.717z"/>
						<path style="fill:#8E3925;" d="M166.021,300.659c-1.138-2.285-1.838,4.976-1.855,4.108
							c-0.292-15.253-13.355-3.897-14.384-20.784c-0.878-14.399-1.001-14.525-1.39-21.521c-0.772-13.901,7.303-28.649,37.013-28.422
							c16.54,0.127,20.783,6.55,24.513,14.974c6.946,15.69,1.339,35.844,1.339,35.844L166.021,300.659z"/>
						<path style="fill:#FFB287;" d="M192.76,338.706c0,0,0.227,5.868-9.335,5.868c-9.561,0-15.515-5.868-15.515-5.868l0-29.119
							l24.85-1.377L192.76,338.706z"/>
						<path style="fill:#E5785C;" d="M192.76,332.475c-6.512,0.796-24.674-1.536-24.674-5.814c0-4.277-0.175-23.257-0.175-23.257
							l24.85,0.168L192.76,332.475z"/>
						<path style="fill:#E5785C;" d="M214.229,294.083c0,5.723-4.987,18.913-8.082,22.859c-1.321,1.683-3.143,5.507-7.334,6.777
							c-3.813,1.156-6.069,1.97-6.069,4.029c0,2.235-4.693-2.098-6.295-2.098c-19.047,0-28.462-20.517-28.462-34.495l5.87-18.336
							c0-15.302,10.156-26.302,24.936-26.188c14.781,0.113,26.682,10.191,26.682,25.493L214.229,294.083z"/>
						<path style="fill:#FFB287;" d="M215.862,271.533l-0.198,6.078l-0.528,16.483c-0.561,16.054-4.162,30.885-23.651,30.72
							c-19.456-0.132-24.675-23.684-24.147-38.945l0.925-13.279c0-0.561,0-1.123,0.033-1.652
							c0.397-19.918,8.49-27.218,22.792-27.218C210.61,243.72,216.391,256.24,215.862,271.533z"/>
						<g>
							<path style="fill:#E5785C;" d="M198.525,297.783c2.774,0.004,5.134-1.564,5.012-3.162c-0.044-0.582-0.625-1.284-1.713-0.772
								c-0.499,0.235-1.847,0.51-3.281,0.501c-1.433-0.009-2.21-0.297-3.02-0.54c-1.765-0.53-2.321,0.165-2.366,0.746
								C193.035,296.153,195.751,297.752,198.525,297.783z"/>
						</g>
						<path style="fill:#E5785C;" d="M167.628,284.47c0.404,5.703-2.495,10.601-6.476,10.941c-3.981,0.34-7.536-4.008-7.94-9.71
							c-0.404-5.703,1.815-10.143,5.757-10.846C162.911,274.151,167.223,278.767,167.628,284.47z"/>
						<path style="fill:#422B27;" d="M184.479,283.21c0,1.355,1.107,2.462,2.473,2.472c1.366,0.01,2.473-1.079,2.473-2.434
							c0-1.355-1.107-2.462-2.473-2.472C185.586,280.765,184.479,281.855,184.479,283.21z"/>
						<path style="fill:#422B27;" d="M206.319,283.59c0,1.355,1.107,2.462,2.473,2.472c1.366,0.01,2.473-1.079,2.473-2.434
							c0-1.355-1.107-2.462-2.473-2.472C207.426,281.145,206.319,282.234,206.319,283.59z"/>
						<path style="fill:#8E3925;" d="M165.299,273.451"/>
						<path style="fill:#8E3925;" d="M174.573,271.667"/>
						
							<line style="fill:none;stroke:#8E3925;stroke-width:3.0913;stroke-linecap:round;stroke-miterlimit:10;" x1="180.183" y1="273.14" x2="191.311" y2="272.916"/>
						
							<line style="fill:none;stroke:#8E3925;stroke-width:3.0913;stroke-linecap:round;stroke-miterlimit:10;" x1="205.126" y1="273.331" x2="214.709" y2="274.022"/>
						<path style="fill:#8E3925;" d="M161.635,270.509c0-8.666,3.882-16.407,9.932-21.473c-2.917-3.623-3.975-9.04-3.353-9.537
							c1.03-0.824,14.38-10.746,30.134-1.633c10.789,6.24,15.726,10.43,13.879,14.858c0.023,0.051,0.049,0.099,0.072,0.151
							c-0.03-0.032-0.062-0.065-0.093-0.097c-1.67,3.937-5.377,6.492-8.672,6.492c-13.798,0-13.505-8.102-23.786-7.311
							c-4.016,0.309-10.117,2.857-10.117,12.897c0,10.889-1.781,22.245-1.851,22.25c-3.23,0.209-3.272-1.887-3.272-1.887
							c0-5.766-0.863-8.992-4.531-10.709L161.635,270.509z"/>
					</g>
					<path style="fill:none;stroke:#E5785C;stroke-width:3.3748;stroke-linecap:round;stroke-miterlimit:10;" d="M202.366,307.27
						c-1.607,1.134-4.058,1.317-6.181,1.316c-2.123-0.001-5.554-0.186-7.167-1.322"/>
					<g>
						<path style="fill:#602C34;" d="M201.946,527.066c-0.002-0.042-0.003-0.083-0.005-0.125
							C201.943,526.983,201.944,527.024,201.946,527.066z"/>
						<path style="fill:#602C34;" d="M201.915,525.811c0,0.015,0.001,0.031,0.001,0.047
							C201.915,525.842,201.915,525.827,201.915,525.811z"/>
						<path style="fill:#751931;" d="M205.375,534.871c-1.07-6.559-2.558-12.885-2.558-12.885
							c-2.417,8.069-11.573,9.685-16.526,9.511l0.286,18.127l9.957,61.267c0.126,0.46,0.26,1.02,0.394,1.633
							C194.49,591.058,207.93,550.537,205.375,534.871z"/>
						<path style="fill:#602C34;" d="M201.934,524.628c-0.001,0.023-0.002,0.046-0.003,0.07
							C201.932,524.674,201.933,524.651,201.934,524.628z"/>
						<path style="fill:#602C34;" d="M202.391,530.962c-0.016-0.085-0.031-0.17-0.046-0.255
							C202.36,530.792,202.376,530.877,202.391,530.962z"/>
						<path style="fill:#602C34;" d="M202.167,529.558c-0.005-0.039-0.009-0.078-0.014-0.117
							C202.158,529.481,202.161,529.519,202.167,529.558z"/>
						<path style="fill:#602C34;" d="M202.036,528.375c-0.006-0.062-0.012-0.125-0.017-0.187
							C202.025,528.25,202.031,528.312,202.036,528.375z"/>
					</g>
					<g>
						<path style="fill:#FFB287;" d="M247.493,439.04c0.388,4.589-3.016,8.618-7.605,9.027l-55.799,4.804
							c-0.431,0.043-1.731-0.104-2.183-0.104c-6.829,0-13.681-4.438-16.331-10.729l-10.555-22.889l-4.174-13.934l-10.556-25.077
							c-1.788-4.245,0.215-9.113,4.459-10.901c4.223-1.788,9.135,0.194,10.901,4.438l12.151,28.847l4.768,4.643l11.87,28.18
							c0.108,0.151,0.69,0.495,0.992,0.539l53.034-4.449C243.055,431.047,247.084,434.451,247.493,439.04z"/>
					</g>
					<path style="fill:#FFE14E;" d="M163.84,337.644c-27.132,0-33.014,16.14-32.761,29.704c0.249,13.353,16.537,58.04,16.537,58.04
						l28.614-9.759l-15.092-47.7L163.84,337.644z"/>
				</g>
				<path style="fill:#9B2A35;" d="M163.237,337.645c12.953,0,15.975,20.734,15.803,34.365l-4.467,9.91l-5.112-9.91
					c0.172-13.631-3.044-33.923-17.469-33.11c0,0,3.225-0.606,5.491-0.928C159.749,337.648,163.237,337.645,163.237,337.645z"/>
				<path style="fill:#9B2A35;" d="M198.759,337.644c0,0-3.487-0.34-5.753-0.017c-0.079,0.011-0.165,0.024-0.245,0.035v1.043
					c0,0,0.014,0.373-0.118,0.929c10.074,3.708,12.49,20.542,12.34,32.376l5.555,6.607l3.843-6.607
					C214.551,358.378,211.712,337.644,198.759,337.644z"/>
			</g>
			<path style="opacity:0.6;fill:#C67560;" d="M215.862,271.533l-0.198,6.078c-0.858-4.261-14.112-5.145-28.712-4.584
				c-8.721,0.364-17.678,0.995-17.975,4.584c0.397-19.918,7.809-33.891,22.111-33.891C210.61,243.72,216.391,256.24,215.862,271.533
				z"/>
			<g>
				<path style="fill:#FCA903;" d="M214.38,262.411c-2.155-1.652-4.398-0.826-14.368-0.826c-11.298,0-22.83,1.652-32.107,4.466
					c-9.389,2.836-16.455,6.866-18.532,11.499c-0.971,0.715-2.478-8.462-2.623-15.06c-0.022-0.368-0.022-0.715-0.022-1.061
					c0-2.601,0.324-5.18,0.971-7.67c2.847-10.773,11.956-19.961,28.557-22.595c0.067,0,0.134-0.034,0.167-0.034
					c1.853-0.29,3.796-0.491,5.85-0.625c0.726-0.045,1.429-0.068,2.132-0.068c4.343-0.056,8.149,0.592,11.454,1.719
					c0.234,0.079,0.469,0.156,0.692,0.257c8.496,3.103,13.653,9.433,16.31,15.462C216.167,255.311,215.899,262.288,214.38,262.411z"
					/>
				<path style="fill:#D86619;" d="M225.604,258.693c-3.427,0.165-7.245-0.181-11.224-0.06c1.215,3.863,1.647,8.25,1.486,12.9l0,0
					C241.218,272.802,246.524,257.683,225.604,258.693z"/>
				<path style="fill:#FCA903;" d="M149.371,277.55c2.077-4.633,9.143-8.663,18.532-11.499c9.277-2.813,20.809-4.465,32.107-4.465
					c9.969,0,12.213-0.826,14.368,0.826c1.518-0.123,1.786-7.1-1.518-14.535c-2.657-6.028-7.815-12.358-16.311-15.461
					c7.212,4.454,7.915,16.143,8.406,19.827c0.558,4.186-11.164,5.024-29.305,9.489C157.51,266.197,149.606,272.995,149.371,277.55z
					"/>
			</g>
		</g>
	</g>
	<path style="fill:#EDE9E6;stroke:#EDE9E6;stroke-width:0.5582;stroke-linejoin:round;stroke-miterlimit:10;" d="M134.336,656.387
		c13.385,5.905,28.825,10.181,42.344,7.122c0.279-1.976,0.569-3.974,0.86-5.995c-8.507,2.433-18.365,0.77-26.615-1.451
		c-5.403-1.462-10.639-3.327-15.73-5.537L134.336,656.387z"/>
	<path style="fill:#EDE9E6;stroke:#EDE9E6;stroke-width:0.5582;stroke-linejoin:round;stroke-miterlimit:10;" d="M132.874,666.289
		c13.352,5.928,28.803,10.282,42.356,7.346c0.279-1.942,0.569-3.93,0.86-5.973c-8.44,2.289-18.141,0.648-26.28-1.551
		c-5.526-1.496-10.874-3.405-16.076-5.683L132.874,666.289z"/>
	<g style="opacity:0.7;">
		<path style="fill:#631729;" d="M164.579,390.74c0,0.587,0.481,1.068,1.068,1.068h22.612c0.587,0,1.068-0.481,1.068-1.068V375.35
			c0-0.587-0.481-1.068-1.068-1.068h-22.612c-0.587,0-1.068,0.481-1.068,1.068V390.74z"/>
	</g>
	<g>
		<path style="fill:#FFFFFF;" d="M167.37,386.711c0,0.587,0.481,1.068,1.068,1.068h22.612c0.587,0,1.068-0.481,1.068-1.068v-14.152
			c0-0.587-0.481-1.068-1.068-1.068h-22.612c-0.587,0-1.068,0.481-1.068,1.068V386.711z"/>
	</g>
	<g>
		<path style="fill:#B6B8BF;" d="M177.029,371.573c0,0.587,0.481,1.068,1.068,1.068h3.294c0.587,0,1.068-0.481,1.068-1.068v-5.333
			c0-0.587-0.481-1.068-1.068-1.068h-3.294c-0.587,0-1.068,0.481-1.068,1.068V371.573z"/>
	</g>
	<g style="opacity:0.6;">
		<path style="fill:#4C888E;" d="M183.245,379.555c0,0.587,0.481,1.068,1.068,1.068h3.676c0.587,0,1.068-0.481,1.068-1.068v-3.573
			c0-0.587-0.481-1.068-1.068-1.068h-3.676c-0.587,0-1.068,0.481-1.068,1.068V379.555z"/>
	</g>
	<g>
		<g>
			<path style="fill:#1D2021;" d="M590.484,714.289c6.593,0,11.938,7.466,11.938,16.677s-5.345,16.677-11.938,16.677h-16.867
				v-33.353H590.484z"/>
			<ellipse style="fill:#2D3133;" cx="574.307" cy="730.965" rx="11.938" ry="16.677"/>
			<path style="fill:#9099A3;" d="M569.592,730.965c0,3.638,2.111,6.587,4.716,6.587c2.604,0,4.716-2.949,4.716-6.587
				c0-3.638-2.111-6.587-4.716-6.587C571.703,724.378,569.592,727.327,569.592,730.965z"/>
		</g>
		<g>
			<path style="fill:#3B3F42;" d="M617.319,714.289c6.593,0,11.938,7.466,11.938,16.677s-5.345,16.677-11.938,16.677h-16.867
				v-33.353H617.319z"/>
			<ellipse style="fill:#2D3133;" cx="601.142" cy="730.965" rx="11.938" ry="16.677"/>
			<path style="fill:#9099A3;" d="M596.427,730.965c0,3.638,2.111,6.587,4.716,6.587c2.604,0,4.716-2.949,4.716-6.587
				c0-3.638-2.111-6.587-4.716-6.587C598.538,724.378,596.427,727.327,596.427,730.965z"/>
		</g>
		<rect x="349.116" y="699.734" style="fill:#FF881D;" width="321.001" height="15.797"/>
		<rect x="262.94" y="699.734" style="fill:#EA6A13;" width="342.547" height="15.797"/>
		<rect x="363.479" y="696.932" style="fill:#C44E1A;" width="184.855" height="18.599"/>
		<rect x="659.818" y="699.734" style="fill:#FF881D;" width="10.299" height="15.797"/>
	</g>
	<path style="fill:#B74D2C;" d="M434.193,694.336l-33.436,3.706l-6.894,0.775l-12.991-1.487l-26.068-2.995l3.986-14.133
		c2.381-9.124,6.678-14.24,14.499-14.24l37.228,0.172c0.129,0,0.258,0,0.388,0.021c7.67,0.195,15.275,6.442,16.977,14.047
		L434.193,694.336z"/>
	<g>
		
			<path style="fill:none;stroke:#354242;stroke-width:10.772;stroke-linecap:round;stroke-linejoin:round;stroke-miterlimit:10;" d="
			M295.879,479.706c2.386,7.944-2.448,14.485-10.742,14.535l-11.68,0.071c-8.294,0.051-17.81-6.121-21.146-13.715l-11.406-25.962
			c-3.336-7.594,0.72-13.879,9.014-13.968l19.045-0.203c8.294-0.088,17.032,6.339,19.418,14.283L295.879,479.706z"/>
	</g>
	<g>
		<g>
			<g>
				<g>
					<g>
						<g>
							<g>
								<rect x="663.672" y="327.842" style="fill:#FFD18D;" width="110.475" height="140.212"/>
								<rect x="574.882" y="327.839" style="fill:#D88850;" width="97.522" height="140.213"/>
								<g>
									
										<line style="opacity:0.5;fill:none;stroke:#C9804F;stroke-width:4.3088;stroke-miterlimit:10;" x1="774.171" y1="397.692" x2="572.914" y2="397.692"/>
								</g>
								<rect x="715.618" y="327.839" style="fill:#CE683C;" width="12.106" height="14.306"/>
								<rect x="577.806" y="381.942" style="opacity:0.8;fill:#C2D8EF;" width="11.314" height="10.295"/>
								<rect x="627.78" y="381.942" style="opacity:0.2;fill:#333332;" width="18.882" height="10.295"/>
								<rect x="649.324" y="381.942" style="opacity:0.2;fill:#333332;" width="9.721" height="10.295"/>
								<rect x="627.78" y="452.982" style="opacity:0.2;fill:#333332;" width="18.881" height="10.295"/>
								<rect x="649.324" y="452.982" style="opacity:0.2;fill:#333332;" width="9.721" height="10.295"/>
								<rect x="577.806" y="453.562" style="opacity:0.8;fill:#C2D8EF;" width="11.314" height="10.295"/>
								<rect x="716.702" y="396.395" style="fill:#CE683C;" width="12.106" height="14.306"/>
							</g>
						</g>
						<g>
							<g>
								<rect x="469.707" y="327.838" style="fill:#BA6145;" width="114.542" height="140.213"/>
								<rect x="406.246" y="327.838" style="fill:#D88850;" width="76.259" height="140.213"/>
								<g>
									
										<line style="opacity:0.5;fill:none;stroke:#C9804F;stroke-width:4.3088;stroke-miterlimit:10;" x1="584.273" y1="397.692" x2="406.432" y2="397.692"/>
								</g>
								<rect x="534.456" y="327.838" style="fill:#A86951;" width="12.106" height="13.206"/>
								<rect x="442.978" y="381.942" style="opacity:0.3;fill:#333332;" width="9.721" height="10.295"/>
								<rect x="455.361" y="381.942" style="opacity:0.3;fill:#333332;" width="9.721" height="10.295"/>
								<rect x="467.358" y="381.942" style="opacity:0.3;fill:#333332;" width="9.721" height="10.295"/>
								<rect x="442.978" y="452.982" style="opacity:0.3;fill:#333332;" width="9.721" height="10.295"/>
								<rect x="455.361" y="452.982" style="opacity:0.3;fill:#333332;" width="9.721" height="10.295"/>
								<rect x="467.358" y="452.982" style="opacity:0.3;fill:#333332;" width="9.721" height="10.295"/>
								<rect x="535.539" y="396.401" style="fill:#A86951;" width="12.106" height="16.519"/>
							</g>
							<g>
								<rect x="552.527" y="327.838" style="fill:#FFD18D;" width="114.542" height="140.213"/>
								<rect x="489.066" y="327.838" style="fill:#D88850;" width="76.259" height="140.213"/>
								<g>
									
										<line style="opacity:0.5;fill:none;stroke:#C9804F;stroke-width:4.3088;stroke-miterlimit:10;" x1="667.092" y1="397.692" x2="489.252" y2="397.692"/>
								</g>
								<rect x="608.236" y="327.839" style="fill:#CE683C;" width="12.106" height="14.306"/>
								<rect x="525.798" y="381.942" style="opacity:0.3;fill:#333332;" width="9.721" height="10.295"/>
								<rect x="538.181" y="381.942" style="opacity:0.3;fill:#333332;" width="9.721" height="10.295"/>
								<rect x="550.177" y="381.942" style="opacity:0.3;fill:#333332;" width="9.721" height="10.295"/>
								<rect x="525.798" y="452.982" style="opacity:0.3;fill:#333332;" width="9.721" height="10.295"/>
								<rect x="538.181" y="452.982" style="opacity:0.3;fill:#333332;" width="9.721" height="10.295"/>
								<rect x="550.177" y="452.982" style="opacity:0.3;fill:#333332;" width="9.721" height="10.295"/>
								<rect x="608.236" y="396.395" style="fill:#CE683C;" width="12.106" height="14.306"/>
							</g>
						</g>
					</g>
					<g>
						<g>
							<g>
								<rect x="663.672" y="467.02" style="fill:#FFD18D;" width="110.475" height="211.145"/>
								<rect x="574.882" y="467.021" style="fill:#D88850;" width="97.522" height="211.143"/>
								<g>
									
										<line style="opacity:0.5;fill:none;stroke:#C9804F;stroke-width:4.3088;stroke-miterlimit:10;" x1="773.111" y1="537.413" x2="569.682" y2="537.412"/>
									
										<line style="opacity:0.5;fill:none;stroke:#C9804F;stroke-width:4.3088;stroke-miterlimit:10;" x1="773.829" y1="607.804" x2="569.682" y2="607.804"/>
								</g>
								<rect x="715.618" y="536.102" style="fill:#CE683C;" width="12.106" height="14.306"/>
								<rect x="577.806" y="592.054" style="opacity:0.8;fill:#C2D8EF;" width="11.314" height="10.295"/>
								<rect x="627.78" y="592.054" style="opacity:0.2;fill:#333332;" width="18.881" height="10.295"/>
								<rect x="649.324" y="592.054" style="opacity:0.2;fill:#333332;" width="9.721" height="10.295"/>
								<rect x="627.78" y="520.821" style="opacity:0.2;fill:#333332;" width="18.881" height="10.295"/>
								<rect x="649.324" y="520.821" style="opacity:0.2;fill:#333332;" width="9.721" height="10.295"/>
								<rect x="627.78" y="663.094" style="opacity:0.2;fill:#333332;" width="18.881" height="10.295"/>
								<rect x="649.324" y="663.094" style="opacity:0.2;fill:#333332;" width="9.721" height="10.295"/>
								<rect x="577.806" y="663.674" style="opacity:0.8;fill:#C2D8EF;" width="11.314" height="10.295"/>
								<rect x="577.806" y="521.595" style="opacity:0.8;fill:#C2D8EF;" width="11.314" height="10.295"/>
								<rect x="716.702" y="606.507" style="fill:#CE683C;" width="12.106" height="14.306"/>
							</g>
						</g>
						<g>
							<g>
								<rect x="469.707" y="467.021" style="fill:#BA6145;" width="114.542" height="211.143"/>
								<rect x="406.246" y="467.021" style="fill:#D88850;" width="76.259" height="211.143"/>
								<g>
									
										<line style="opacity:0.5;fill:none;stroke:#C9804F;stroke-width:4.3088;stroke-miterlimit:10;" x1="581.017" y1="537.412" x2="406.295" y2="537.412"/>
									
										<line style="opacity:0.5;fill:none;stroke:#C9804F;stroke-width:4.3088;stroke-miterlimit:10;" x1="581.041" y1="607.804" x2="407.464" y2="607.804"/>
								</g>
								<rect x="534.456" y="536.175" style="fill:#A86951;" width="12.106" height="13.206"/>
								<rect x="442.978" y="592.054" style="opacity:0.3;fill:#333332;" width="9.721" height="10.295"/>
								<rect x="455.361" y="592.054" style="opacity:0.3;fill:#333332;" width="9.721" height="10.295"/>
								<rect x="467.358" y="592.054" style="opacity:0.3;fill:#333332;" width="9.721" height="10.295"/>
								<rect x="442.978" y="520.821" style="opacity:0.3;fill:#333332;" width="9.721" height="10.295"/>
								<rect x="455.361" y="520.821" style="opacity:0.3;fill:#333332;" width="9.721" height="10.295"/>
								<rect x="467.358" y="520.821" style="opacity:0.3;fill:#333332;" width="9.721" height="10.295"/>
								<rect x="442.978" y="663.094" style="opacity:0.3;fill:#333332;" width="9.721" height="10.295"/>
								<rect x="455.361" y="663.094" style="opacity:0.3;fill:#333332;" width="9.721" height="10.295"/>
								<rect x="467.358" y="663.094" style="opacity:0.3;fill:#333332;" width="9.721" height="10.295"/>
								<rect x="535.539" y="467.021" style="fill:#A86951;" width="12.106" height="11.19"/>
								<rect x="535.539" y="606.513" style="fill:#A86951;" width="12.106" height="16.519"/>
							</g>
							<g>
								<rect x="552.527" y="467.021" style="fill:#FFD18D;" width="114.542" height="211.143"/>
								<rect x="489.066" y="467.021" style="fill:#D88850;" width="76.259" height="211.143"/>
								<g>
									
										<line style="opacity:0.5;fill:none;stroke:#C9804F;stroke-width:4.3088;stroke-miterlimit:10;" x1="666.801" y1="537.412" x2="486.021" y2="537.412"/>
									
										<line style="opacity:0.5;fill:none;stroke:#C9804F;stroke-width:4.3088;stroke-miterlimit:10;" x1="666.825" y1="607.804" x2="486.02" y2="607.804"/>
								</g>
								<rect x="608.236" y="536.102" style="fill:#CE683C;" width="12.106" height="14.306"/>
								<rect x="525.798" y="592.054" style="opacity:0.3;fill:#333332;" width="9.721" height="10.295"/>
								<rect x="538.181" y="592.054" style="opacity:0.3;fill:#333332;" width="9.721" height="10.295"/>
								<rect x="550.177" y="592.054" style="opacity:0.3;fill:#333332;" width="9.721" height="10.295"/>
								<rect x="525.798" y="520.821" style="opacity:0.3;fill:#333332;" width="9.721" height="10.295"/>
								<rect x="538.181" y="520.821" style="opacity:0.3;fill:#333332;" width="9.721" height="10.295"/>
								<rect x="550.177" y="520.821" style="opacity:0.3;fill:#333332;" width="9.721" height="10.295"/>
								<rect x="525.798" y="663.094" style="opacity:0.3;fill:#333332;" width="9.721" height="10.295"/>
								<rect x="538.181" y="663.094" style="opacity:0.3;fill:#333332;" width="9.721" height="10.295"/>
								<rect x="550.177" y="663.094" style="opacity:0.3;fill:#333332;" width="9.721" height="10.295"/>
								<rect x="610.144" y="606.507" style="fill:#CE683C;" width="12.106" height="14.306"/>
							</g>
						</g>
					</g>
					
						<line style="opacity:0.5;fill:none;stroke:#C9804F;stroke-width:4.3088;stroke-miterlimit:10;" x1="405.978" y1="467.32" x2="774.547" y2="467.321"/>
					<rect x="716.702" y="467.052" style="fill:#CE683C;" width="12.106" height="14.306"/>
					<rect x="608.236" y="467.052" style="fill:#CE683C;" width="12.106" height="14.306"/>
				</g>
				<g>
					<g>
						<g>
							<rect x="763.014" y="677.936" style="fill:#FFDB80;" width="36.578" height="11.318"/>
							<rect x="543.041" y="677.936" style="fill:#E29A4B;" width="220.513" height="11.663"/>
							<polygon style="fill:#B87A53;" points="718.149,689.254 745.834,689.254 754.728,677.936 745.853,677.936 							"/>
							<polygon style="fill:#B87A53;" points="665.889,689.254 693.574,689.254 702.468,677.936 693.403,677.936 							"/>
							<polygon style="fill:#B87A53;" points="611.342,689.254 639.027,689.254 647.92,677.936 639.741,677.936 							"/>
							<polygon style="fill:#B87A53;" points="558.046,689.254 585.731,689.254 594.624,677.936 586.445,677.936 							"/>
						</g>
						<g>
							<rect x="656.318" y="677.936" style="fill:#FFDB80;" width="36.578" height="11.318"/>
						</g>
						<g>
							<rect x="709.666" y="677.936" style="fill:#FFDB80;" width="36.578" height="11.318"/>
						</g>
						<g>
							<rect x="602.97" y="677.936" style="fill:#FFDB80;" width="36.578" height="11.318"/>
						</g>
						<g>
							<rect x="378.388" y="677.936" style="fill:#E29A4B;" width="183.966" height="11.776"/>
						</g>
					</g>
					<g>
						<rect x="475.284" y="698.058" style="fill:#72504C;" width="24.724" height="25.645"/>
						<rect x="401.073" y="698.058" style="fill:#72504C;" width="24.724" height="25.645"/>
						<rect x="741.528" y="703.287" style="fill:#B87A53;" width="24.081" height="23.49"/>
						<polygon style="fill:#72504C;" points="741.528,726.777 761.522,701.397 737.675,701.397 741.528,719.384 737.745,724.727 
													"/>
						<rect x="658.384" y="701.132" style="fill:#B87A53;" width="24.081" height="25.645"/>
						<rect x="637.814" y="701.132" style="fill:#B87A53;" width="24.081" height="25.645"/>
						<rect x="545.276" y="701.132" style="fill:#B87A53;" width="24.081" height="25.645"/>
						<polygon style="fill:#EFBB67;" points="765.441,726.777 799.556,726.777 799.556,695.392 765.441,701.132 						"/>
						<polygon style="fill:#EFBB67;" points="657.417,726.777 691.533,726.777 691.533,696.019 657.417,701.132 						"/>
						<polygon style="fill:#EFBB67;" points="549.621,726.777 583.736,726.777 583.736,695.706 549.621,701.132 						"/>
						<polygon style="fill:#C48E47;" points="526.044,726.777 550.124,726.777 550.124,701.132 526.044,696.332 						"/>
						<polygon style="fill:#C48E47;" points="378.545,726.777 402.625,726.777 402.625,701.132 378.545,695.392 						"/>
						<polygon style="fill:#C48E47;" points="452.294,726.777 476.375,726.777 476.375,701.132 452.294,694.14 						"/>
						<rect x="549.622" y="689.091" style="fill:#EFBB67;" width="249.935" height="12.041"/>
						<rect x="378.545" y="689.091" style="fill:#C48E47;" width="171.579" height="12.041"/>
						<rect x="378.545" y="719.045" style="fill:#C48E47;" width="171.579" height="7.732"/>
						<polygon style="fill:#72504C;" points="637.645,726.777 661.492,700.941 637.645,700.941 637.645,719.103 632.856,725.29 
													"/>
					</g>
					<rect x="550.106" y="677.936" style="fill:#FFDB80;" width="36.578" height="11.431"/>
				</g>
			</g>
		</g>
		<g>
			<g>
				<g>
					<rect x="583.99" y="700.849" style="fill:#E2620C;" width="55.467" height="14.962"/>
				</g>
			</g>
		</g>
		<g>
			<g>
				<g>
					<rect x="691.601" y="701.3" style="fill:#E2620C;" width="55.295" height="14.962"/>
				</g>
			</g>
		</g>
	</g>
	<g>
		<g>
			<polygon style="fill:#C44E1A;" points="583.99,700.849 583.99,715.812 597.346,700.849 			"/>
		</g>
	</g>
	<g>
		<g>
			<polygon style="fill:#C44E1A;" points="691.787,701.208 691.787,716.171 705.143,701.208 			"/>
		</g>
	</g>
	<path style="fill:#FFB287;" d="M248.506,451.773c-0.886,0-1.939,0.021-3.038-0.107c-3.014-7.426-7.727-11.87-9.926-7.875
		c-0.474-3.189-0.63-7.487-5.111-7.81c0,0-5.087-2.625-0.678-3.636c6.463-1.481,13.5-2.826,17.1-2.693
		c7.271,0.269,8.203,3.506,9.086,10.034C256.692,445.202,253.54,451.773,248.506,451.773z"/>
	<path style="fill:#FFB287;" d="M264.311,435.029c5.677,0.413,6.539,7.118,6.616,10.026c0.12,4.472,5.962,6.366,9.991,6.366
		c5.835,0,8.932-7.226,8.258-12.298c-0.865-6.516-3.68-10.413-11.67-9.964c-3.589,0.202-6.707,0.745-10.772,1.436
		C262.286,431.351,264.311,435.029,264.311,435.029z"/>
	<g>
		<g>
			<rect x="632.218" y="700.849" style="fill:#FF881D;" width="29.613" height="14.962"/>
		</g>
	</g>
	<g>
		<g>
			<rect x="743.965" y="701.3" style="fill:#FF881D;" width="29.613" height="14.962"/>
		</g>
	</g>
	<path style="fill:none;stroke:#FFB287;stroke-width:4.3088;stroke-linecap:round;stroke-linejoin:round;stroke-miterlimit:10;" d="
		M249.59,432.211c8.393,0.785,12.006,7.159,11.131,13.285"/>
	<path style="fill:#EDE9E6;" d="M200.581,674.139v-0.086l-0.216-4.309l-0.043-0.797l-0.065-1.249
		c13.723-0.367,27.727-1.4,41.321-3.706l0.108,2.714l0.129,3.77C228.244,672.716,214.262,673.773,200.581,674.139z"/>
	<path style="fill:#EDE9E6;" d="M241.428,660.781c-13.702,1.94-27.512,3.06-41.364,3.362l-0.043-0.776l-0.022-0.194l-0.301-5.472
		c13.896-0.302,27.727-1.4,41.472-3.361l0.129,2.995l0.108,2.8L241.428,660.781z"/>
	<path style="fill:#FFE14E;" d="M167.911,266.055c-3.058-13.917-9.291-34.373,22.435-34.025
		c32.675,0.359,24.417,31.598,24.417,31.598L167.911,266.055z"/>
	<path style="fill:#FFC229;" d="M231.453,258.887c-8.265-0.206-11.069,3.741-28.443,9.395c-13.181,4.298-26.015-0.22-35.099-2.228
		c3.105-2.827,34.738-7.679,52.19-7.802C224.643,258.22,230.694,258.774,231.453,258.887z"/>
</g>
</svg>
